<svg width="832" height="260" viewBox="0 0 832 260" fill="none" xmlns="http://www.w3.org/2000/svg">
<g clip-path="url(#clip0_14_915)">
<g clip-path="url(#clip1_14_915)">
<path d="M163.752 72.6947C179.008 72.6947 191.375 60.3273 191.375 45.0713C191.375 29.8153 179.008 17.4479 163.752 17.4479C148.496 17.4479 136.128 29.8153 136.128 45.0713C136.128 60.3273 148.496 72.6947 163.752 72.6947Z" fill="#A0616A"/>
<path d="M143.134 58.8831C143.134 58.8831 148.338 98.1164 140.332 102.52C132.325 106.924 187.972 107.324 187.972 107.324C187.972 107.324 175.562 73.2953 181.166 62.8864L143.134 58.8831Z" fill="#A0616A"/>
<path d="M228.606 107.523L223.978 128.596L214.193 173.181L213.9 175.623L210.523 203.89L208.276 222.669L206.77 235.283C197.612 239.99 190.974 243.239 190.974 243.239C190.974 243.239 190.403 240.377 189.483 236.714C183.055 238.641 171.163 241.838 161.084 242.477C164.754 246.567 166.441 250.41 164.153 253.246C157.249 261.796 128.745 243.885 118.775 237.206C118.543 238.805 118.455 240.422 118.512 242.037L110.883 236.17L111.638 222.669L112.911 199.826L114.512 171.179C114.007 169.953 113.584 168.694 113.246 167.412C110.909 159.102 108.073 142.51 105.898 128.596C104.148 117.398 102.833 107.936 102.555 105.922C102.517 105.659 102.499 105.524 102.499 105.524L144.732 86.8621C147.734 93.8228 161.749 95.9151 161.749 95.9151C173.36 95.115 182.462 88.992 182.462 88.992L228.606 107.523Z" fill="#D0CDE1"/>
<path d="M194.178 235.234C194.178 235.234 192.39 235.846 189.483 236.714C183.055 238.641 171.163 241.838 161.084 242.476C152.407 243.032 145.074 241.695 143.733 236.034C143.158 233.6 143.973 231.598 145.75 229.953C151.054 225.035 164.908 223.274 175.896 222.669C178.998 222.5 181.868 222.421 184.258 222.391C188.314 222.338 190.974 222.421 190.974 222.421L191.038 222.669L194.178 235.234Z" fill="#A0616A"/>
<path d="M140.771 18.942L135.607 16.8743C135.607 16.8743 146.406 4.98486 161.431 6.01877L157.205 1.36633C157.205 1.36633 167.535 -2.76909 176.926 8.08644C181.862 13.7929 187.574 20.5007 191.134 28.0568H196.666L194.357 33.14L202.437 38.2231L194.144 37.3101C194.638 40.0937 194.714 42.9354 194.369 45.7414C194.013 48.5483 192.581 51.1071 190.374 52.8779C190.374 52.8779 183.969 39.6193 183.969 37.5515V42.7209C183.969 42.7209 178.804 38.0685 178.804 34.9669L175.987 38.5854L174.578 32.8992L157.205 38.5854L160.022 33.9331L149.223 35.4839L153.449 29.7976C153.449 29.7976 141.241 36.5177 140.771 42.204C140.302 47.8902 136.729 53.2782 136.729 53.2782C136.729 53.2782 127.155 26.696 140.771 18.942Z" fill="#2F2E41"/>
<path d="M258.631 204.405C255.818 207.455 248.846 212.049 240.394 217.023C237.25 218.871 233.903 220.776 230.488 222.669C222.34 227.188 213.809 231.665 206.77 235.283C197.612 239.99 190.974 243.239 190.974 243.239C190.974 243.239 190.403 240.377 189.483 236.714C188.251 231.812 186.395 225.475 184.46 222.669C184.393 222.571 184.325 222.481 184.258 222.391C183.694 221.651 183.127 221.219 182.567 221.219L210.523 203.89L222.603 196.4L213.9 175.623L202.983 149.561L209.572 128.596L216.195 107.522H228.606C228.606 107.522 232.716 116.493 237.971 129.002C238.756 130.873 239.567 132.822 240.394 134.836C251.205 161.131 264.683 197.85 258.631 204.405Z" fill="#D0CDE1"/>
<path d="M164.153 253.246C157.249 261.796 128.745 243.885 118.775 237.206C116.604 235.753 115.312 234.832 115.312 234.832L124.432 222.669L127.321 218.818C127.321 218.818 129.906 220.19 133.726 222.421C133.865 222.504 134.004 222.586 134.147 222.669C137.441 224.603 141.577 227.132 145.75 229.953C151.509 233.848 157.331 238.292 161.084 242.477C164.754 246.567 166.441 250.41 164.153 253.246Z" fill="#A0616A"/>
<path d="M133.726 222.421C132.706 222.417 131.688 222.5 130.683 222.669C122.047 224.153 119.5 231.97 118.775 237.206C118.543 238.806 118.455 240.422 118.512 242.037L110.883 236.17L108.103 234.032C101.413 231.699 95.4514 227.556 90.2825 222.669C85.7984 218.354 81.7761 213.584 78.2806 208.436C74.7991 203.361 71.6954 198.038 68.9947 192.508C68.2411 190.965 67.8361 189.276 67.8082 187.559C67.7802 185.842 68.1302 184.139 68.8332 182.573L78.2806 161.518L92.0893 130.745C92.1908 130.012 92.3022 129.296 92.4236 128.596C95.1621 112.894 102.498 105.922 102.498 105.922H108.103L111.852 128.596L116.51 156.766L113.246 167.412L105.703 191.998L112.911 199.826L133.726 222.421Z" fill="#D0CDE1"/>
<path d="M140.069 156.788L144.86 162.378C146.64 162.039 148.499 161.64 150.414 161.192L149.038 156.788L152.403 160.714C172.687 155.725 197.828 146.026 197.828 146.026C197.828 146.026 170.685 148.016 150.419 143.588C141.452 141.629 132.226 146.074 128.546 154.483C126.408 159.37 126.743 163.605 134.329 163.605C136.892 163.561 139.448 163.32 141.974 162.885L140.069 156.788Z" fill="#00BAFC"/>
<path d="M249.297 248.663V250.944C249.298 251.569 249.182 252.19 248.955 252.773C248.854 253.033 248.732 253.284 248.59 253.524C248.143 254.276 247.507 254.898 246.747 255.33C245.986 255.762 245.126 255.989 244.252 255.989H76.5076C75.6329 255.989 74.7731 255.762 74.0125 255.33C73.2519 254.898 72.6166 254.276 72.1689 253.524C72.0273 253.284 71.9054 253.033 71.8046 252.773C71.5774 252.19 71.4614 251.569 71.4627 250.944V248.663C71.4625 248.001 71.5929 247.345 71.8464 246.733C72.0999 246.12 72.4715 245.564 72.94 245.096C73.4084 244.627 73.9647 244.256 74.5768 244.002C75.189 243.749 75.8451 243.618 76.5076 243.619H86.1767V242.555C86.1767 242.528 86.1821 242.5 86.1926 242.475C86.2032 242.449 86.2187 242.426 86.2382 242.407C86.2578 242.387 86.281 242.372 86.3065 242.361C86.3321 242.35 86.3594 242.345 86.3871 242.345H91.432C91.4596 242.345 91.487 242.35 91.5125 242.361C91.5381 242.372 91.5613 242.387 91.5808 242.407C91.6004 242.426 91.6159 242.449 91.6264 242.475C91.637 242.5 91.6424 242.528 91.6423 242.555V243.619H94.794V242.555C94.7939 242.528 94.7994 242.5 94.8099 242.475C94.8205 242.449 94.836 242.426 94.8555 242.407C94.875 242.387 94.8983 242.372 94.9238 242.361C94.9493 242.35 94.9767 242.345 95.0044 242.345H100.049C100.077 242.345 100.104 242.35 100.13 242.361C100.155 242.372 100.179 242.387 100.198 242.407C100.218 242.426 100.233 242.449 100.244 242.475C100.254 242.5 100.26 242.528 100.26 242.555V243.619H103.415V242.555C103.415 242.528 103.42 242.5 103.431 242.475C103.442 242.449 103.457 242.426 103.477 242.407C103.496 242.387 103.519 242.372 103.545 242.361C103.57 242.35 103.598 242.345 103.625 242.345H108.67C108.698 242.345 108.725 242.35 108.751 242.361C108.776 242.372 108.8 242.387 108.819 242.407C108.839 242.426 108.854 242.449 108.865 242.475C108.875 242.5 108.881 242.528 108.881 242.555V243.619H112.032V242.555C112.032 242.528 112.038 242.5 112.048 242.475C112.059 242.449 112.074 242.426 112.094 242.407C112.113 242.387 112.137 242.372 112.162 242.361C112.188 242.35 112.215 242.345 112.243 242.345H117.288C117.315 242.345 117.343 242.35 117.368 242.361C117.394 242.372 117.417 242.387 117.436 242.407C117.456 242.426 117.471 242.449 117.482 242.475C117.493 242.5 117.498 242.528 117.498 242.555V243.619H120.65V242.555C120.65 242.528 120.655 242.5 120.666 242.475C120.676 242.449 120.692 242.426 120.711 242.407C120.731 242.387 120.754 242.372 120.779 242.361C120.805 242.35 120.832 242.345 120.86 242.345H125.905C125.933 242.345 125.96 242.35 125.985 242.361C126.011 242.372 126.034 242.387 126.054 242.407C126.073 242.426 126.089 242.449 126.099 242.475C126.11 242.5 126.115 242.528 126.115 242.555V243.619H129.271V242.555C129.271 242.528 129.276 242.5 129.287 242.475C129.297 242.449 129.313 242.426 129.332 242.407C129.352 242.387 129.375 242.372 129.4 242.361C129.426 242.35 129.453 242.345 129.481 242.345H134.526C134.554 242.345 134.581 242.35 134.606 242.361C134.632 242.372 134.655 242.387 134.675 242.407C134.694 242.426 134.71 242.449 134.72 242.475C134.731 242.5 134.736 242.528 134.736 242.555V243.619H137.888V242.555C137.888 242.528 137.893 242.5 137.904 242.475C137.914 242.449 137.93 242.426 137.949 242.407C137.969 242.387 137.992 242.372 138.018 242.361C138.043 242.35 138.071 242.345 138.098 242.345H177.616C177.644 242.345 177.671 242.35 177.697 242.361C177.722 242.372 177.745 242.387 177.765 242.407C177.785 242.426 177.8 242.449 177.811 242.475C177.821 242.5 177.827 242.528 177.826 242.555V243.619H180.982V242.555C180.982 242.528 180.987 242.5 180.998 242.475C181.008 242.449 181.024 242.426 181.043 242.407C181.063 242.387 181.086 242.372 181.112 242.361C181.137 242.35 181.165 242.345 181.192 242.345H186.237C186.293 242.346 186.346 242.368 186.385 242.407C186.425 242.447 186.447 242.5 186.448 242.555V243.619H189.599V242.555C189.599 242.528 189.605 242.5 189.615 242.475C189.626 242.449 189.641 242.426 189.661 242.407C189.68 242.387 189.703 242.372 189.729 242.361C189.755 242.35 189.782 242.345 189.81 242.345H194.854C194.882 242.345 194.91 242.35 194.935 242.361C194.961 242.372 194.984 242.387 195.003 242.407C195.023 242.426 195.038 242.449 195.049 242.475C195.059 242.5 195.065 242.528 195.065 242.555V243.619H198.217V242.555C198.216 242.528 198.222 242.5 198.232 242.475C198.243 242.449 198.258 242.426 198.278 242.407C198.298 242.387 198.321 242.372 198.346 242.361C198.372 242.35 198.399 242.345 198.427 242.345H203.472C203.499 242.345 203.527 242.35 203.552 242.361C203.578 242.372 203.601 242.387 203.621 242.407C203.64 242.426 203.656 242.449 203.666 242.475C203.677 242.5 203.682 242.528 203.682 242.555V243.619H206.838V242.555C206.838 242.528 206.843 242.5 206.853 242.475C206.864 242.449 206.88 242.426 206.899 242.407C206.919 242.387 206.942 242.372 206.967 242.361C206.993 242.35 207.02 242.345 207.048 242.345H212.093C212.148 242.346 212.201 242.368 212.239 242.408C212.278 242.447 212.3 242.5 212.299 242.555V243.619H215.455V242.555C215.455 242.528 215.46 242.5 215.471 242.475C215.481 242.449 215.497 242.426 215.516 242.407C215.536 242.387 215.559 242.372 215.585 242.361C215.61 242.35 215.638 242.345 215.665 242.345H220.71C220.738 242.345 220.765 242.35 220.791 242.361C220.816 242.372 220.839 242.387 220.859 242.407C220.879 242.426 220.894 242.449 220.905 242.475C220.915 242.5 220.921 242.528 220.92 242.555V243.619H224.072V242.555C224.072 242.528 224.078 242.5 224.088 242.475C224.099 242.449 224.114 242.426 224.134 242.407C224.153 242.387 224.176 242.372 224.202 242.361C224.227 242.35 224.255 242.345 224.282 242.345H229.327C229.355 242.345 229.382 242.35 229.408 242.361C229.434 242.372 229.457 242.387 229.476 242.407C229.496 242.426 229.511 242.449 229.522 242.475C229.532 242.5 229.538 242.528 229.538 242.555V243.619H244.252C244.914 243.618 245.57 243.749 246.183 244.002C246.795 244.256 247.351 244.627 247.819 245.096C248.288 245.564 248.66 246.12 248.913 246.733C249.166 247.345 249.297 248.001 249.297 248.663Z" fill="#3F3D56"/>
<path d="M298.074 252.773H22.7266V253.524H298.074V252.773Z" fill="#3F3D56"/>
<path d="M235.79 152.638H173.267V151.349H144.916V152.638H82.135C81.0134 152.638 79.9376 153.083 79.1445 153.876C78.3514 154.67 77.9058 155.745 77.9058 156.867V242.481C77.9058 243.602 78.3514 244.678 79.1445 245.471C79.9376 246.264 81.0134 246.71 82.135 246.71H235.79C236.912 246.71 237.987 246.264 238.781 245.471C239.574 244.678 240.019 243.602 240.019 242.481V156.867C240.019 156.311 239.91 155.762 239.697 155.248C239.485 154.735 239.173 154.269 238.781 153.876C238.388 153.484 237.922 153.172 237.409 152.96C236.895 152.747 236.345 152.638 235.79 152.638Z" fill="#3F3D56"/>
<path d="M159.086 191.919C164.272 191.919 168.477 187.714 168.477 182.527C168.477 177.341 164.272 173.136 159.086 173.136C153.899 173.136 149.694 177.341 149.694 182.527C149.694 187.714 153.899 191.919 159.086 191.919Z" stroke="#D0CDE1" stroke-width="2" stroke-miterlimit="10"/>
<path d="M156.08 195.299C161.267 195.299 165.472 191.095 165.472 185.908C165.472 180.722 161.267 176.517 156.08 176.517C150.894 176.517 146.689 180.722 146.689 185.908C146.689 191.095 150.894 195.299 156.08 195.299Z" fill="#D0CDE1"/>
<path d="M40.7372 248.978H30.2191V259.496H40.7372V248.978Z" fill="#D0CDE1"/>
<path d="M34.3527 240.714V253.486H47.1246V240.714H34.3527ZM46.5687 252.93H34.9049V241.27H46.5687V252.93Z" fill="#3F3D56"/>
<path d="M284.155 248.978H273.637V259.496H284.155V248.978Z" fill="#D0CDE1"/>
<path d="M277.77 240.714V253.486H290.542V240.714H277.77ZM289.986 252.93H278.323V241.27H289.986V252.93Z" fill="#3F3D56"/>
<path d="M35.5285 87.0339C51.9887 87.0339 65.3323 73.6903 65.3323 57.2301C65.3323 40.7699 51.9887 27.4263 35.5285 27.4263C19.0683 27.4263 5.7247 40.7699 5.7247 57.2301C5.7247 73.6903 19.0683 87.0339 35.5285 87.0339Z" fill="#00BAFC"/>
<path d="M45.9147 21.8132C43.2161 21.47 40.4849 21.47 37.7864 21.8132C31.7744 22.6026 26.115 25.1 21.4798 29.0093C16.8446 32.9185 13.4282 38.0754 11.6358 43.868C10.8207 46.5079 10.359 49.2441 10.263 52.0053C10.2495 52.3892 10.2404 52.7775 10.2404 53.1659C10.2488 61.5468 13.5819 69.5821 19.5081 75.5083C25.4343 81.4346 33.4696 84.7676 41.8506 84.776C42.5234 84.776 43.1962 84.7534 43.8601 84.7127C45.4183 84.615 46.967 84.4006 48.4932 84.0715C55.7814 82.5042 62.2813 78.4118 66.8449 72.5171C71.4084 66.6223 73.742 59.3045 73.4336 51.856C73.1251 44.4076 70.1943 37.3078 65.159 31.8106C60.1236 26.3134 53.3075 22.7724 45.9147 21.8132H45.9147ZM51.7445 82.2381H51.74C49.1942 83.1069 46.5444 83.6338 43.86 83.8051C43.1962 83.8503 42.5234 83.8728 41.8505 83.8728C33.7096 83.8629 25.9049 80.6245 20.1484 74.868C14.3919 69.1115 11.1535 61.3068 11.1436 53.1659C11.1436 52.7775 11.1526 52.3892 11.1661 52.0053C11.4766 44.0716 14.8439 36.5654 20.5633 31.0581C26.2827 25.5509 33.9107 22.4695 41.8505 22.4589C49.1254 22.4593 56.1639 25.0424 61.712 29.748C67.2601 34.4536 70.9574 40.976 72.1453 48.1533C73.3332 55.3305 71.9345 62.6964 68.1983 68.9386C64.4622 75.1808 58.6313 79.8939 51.7445 82.2381H51.7445Z" fill="#3F3D56"/>
<path d="M42.3021 24.2651H41.3989V30.5872H42.3021V24.2651Z" fill="#3F3D56"/>
<path d="M21.734 32.4107L21.0954 33.0493L25.5657 37.5197L26.2043 36.881L21.734 32.4107Z" fill="#3F3D56"/>
<path d="M12.9498 52.7143V53.6174H19.2718V52.7143H12.9498Z" fill="#3F3D56"/>
<path d="M21.0954 73.2824L21.734 73.921L26.2043 69.4507L25.5657 68.8121L21.0954 73.2824Z" fill="#3F3D56"/>
<path d="M57.4968 36.881L58.1354 37.5197L62.6057 33.0493L61.9671 32.4107L57.4968 36.881Z" fill="#3F3D56"/>
<path d="M64.4292 52.7143V53.6174H70.7512V52.7143H64.4292Z" fill="#3F3D56"/>
<path d="M58.1353 68.8121L57.4967 69.4507L61.967 73.921L62.6057 73.2824L58.1353 68.8121Z" fill="#3F3D56"/>
<path d="M42.3021 75.7445H41.3989V82.0665H42.3021V75.7445Z" fill="#3F3D56"/>
<path d="M43.2053 51.3595C42.8144 51.0664 42.3391 50.908 41.8505 50.908C41.362 50.908 40.8866 51.0664 40.4958 51.3595C40.2283 51.5628 40.008 51.8216 39.8501 52.1182C39.65 52.5001 39.5635 52.9313 39.6007 53.3608C39.6379 53.7903 39.7973 54.2002 40.06 54.542C40.3228 54.8838 40.6779 55.1433 41.0834 55.2897C41.4889 55.4362 41.9278 55.4635 42.3483 55.3684C42.7689 55.2733 43.1534 55.0598 43.4564 54.7532C43.7595 54.4465 43.9684 54.0595 44.0585 53.6379C44.1486 53.2163 44.1162 52.7777 43.965 52.374C43.8138 51.9702 43.5502 51.6182 43.2053 51.3595H43.2053ZM41.8505 54.5205C41.4916 54.5195 41.1476 54.3764 40.8938 54.1226C40.6399 53.8688 40.4969 53.5248 40.4958 53.1658C40.4976 52.8918 40.5809 52.6246 40.7352 52.3981C40.8675 52.2065 41.047 52.0523 41.2564 51.9503C41.4657 51.8484 41.6979 51.8022 41.9303 51.8162C42.1628 51.8302 42.3877 51.904 42.5833 52.0303C42.7789 52.1567 42.9386 52.3314 43.0469 52.5375C43.1552 52.7437 43.2086 52.9743 43.2017 53.2071C43.1948 53.4398 43.128 53.6669 43.0077 53.8663C42.8874 54.0657 42.7177 54.2307 42.515 54.3453C42.3123 54.4599 42.0834 54.5202 41.8505 54.5205V54.5205Z" fill="#3F3D56"/>
<path d="M45.9147 13.879H37.7864V22.0073H45.9147V13.879Z" fill="#3F3D56"/>
<path d="M41.8505 15.2337C47.836 15.2337 52.6882 13.5153 52.6882 11.3954C52.6882 9.2755 47.836 7.55701 41.8505 7.55701C35.865 7.55701 31.0128 9.2755 31.0128 11.3954C31.0128 13.5153 35.865 15.2337 41.8505 15.2337Z" fill="#3F3D56"/>
<path d="M43.2052 36.0061H40.4958V51.3596H43.2052V36.0061Z" fill="#3F3D56"/>
<path d="M84.8957 83.4001H0V84.3033H84.8957V83.4001Z" fill="#3F3D56"/>
<path d="M56.5697 225.887C56.9202 237.889 49.9076 242.288 41.1069 242.545C40.9025 242.551 40.699 242.554 40.4964 242.556C40.0883 242.559 39.6841 242.552 39.2839 242.535C31.3247 242.205 25.0244 237.98 24.6985 226.818C24.3611 215.267 38.6983 200.259 39.774 199.149L39.7759 199.148C39.8168 199.105 39.8377 199.084 39.8377 199.084C39.8377 199.084 56.2192 213.886 56.5697 225.887Z" fill="#D0CDE1"/>
<path d="M40.4734 240.726L46.0638 232.412L40.4848 241.62L40.4964 242.556C40.0883 242.559 39.6842 242.552 39.284 242.535L39.5612 230.51L39.5536 230.417L39.5639 230.399L39.5904 229.263L33.4682 220.374L39.5832 228.413L39.6049 228.653L39.8143 219.567L34.5264 210.352L39.8294 217.971L39.774 199.149L39.7741 199.086L39.7759 199.148L40.127 213.983L44.9463 207.957L40.1427 215.261L40.2479 223.387L44.6827 215.456L40.2642 224.582L40.3228 229.101L46.7721 218.053L40.3424 230.677L40.4734 240.726Z" fill="#3F3D56"/>
<path d="M299.987 225.887C300.338 237.889 293.325 242.288 284.525 242.545C284.32 242.551 284.117 242.554 283.914 242.556C283.506 242.559 283.102 242.552 282.702 242.535C274.742 242.205 268.442 237.98 268.116 226.818C267.779 215.267 282.116 200.259 283.192 199.149L283.194 199.148C283.234 199.105 283.255 199.084 283.255 199.084C283.255 199.084 299.637 213.886 299.987 225.887Z" fill="#D0CDE1"/>
<path d="M283.891 240.726L289.482 232.412L283.903 241.62L283.914 242.556C283.506 242.559 283.102 242.552 282.702 242.535L282.979 230.51L282.971 230.417L282.982 230.399L283.008 229.263L276.886 220.374L283.001 228.413L283.023 228.653L283.232 219.567L277.944 210.352L283.247 217.971L283.192 199.149L283.192 199.086L283.194 199.148L283.545 213.983L288.364 207.957L283.56 215.261L283.666 223.387L288.1 215.456L283.682 224.582L283.74 229.101L290.19 218.053L283.76 230.677L283.891 240.726Z" fill="#3F3D56"/>
</g>
<g clip-path="url(#clip2_14_915)">
<path d="M333.881 122.044V107.767H336.908V119.544H342.699V122.044H333.881ZM347.328 116.566C347.328 117.647 347.504 118.464 347.855 119.017C348.214 119.57 348.793 119.847 349.594 119.847C350.388 119.847 350.958 119.574 351.303 119.027C351.654 118.473 351.83 117.653 351.83 116.566C351.83 115.485 351.654 114.675 351.303 114.134C350.951 113.594 350.375 113.324 349.574 113.324C348.78 113.324 348.207 113.594 347.855 114.134C347.504 114.668 347.328 115.479 347.328 116.566ZM354.877 116.566C354.877 118.343 354.408 119.733 353.471 120.736C352.533 121.738 351.228 122.24 349.555 122.24C348.507 122.24 347.582 122.012 346.781 121.556C345.98 121.094 345.365 120.433 344.936 119.574C344.506 118.714 344.291 117.712 344.291 116.566C344.291 114.782 344.757 113.395 345.688 112.406C346.618 111.416 347.927 110.921 349.613 110.921C350.661 110.921 351.586 111.149 352.387 111.605C353.188 112.061 353.803 112.715 354.232 113.568C354.662 114.421 354.877 115.42 354.877 116.566ZM355.775 111.126H359.037L361.098 117.269C361.273 117.803 361.394 118.434 361.459 119.164H361.518C361.589 118.493 361.729 117.861 361.938 117.269L363.959 111.126H367.152L362.533 123.441C362.11 124.58 361.505 125.433 360.717 126C359.936 126.566 359.021 126.849 357.973 126.849C357.458 126.849 356.954 126.794 356.459 126.683V124.32C356.817 124.404 357.208 124.447 357.631 124.447C358.158 124.447 358.617 124.284 359.008 123.958C359.405 123.639 359.714 123.154 359.936 122.503L360.111 121.966L355.775 111.126ZM368.598 108.304C368.598 107.334 369.138 106.849 370.219 106.849C371.299 106.849 371.84 107.334 371.84 108.304C371.84 108.766 371.703 109.128 371.43 109.388C371.163 109.642 370.759 109.769 370.219 109.769C369.138 109.769 368.598 109.281 368.598 108.304ZM371.703 122.044H368.725V111.126H371.703V122.044ZM384.916 122.044H381.938V115.667C381.938 114.092 381.352 113.304 380.18 113.304C379.346 113.304 378.744 113.587 378.373 114.154C378.002 114.72 377.816 115.638 377.816 116.908V122.044H374.838V106.849H377.816V109.945C377.816 110.186 377.794 110.752 377.748 111.644L377.68 112.523H377.836C378.5 111.455 379.555 110.921 381 110.921C382.283 110.921 383.256 111.266 383.92 111.957C384.584 112.647 384.916 113.636 384.916 114.925V122.044ZM394.916 122.044L394.34 120.56H394.262C393.76 121.192 393.243 121.631 392.709 121.878C392.182 122.119 391.492 122.24 390.639 122.24C389.59 122.24 388.764 121.94 388.158 121.341C387.559 120.742 387.26 119.889 387.26 118.783C387.26 117.624 387.663 116.771 388.471 116.224C389.285 115.671 390.508 115.365 392.143 115.306L394.037 115.248V114.769C394.037 113.662 393.471 113.109 392.338 113.109C391.465 113.109 390.44 113.373 389.262 113.9L388.275 111.888C389.532 111.231 390.925 110.902 392.455 110.902C393.92 110.902 395.043 111.221 395.824 111.859C396.605 112.497 396.996 113.467 396.996 114.769V122.044H394.916ZM394.037 116.986L392.885 117.025C392.019 117.051 391.374 117.207 390.951 117.494C390.528 117.78 390.316 118.216 390.316 118.802C390.316 119.642 390.798 120.062 391.762 120.062C392.452 120.062 393.002 119.863 393.412 119.466C393.829 119.069 394.037 118.542 394.037 117.884V116.986ZM413.002 122.044L412.602 120.648H412.445C412.126 121.156 411.674 121.55 411.088 121.83C410.502 122.103 409.835 122.24 409.086 122.24C407.803 122.24 406.837 121.898 406.186 121.214C405.535 120.524 405.209 119.535 405.209 118.246V111.126H408.188V117.503C408.188 118.291 408.327 118.884 408.607 119.281C408.887 119.671 409.333 119.867 409.945 119.867C410.779 119.867 411.381 119.59 411.752 119.037C412.123 118.477 412.309 117.552 412.309 116.263V111.126H415.287V122.044H413.002ZM422.846 122.24C419.447 122.24 417.748 120.375 417.748 116.644C417.748 114.789 418.21 113.373 419.135 112.396C420.059 111.413 421.384 110.921 423.109 110.921C424.372 110.921 425.505 111.169 426.508 111.664L425.629 113.968C425.16 113.779 424.724 113.626 424.32 113.509C423.917 113.386 423.513 113.324 423.109 113.324C421.56 113.324 420.785 114.424 420.785 116.625C420.785 118.76 421.56 119.828 423.109 119.828C423.682 119.828 424.213 119.753 424.701 119.603C425.189 119.447 425.678 119.206 426.166 118.88V121.429C425.684 121.735 425.196 121.947 424.701 122.064C424.213 122.181 423.594 122.24 422.846 122.24ZM438.783 122.044H435.805V115.667C435.805 114.092 435.219 113.304 434.047 113.304C433.214 113.304 432.611 113.587 432.24 114.154C431.869 114.72 431.684 115.638 431.684 116.908V122.044H428.705V106.849H431.684V109.945C431.684 110.186 431.661 110.752 431.615 111.644L431.547 112.523H431.703C432.367 111.455 433.422 110.921 434.867 110.921C436.15 110.921 437.123 111.266 437.787 111.957C438.451 112.647 438.783 113.636 438.783 114.925V122.044ZM449.584 122.044L449.184 120.648H449.027C448.708 121.156 448.256 121.55 447.67 121.83C447.084 122.103 446.417 122.24 445.668 122.24C444.385 122.24 443.419 121.898 442.768 121.214C442.117 120.524 441.791 119.535 441.791 118.246V111.126H444.77V117.503C444.77 118.291 444.91 118.884 445.189 119.281C445.469 119.671 445.915 119.867 446.527 119.867C447.361 119.867 447.963 119.59 448.334 119.037C448.705 118.477 448.891 117.552 448.891 116.263V111.126H451.869V122.044H449.584ZM465.072 122.044H462.094V115.667C462.094 114.88 461.954 114.291 461.674 113.9C461.394 113.503 460.948 113.304 460.336 113.304C459.503 113.304 458.9 113.584 458.529 114.144C458.158 114.697 457.973 115.619 457.973 116.908V122.044H454.994V111.126H457.27L457.67 112.523H457.836C458.168 111.996 458.624 111.598 459.203 111.332C459.789 111.058 460.453 110.921 461.195 110.921C462.465 110.921 463.428 111.266 464.086 111.957C464.743 112.64 465.072 113.63 465.072 114.925V122.044ZM475.932 122.044L471.771 111.126H474.887L476.996 117.347C477.23 118.135 477.377 118.88 477.436 119.583H477.494C477.527 118.958 477.673 118.213 477.934 117.347L480.033 111.126H483.148L478.988 122.044H475.932ZM491.654 122.044L491.078 120.56H491C490.499 121.192 489.981 121.631 489.447 121.878C488.92 122.119 488.23 122.24 487.377 122.24C486.329 122.24 485.502 121.94 484.896 121.341C484.298 120.742 483.998 119.889 483.998 118.783C483.998 117.624 484.402 116.771 485.209 116.224C486.023 115.671 487.247 115.365 488.881 115.306L490.775 115.248V114.769C490.775 113.662 490.209 113.109 489.076 113.109C488.204 113.109 487.178 113.373 486 113.9L485.014 111.888C486.27 111.231 487.663 110.902 489.193 110.902C490.658 110.902 491.781 111.221 492.562 111.859C493.344 112.497 493.734 113.467 493.734 114.769V122.044H491.654ZM490.775 116.986L489.623 117.025C488.757 117.051 488.113 117.207 487.689 117.494C487.266 117.78 487.055 118.216 487.055 118.802C487.055 119.642 487.536 120.062 488.5 120.062C489.19 120.062 489.74 119.863 490.15 119.466C490.567 119.069 490.775 118.542 490.775 117.884V116.986ZM501.332 119.906C502.087 119.906 502.641 119.691 502.992 119.261C503.344 118.825 503.536 118.067 503.568 116.986V116.625C503.568 115.453 503.386 114.613 503.021 114.105C502.663 113.597 502.084 113.343 501.283 113.343C499.883 113.343 499.184 114.444 499.184 116.644C499.184 117.738 499.356 118.555 499.701 119.095C500.053 119.636 500.596 119.906 501.332 119.906ZM500.268 122.24C498.979 122.24 497.969 121.745 497.24 120.755C496.511 119.759 496.146 118.376 496.146 116.605C496.146 114.821 496.518 113.428 497.26 112.425C498.008 111.423 499.031 110.921 500.326 110.921C501.016 110.921 501.618 111.052 502.133 111.312C502.647 111.572 503.1 111.976 503.49 112.523H503.568L503.832 111.126H506.352V126.849H503.363V122.269C503.363 121.872 503.406 121.325 503.49 120.628H503.363C503.044 121.156 502.621 121.556 502.094 121.83C501.566 122.103 500.958 122.24 500.268 122.24ZM514.066 119.867C514.587 119.867 515.212 119.753 515.941 119.525V121.742C515.199 122.074 514.288 122.24 513.207 122.24C512.016 122.24 511.146 121.94 510.6 121.341C510.059 120.736 509.789 119.831 509.789 118.626V113.363H508.363V112.103L510.004 111.107L510.863 108.802H512.768V111.126H515.824V113.363H512.768V118.626C512.768 119.05 512.885 119.362 513.119 119.564C513.36 119.766 513.676 119.867 514.066 119.867ZM529.428 110.921C530.717 110.921 531.726 111.426 532.455 112.435C533.184 113.438 533.549 114.815 533.549 116.566C533.549 118.369 533.171 119.766 532.416 120.755C531.667 121.745 530.645 122.24 529.35 122.24C528.067 122.24 527.061 121.774 526.332 120.843H526.127L525.629 122.044H523.354V106.849H526.332V110.384C526.332 110.833 526.293 111.553 526.215 112.542H526.332C527.029 111.462 528.061 110.921 529.428 110.921ZM528.471 113.304C527.735 113.304 527.198 113.532 526.859 113.988C526.521 114.437 526.345 115.182 526.332 116.224V116.546C526.332 117.718 526.505 118.558 526.85 119.066C527.201 119.574 527.755 119.828 528.51 119.828C529.122 119.828 529.607 119.548 529.965 118.988C530.329 118.421 530.512 117.601 530.512 116.527C530.512 115.453 530.329 114.649 529.965 114.115C529.6 113.574 529.102 113.304 528.471 113.304ZM540.531 113.041C539.9 113.041 539.405 113.242 539.047 113.646C538.689 114.043 538.484 114.61 538.432 115.345H542.611C542.598 114.61 542.406 114.043 542.035 113.646C541.664 113.242 541.163 113.041 540.531 113.041ZM540.951 122.24C539.193 122.24 537.82 121.755 536.83 120.785C535.84 119.815 535.346 118.441 535.346 116.664C535.346 114.834 535.801 113.421 536.713 112.425C537.631 111.423 538.897 110.921 540.512 110.921C542.055 110.921 543.256 111.361 544.115 112.24C544.975 113.119 545.404 114.333 545.404 115.882V117.328H538.363C538.396 118.174 538.646 118.835 539.115 119.31C539.584 119.785 540.242 120.023 541.088 120.023C541.745 120.023 542.367 119.955 542.953 119.818C543.539 119.681 544.151 119.463 544.789 119.164V121.468C544.268 121.729 543.712 121.921 543.119 122.044C542.527 122.175 541.804 122.24 540.951 122.24ZM550.805 122.044H547.826V106.849H550.805V122.044ZM563.441 111.126V112.64L561.732 113.08C562.045 113.568 562.201 114.115 562.201 114.72C562.201 115.892 561.791 116.807 560.971 117.464C560.157 118.115 559.024 118.441 557.572 118.441L557.035 118.412L556.596 118.363C556.29 118.597 556.137 118.858 556.137 119.144C556.137 119.574 556.684 119.789 557.777 119.789H559.633C560.831 119.789 561.742 120.046 562.367 120.56C562.999 121.074 563.314 121.83 563.314 122.826C563.314 124.102 562.781 125.091 561.713 125.794C560.652 126.498 559.125 126.849 557.133 126.849C555.609 126.849 554.444 126.582 553.637 126.048C552.836 125.521 552.436 124.779 552.436 123.822C552.436 123.164 552.641 122.614 553.051 122.171C553.461 121.729 554.063 121.413 554.857 121.224C554.551 121.094 554.285 120.882 554.057 120.589C553.829 120.29 553.715 119.974 553.715 119.642C553.715 119.225 553.835 118.88 554.076 118.607C554.317 118.327 554.665 118.054 555.121 117.787C554.548 117.539 554.092 117.142 553.754 116.595C553.422 116.048 553.256 115.404 553.256 114.662C553.256 113.47 553.643 112.549 554.418 111.898C555.193 111.247 556.299 110.921 557.738 110.921C558.044 110.921 558.406 110.951 558.822 111.009C559.245 111.061 559.516 111.1 559.633 111.126H563.441ZM555.014 123.587C555.014 123.998 555.209 124.32 555.6 124.554C555.997 124.789 556.55 124.906 557.26 124.906C558.327 124.906 559.164 124.759 559.77 124.466C560.375 124.173 560.678 123.773 560.678 123.265C560.678 122.855 560.499 122.572 560.141 122.416C559.783 122.259 559.229 122.181 558.48 122.181H556.938C556.391 122.181 555.932 122.308 555.561 122.562C555.196 122.822 555.014 123.164 555.014 123.587ZM556.098 114.701C556.098 115.293 556.231 115.762 556.498 116.107C556.771 116.452 557.185 116.625 557.738 116.625C558.298 116.625 558.708 116.452 558.969 116.107C559.229 115.762 559.359 115.293 559.359 114.701C559.359 113.386 558.819 112.728 557.738 112.728C556.645 112.728 556.098 113.386 556.098 114.701ZM565.121 108.304C565.121 107.334 565.661 106.849 566.742 106.849C567.823 106.849 568.363 107.334 568.363 108.304C568.363 108.766 568.227 109.128 567.953 109.388C567.686 109.642 567.283 109.769 566.742 109.769C565.661 109.769 565.121 109.281 565.121 108.304ZM568.227 122.044H565.248V111.126H568.227V122.044ZM574.34 122.044H571.361V106.849H574.34V122.044ZM584.408 122.044L583.832 120.56H583.754C583.253 121.192 582.735 121.631 582.201 121.878C581.674 122.119 580.984 122.24 580.131 122.24C579.083 122.24 578.256 121.94 577.65 121.341C577.051 120.742 576.752 119.889 576.752 118.783C576.752 117.624 577.156 116.771 577.963 116.224C578.777 115.671 580.001 115.365 581.635 115.306L583.529 115.248V114.769C583.529 113.662 582.963 113.109 581.83 113.109C580.958 113.109 579.932 113.373 578.754 113.9L577.768 111.888C579.024 111.231 580.417 110.902 581.947 110.902C583.412 110.902 584.535 111.221 585.316 111.859C586.098 112.497 586.488 113.467 586.488 114.769V122.044H584.408ZM583.529 116.986L582.377 117.025C581.511 117.051 580.867 117.207 580.443 117.494C580.02 117.78 579.809 118.216 579.809 118.802C579.809 119.642 580.29 120.062 581.254 120.062C581.944 120.062 582.494 119.863 582.904 119.466C583.321 119.069 583.529 118.542 583.529 117.884V116.986ZM588.002 111.126H591.264L593.324 117.269C593.5 117.803 593.62 118.434 593.686 119.164H593.744C593.816 118.493 593.956 117.861 594.164 117.269L596.186 111.126H599.379L594.76 123.441C594.337 124.58 593.731 125.433 592.943 126C592.162 126.566 591.247 126.849 590.199 126.849C589.685 126.849 589.18 126.794 588.686 126.683V124.32C589.044 124.404 589.434 124.447 589.857 124.447C590.385 124.447 590.844 124.284 591.234 123.958C591.632 123.639 591.941 123.154 592.162 122.503L592.338 121.966L588.002 111.126ZM610.727 122.044H607.748V115.667C607.748 114.88 607.615 114.291 607.348 113.9C607.087 113.503 606.674 113.304 606.107 113.304C605.346 113.304 604.792 113.584 604.447 114.144C604.102 114.704 603.93 115.625 603.93 116.908V122.044H600.951V111.126H603.227L603.627 112.523H603.793C604.086 112.022 604.509 111.631 605.062 111.351C605.616 111.065 606.251 110.921 606.967 110.921C608.601 110.921 609.708 111.455 610.287 112.523H610.551C610.844 112.015 611.273 111.621 611.84 111.341C612.413 111.061 613.057 110.921 613.773 110.921C615.01 110.921 615.945 111.24 616.576 111.878C617.214 112.51 617.533 113.526 617.533 114.925V122.044H614.545V115.667C614.545 114.88 614.411 114.291 614.145 113.9C613.884 113.503 613.471 113.304 612.904 113.304C612.175 113.304 611.628 113.565 611.264 114.085C610.906 114.606 610.727 115.433 610.727 116.566V122.044ZM620.473 108.304C620.473 107.334 621.013 106.849 622.094 106.849C623.174 106.849 623.715 107.334 623.715 108.304C623.715 108.766 623.578 109.128 623.305 109.388C623.038 109.642 622.634 109.769 622.094 109.769C621.013 109.769 620.473 109.281 620.473 108.304ZM623.578 122.044H620.6V111.126H623.578V122.044ZM634.311 122.044H625.688V120.287L630.746 113.402H625.99V111.126H634.135V113.06L629.213 119.769H634.311V122.044Z" fill="black"/>
<path d="M232.992 153.044H231.477L225.234 143.458H225.172C225.255 144.583 225.297 145.615 225.297 146.552V153.044H224.07V141.623H225.57L231.797 151.169H231.859C231.849 151.029 231.826 150.578 231.789 149.818C231.753 149.052 231.74 148.505 231.75 148.177V141.623H232.992V153.044ZM237.156 144.482V150.037C237.156 150.735 237.315 151.255 237.633 151.599C237.951 151.943 238.448 152.115 239.125 152.115C240.021 152.115 240.674 151.87 241.086 151.38C241.503 150.891 241.711 150.091 241.711 148.982V144.482H243.008V153.044H241.938L241.75 151.896H241.68C241.414 152.318 241.044 152.641 240.57 152.865C240.102 153.089 239.565 153.201 238.961 153.201C237.919 153.201 237.138 152.953 236.617 152.458C236.102 151.964 235.844 151.172 235.844 150.083V144.482H237.156ZM247.062 153.044H245.766V140.888H247.062V153.044ZM251.109 153.044H249.812V140.888H251.109V153.044ZM259.125 153.044L258.867 151.826H258.805C258.378 152.362 257.951 152.727 257.523 152.919C257.102 153.107 256.573 153.201 255.938 153.201C255.089 153.201 254.422 152.982 253.938 152.544C253.458 152.107 253.219 151.485 253.219 150.677C253.219 148.948 254.602 148.042 257.367 147.958L258.82 147.912V147.38C258.82 146.708 258.674 146.214 258.383 145.896C258.096 145.573 257.635 145.412 257 145.412C256.286 145.412 255.479 145.63 254.578 146.068L254.18 145.076C254.602 144.847 255.062 144.667 255.562 144.537C256.068 144.406 256.573 144.341 257.078 144.341C258.099 144.341 258.854 144.568 259.344 145.021C259.839 145.474 260.086 146.201 260.086 147.201V153.044H259.125ZM256.195 152.13C257.003 152.13 257.635 151.909 258.094 151.466C258.557 151.024 258.789 150.404 258.789 149.607V148.833L257.492 148.888C256.461 148.925 255.716 149.086 255.258 149.373C254.805 149.654 254.578 150.094 254.578 150.693C254.578 151.162 254.719 151.518 255 151.763C255.286 152.008 255.685 152.13 256.195 152.13ZM273.68 153.044V147.474C273.68 146.792 273.534 146.281 273.242 145.943C272.951 145.599 272.497 145.427 271.883 145.427C271.076 145.427 270.479 145.659 270.094 146.123C269.708 146.586 269.516 147.3 269.516 148.263V153.044H268.219V147.474C268.219 146.792 268.073 146.281 267.781 145.943C267.49 145.599 267.034 145.427 266.414 145.427C265.602 145.427 265.005 145.672 264.625 146.162C264.25 146.646 264.062 147.443 264.062 148.552V153.044H262.766V144.482H263.82L264.031 145.654H264.094C264.339 145.237 264.682 144.912 265.125 144.677C265.573 144.443 266.073 144.326 266.625 144.326C267.964 144.326 268.839 144.81 269.25 145.779H269.312C269.568 145.331 269.938 144.977 270.422 144.716C270.906 144.456 271.458 144.326 272.078 144.326C273.047 144.326 273.771 144.576 274.25 145.076C274.734 145.57 274.977 146.365 274.977 147.458V153.044H273.68ZM283.109 153.044H281.812V140.888H283.109V153.044ZM291.125 153.044L290.867 151.826H290.805C290.378 152.362 289.951 152.727 289.523 152.919C289.102 153.107 288.573 153.201 287.938 153.201C287.089 153.201 286.422 152.982 285.938 152.544C285.458 152.107 285.219 151.485 285.219 150.677C285.219 148.948 286.602 148.042 289.367 147.958L290.82 147.912V147.38C290.82 146.708 290.674 146.214 290.383 145.896C290.096 145.573 289.635 145.412 289 145.412C288.286 145.412 287.479 145.63 286.578 146.068L286.18 145.076C286.602 144.847 287.062 144.667 287.562 144.537C288.068 144.406 288.573 144.341 289.078 144.341C290.099 144.341 290.854 144.568 291.344 145.021C291.839 145.474 292.086 146.201 292.086 147.201V153.044H291.125ZM288.195 152.13C289.003 152.13 289.635 151.909 290.094 151.466C290.557 151.024 290.789 150.404 290.789 149.607V148.833L289.492 148.888C288.461 148.925 287.716 149.086 287.258 149.373C286.805 149.654 286.578 150.094 286.578 150.693C286.578 151.162 286.719 151.518 287 151.763C287.286 152.008 287.685 152.13 288.195 152.13ZM302.156 148.755C302.156 150.151 301.805 151.242 301.102 152.029C300.398 152.81 299.427 153.201 298.188 153.201C297.422 153.201 296.742 153.021 296.148 152.662C295.555 152.302 295.096 151.787 294.773 151.115C294.451 150.443 294.289 149.656 294.289 148.755C294.289 147.36 294.638 146.274 295.336 145.498C296.034 144.716 297.003 144.326 298.242 144.326C299.44 144.326 300.391 144.724 301.094 145.521C301.802 146.318 302.156 147.396 302.156 148.755ZM295.633 148.755C295.633 149.849 295.852 150.682 296.289 151.255C296.727 151.828 297.37 152.115 298.219 152.115C299.068 152.115 299.711 151.831 300.148 151.263C300.591 150.69 300.812 149.854 300.812 148.755C300.812 147.667 300.591 146.841 300.148 146.279C299.711 145.711 299.062 145.427 298.203 145.427C297.354 145.427 296.714 145.706 296.281 146.263C295.849 146.82 295.633 147.651 295.633 148.755ZM308.344 144.326C308.724 144.326 309.065 144.357 309.367 144.419L309.188 145.623C308.833 145.544 308.521 145.505 308.25 145.505C307.557 145.505 306.964 145.787 306.469 146.349C305.979 146.912 305.734 147.612 305.734 148.451V153.044H304.438V144.482H305.508L305.656 146.068H305.719C306.036 145.511 306.419 145.081 306.867 144.779C307.315 144.477 307.807 144.326 308.344 144.326ZM314.586 153.201C313.32 153.201 312.32 152.815 311.586 152.044C310.857 151.274 310.492 150.203 310.492 148.833C310.492 147.453 310.831 146.357 311.508 145.544C312.19 144.732 313.104 144.326 314.25 144.326C315.323 144.326 316.172 144.68 316.797 145.388C317.422 146.091 317.734 147.021 317.734 148.177V148.998H311.836C311.862 150.003 312.115 150.766 312.594 151.287C313.078 151.807 313.758 152.068 314.633 152.068C315.555 152.068 316.466 151.875 317.367 151.49V152.646C316.909 152.844 316.474 152.985 316.062 153.068C315.656 153.156 315.164 153.201 314.586 153.201ZM314.234 145.412C313.547 145.412 312.997 145.636 312.586 146.083C312.18 146.531 311.94 147.151 311.867 147.943H316.344C316.344 147.125 316.161 146.5 315.797 146.068C315.432 145.63 314.911 145.412 314.234 145.412ZM323.57 153.201C322.305 153.201 321.305 152.815 320.57 152.044C319.841 151.274 319.477 150.203 319.477 148.833C319.477 147.453 319.815 146.357 320.492 145.544C321.174 144.732 322.089 144.326 323.234 144.326C324.307 144.326 325.156 144.68 325.781 145.388C326.406 146.091 326.719 147.021 326.719 148.177V148.998H320.82C320.846 150.003 321.099 150.766 321.578 151.287C322.062 151.807 322.742 152.068 323.617 152.068C324.539 152.068 325.451 151.875 326.352 151.49V152.646C325.893 152.844 325.458 152.985 325.047 153.068C324.641 153.156 324.148 153.201 323.57 153.201ZM323.219 145.412C322.531 145.412 321.982 145.636 321.57 146.083C321.164 146.531 320.924 147.151 320.852 147.943H325.328C325.328 147.125 325.146 146.5 324.781 146.068C324.417 145.63 323.896 145.412 323.219 145.412ZM331.703 152.13C331.932 152.13 332.154 152.115 332.367 152.083C332.581 152.047 332.75 152.011 332.875 151.974V152.966C332.734 153.034 332.526 153.089 332.25 153.13C331.979 153.177 331.734 153.201 331.516 153.201C329.859 153.201 329.031 152.328 329.031 150.583V145.49H327.805V144.865L329.031 144.326L329.578 142.498H330.328V144.482H332.812V145.49H330.328V150.529C330.328 151.044 330.451 151.44 330.695 151.716C330.94 151.992 331.276 152.13 331.703 152.13ZM344.609 153.044V147.505C344.609 146.807 344.451 146.287 344.133 145.943C343.815 145.599 343.318 145.427 342.641 145.427C341.745 145.427 341.089 145.669 340.672 146.154C340.255 146.638 340.047 147.438 340.047 148.552V153.044H338.75V144.482H339.805L340.016 145.654H340.078C340.344 145.232 340.716 144.906 341.195 144.677C341.674 144.443 342.208 144.326 342.797 144.326C343.828 144.326 344.604 144.576 345.125 145.076C345.646 145.57 345.906 146.365 345.906 147.458V153.044H344.609ZM352.195 153.201C350.93 153.201 349.93 152.815 349.195 152.044C348.466 151.274 348.102 150.203 348.102 148.833C348.102 147.453 348.44 146.357 349.117 145.544C349.799 144.732 350.714 144.326 351.859 144.326C352.932 144.326 353.781 144.68 354.406 145.388C355.031 146.091 355.344 147.021 355.344 148.177V148.998H349.445C349.471 150.003 349.724 150.766 350.203 151.287C350.688 151.807 351.367 152.068 352.242 152.068C353.164 152.068 354.076 151.875 354.977 151.49V152.646C354.518 152.844 354.083 152.985 353.672 153.068C353.266 153.156 352.773 153.201 352.195 153.201ZM351.844 145.412C351.156 145.412 350.607 145.636 350.195 146.083C349.789 146.531 349.549 147.151 349.477 147.943H353.953C353.953 147.125 353.771 146.5 353.406 146.068C353.042 145.63 352.521 145.412 351.844 145.412ZM360.984 153.201C359.745 153.201 358.784 152.82 358.102 152.06C357.424 151.294 357.086 150.214 357.086 148.818C357.086 147.386 357.43 146.279 358.117 145.498C358.81 144.716 359.794 144.326 361.07 144.326C361.482 144.326 361.893 144.37 362.305 144.458C362.716 144.547 363.039 144.651 363.273 144.771L362.875 145.873C362.589 145.758 362.276 145.664 361.938 145.591C361.599 145.513 361.299 145.474 361.039 145.474C359.299 145.474 358.43 146.583 358.43 148.802C358.43 149.854 358.641 150.662 359.062 151.224C359.49 151.787 360.12 152.068 360.953 152.068C361.667 152.068 362.398 151.914 363.148 151.607V152.755C362.576 153.052 361.854 153.201 360.984 153.201ZM372.109 152.13C372.339 152.13 372.56 152.115 372.773 152.083C372.987 152.047 373.156 152.011 373.281 151.974V152.966C373.141 153.034 372.932 153.089 372.656 153.13C372.385 153.177 372.141 153.201 371.922 153.201C370.266 153.201 369.438 152.328 369.438 150.583V145.49H368.211V144.865L369.438 144.326L369.984 142.498H370.734V144.482H373.219V145.49H370.734V150.529C370.734 151.044 370.857 151.44 371.102 151.716C371.346 151.992 371.682 152.13 372.109 152.13ZM376.219 144.482V150.037C376.219 150.735 376.378 151.255 376.695 151.599C377.013 151.943 377.51 152.115 378.188 152.115C379.083 152.115 379.737 151.87 380.148 151.38C380.565 150.891 380.773 150.091 380.773 148.982V144.482H382.07V153.044H381L380.812 151.896H380.742C380.477 152.318 380.107 152.641 379.633 152.865C379.164 153.089 378.628 153.201 378.023 153.201C376.982 153.201 376.201 152.953 375.68 152.458C375.164 151.964 374.906 151.172 374.906 150.083V144.482H376.219ZM388.734 144.326C389.115 144.326 389.456 144.357 389.758 144.419L389.578 145.623C389.224 145.544 388.911 145.505 388.641 145.505C387.948 145.505 387.354 145.787 386.859 146.349C386.37 146.912 386.125 147.612 386.125 148.451V153.044H384.828V144.482H385.898L386.047 146.068H386.109C386.427 145.511 386.81 145.081 387.258 144.779C387.706 144.477 388.198 144.326 388.734 144.326ZM395.344 153.201C394.786 153.201 394.276 153.099 393.812 152.896C393.354 152.688 392.969 152.37 392.656 151.943H392.562C392.625 152.443 392.656 152.917 392.656 153.365V156.888H391.359V144.482H392.414L392.594 145.654H392.656C392.99 145.185 393.378 144.847 393.82 144.638C394.263 144.43 394.771 144.326 395.344 144.326C396.479 144.326 397.354 144.714 397.969 145.49C398.589 146.266 398.898 147.354 398.898 148.755C398.898 150.162 398.583 151.255 397.953 152.037C397.328 152.813 396.458 153.201 395.344 153.201ZM395.156 145.427C394.281 145.427 393.648 145.669 393.258 146.154C392.867 146.638 392.667 147.409 392.656 148.466V148.755C392.656 149.958 392.857 150.82 393.258 151.341C393.659 151.857 394.302 152.115 395.188 152.115C395.927 152.115 396.505 151.815 396.922 151.216C397.344 150.617 397.555 149.792 397.555 148.74C397.555 147.672 397.344 146.854 396.922 146.287C396.505 145.714 395.917 145.427 395.156 145.427ZM402.469 153.044H401.172V144.482H402.469V153.044ZM401.062 142.162C401.062 141.865 401.135 141.649 401.281 141.513C401.427 141.373 401.609 141.302 401.828 141.302C402.036 141.302 402.216 141.373 402.367 141.513C402.518 141.654 402.594 141.87 402.594 142.162C402.594 142.453 402.518 142.672 402.367 142.818C402.216 142.958 402.036 143.029 401.828 143.029C401.609 143.029 401.427 142.958 401.281 142.818C401.135 142.672 401.062 142.453 401.062 142.162ZM410.742 150.708C410.742 151.505 410.445 152.12 409.852 152.552C409.258 152.985 408.424 153.201 407.352 153.201C406.216 153.201 405.331 153.021 404.695 152.662V151.458C405.107 151.667 405.547 151.831 406.016 151.951C406.49 152.07 406.945 152.13 407.383 152.13C408.06 152.13 408.581 152.024 408.945 151.81C409.31 151.591 409.492 151.261 409.492 150.818C409.492 150.485 409.346 150.201 409.055 149.966C408.768 149.727 408.206 149.445 407.367 149.123C406.57 148.826 406.003 148.568 405.664 148.349C405.331 148.125 405.081 147.873 404.914 147.591C404.753 147.31 404.672 146.974 404.672 146.583C404.672 145.886 404.956 145.336 405.523 144.935C406.091 144.529 406.87 144.326 407.859 144.326C408.781 144.326 409.682 144.513 410.562 144.888L410.102 145.943C409.242 145.589 408.464 145.412 407.766 145.412C407.151 145.412 406.688 145.508 406.375 145.701C406.062 145.893 405.906 146.159 405.906 146.498C405.906 146.727 405.964 146.922 406.078 147.083C406.198 147.245 406.388 147.399 406.648 147.544C406.909 147.69 407.409 147.901 408.148 148.177C409.164 148.547 409.849 148.919 410.203 149.294C410.562 149.669 410.742 150.141 410.742 150.708ZM420.633 153.201C419.367 153.201 418.367 152.815 417.633 152.044C416.904 151.274 416.539 150.203 416.539 148.833C416.539 147.453 416.878 146.357 417.555 145.544C418.237 144.732 419.151 144.326 420.297 144.326C421.37 144.326 422.219 144.68 422.844 145.388C423.469 146.091 423.781 147.021 423.781 148.177V148.998H417.883C417.909 150.003 418.161 150.766 418.641 151.287C419.125 151.807 419.805 152.068 420.68 152.068C421.602 152.068 422.513 151.875 423.414 151.49V152.646C422.956 152.844 422.521 152.985 422.109 153.068C421.703 153.156 421.211 153.201 420.633 153.201ZM420.281 145.412C419.594 145.412 419.044 145.636 418.633 146.083C418.227 146.531 417.987 147.151 417.914 147.943H422.391C422.391 147.125 422.208 146.5 421.844 146.068C421.479 145.63 420.958 145.412 420.281 145.412ZM428.766 152.13C428.995 152.13 429.216 152.115 429.43 152.083C429.643 152.047 429.812 152.011 429.938 151.974V152.966C429.797 153.034 429.589 153.089 429.312 153.13C429.042 153.177 428.797 153.201 428.578 153.201C426.922 153.201 426.094 152.328 426.094 150.583V145.49H424.867V144.865L426.094 144.326L426.641 142.498H427.391V144.482H429.875V145.49H427.391V150.529C427.391 151.044 427.513 151.44 427.758 151.716C428.003 151.992 428.339 152.13 428.766 152.13ZM437.031 144.482V150.037C437.031 150.735 437.19 151.255 437.508 151.599C437.826 151.943 438.323 152.115 439 152.115C439.896 152.115 440.549 151.87 440.961 151.38C441.378 150.891 441.586 150.091 441.586 148.982V144.482H442.883V153.044H441.812L441.625 151.896H441.555C441.289 152.318 440.919 152.641 440.445 152.865C439.977 153.089 439.44 153.201 438.836 153.201C437.794 153.201 437.013 152.953 436.492 152.458C435.977 151.964 435.719 151.172 435.719 150.083V144.482H437.031ZM446.938 153.044H445.641V140.888H446.938V153.044ZM452.453 152.13C452.682 152.13 452.904 152.115 453.117 152.083C453.331 152.047 453.5 152.011 453.625 151.974V152.966C453.484 153.034 453.276 153.089 453 153.13C452.729 153.177 452.484 153.201 452.266 153.201C450.609 153.201 449.781 152.328 449.781 150.583V145.49H448.555V144.865L449.781 144.326L450.328 142.498H451.078V144.482H453.562V145.49H451.078V150.529C451.078 151.044 451.201 151.44 451.445 151.716C451.69 151.992 452.026 152.13 452.453 152.13ZM459.25 144.326C459.63 144.326 459.971 144.357 460.273 144.419L460.094 145.623C459.74 145.544 459.427 145.505 459.156 145.505C458.464 145.505 457.87 145.787 457.375 146.349C456.885 146.912 456.641 147.612 456.641 148.451V153.044H455.344V144.482H456.414L456.562 146.068H456.625C456.943 145.511 457.326 145.081 457.773 144.779C458.221 144.477 458.714 144.326 459.25 144.326ZM463.172 153.044H461.875V144.482H463.172V153.044ZM461.766 142.162C461.766 141.865 461.839 141.649 461.984 141.513C462.13 141.373 462.312 141.302 462.531 141.302C462.74 141.302 462.919 141.373 463.07 141.513C463.221 141.654 463.297 141.87 463.297 142.162C463.297 142.453 463.221 142.672 463.07 142.818C462.919 142.958 462.74 143.029 462.531 143.029C462.312 143.029 462.13 142.958 461.984 142.818C461.839 142.672 461.766 142.453 461.766 142.162ZM469.344 153.201C468.104 153.201 467.143 152.82 466.461 152.06C465.784 151.294 465.445 150.214 465.445 148.818C465.445 147.386 465.789 146.279 466.477 145.498C467.169 144.716 468.154 144.326 469.43 144.326C469.841 144.326 470.253 144.37 470.664 144.458C471.076 144.547 471.398 144.651 471.633 144.771L471.234 145.873C470.948 145.758 470.635 145.664 470.297 145.591C469.958 145.513 469.659 145.474 469.398 145.474C467.659 145.474 466.789 146.583 466.789 148.802C466.789 149.854 467 150.662 467.422 151.224C467.849 151.787 468.479 152.068 469.312 152.068C470.026 152.068 470.758 151.914 471.508 151.607V152.755C470.935 153.052 470.214 153.201 469.344 153.201ZM477.164 153.201C475.898 153.201 474.898 152.815 474.164 152.044C473.435 151.274 473.07 150.203 473.07 148.833C473.07 147.453 473.409 146.357 474.086 145.544C474.768 144.732 475.682 144.326 476.828 144.326C477.901 144.326 478.75 144.68 479.375 145.388C480 146.091 480.312 147.021 480.312 148.177V148.998H474.414C474.44 150.003 474.693 150.766 475.172 151.287C475.656 151.807 476.336 152.068 477.211 152.068C478.133 152.068 479.044 151.875 479.945 151.49V152.646C479.487 152.844 479.052 152.985 478.641 153.068C478.234 153.156 477.742 153.201 477.164 153.201ZM476.812 145.412C476.125 145.412 475.576 145.636 475.164 146.083C474.758 146.531 474.518 147.151 474.445 147.943H478.922C478.922 147.125 478.74 146.5 478.375 146.068C478.01 145.63 477.49 145.412 476.812 145.412ZM488.055 150.708C488.055 151.505 487.758 152.12 487.164 152.552C486.57 152.985 485.737 153.201 484.664 153.201C483.529 153.201 482.643 153.021 482.008 152.662V151.458C482.419 151.667 482.859 151.831 483.328 151.951C483.802 152.07 484.258 152.13 484.695 152.13C485.372 152.13 485.893 152.024 486.258 151.81C486.622 151.591 486.805 151.261 486.805 150.818C486.805 150.485 486.659 150.201 486.367 149.966C486.081 149.727 485.518 149.445 484.68 149.123C483.883 148.826 483.315 148.568 482.977 148.349C482.643 148.125 482.393 147.873 482.227 147.591C482.065 147.31 481.984 146.974 481.984 146.583C481.984 145.886 482.268 145.336 482.836 144.935C483.404 144.529 484.182 144.326 485.172 144.326C486.094 144.326 486.995 144.513 487.875 144.888L487.414 145.943C486.555 145.589 485.776 145.412 485.078 145.412C484.464 145.412 484 145.508 483.688 145.701C483.375 145.893 483.219 146.159 483.219 146.498C483.219 146.727 483.276 146.922 483.391 147.083C483.51 147.245 483.701 147.399 483.961 147.544C484.221 147.69 484.721 147.901 485.461 148.177C486.477 148.547 487.161 148.919 487.516 149.294C487.875 149.669 488.055 150.141 488.055 150.708ZM489.984 152.216C489.984 151.867 490.062 151.604 490.219 151.427C490.38 151.245 490.609 151.154 490.906 151.154C491.208 151.154 491.443 151.245 491.609 151.427C491.781 151.604 491.867 151.867 491.867 152.216C491.867 152.555 491.781 152.815 491.609 152.998C491.438 153.18 491.203 153.271 490.906 153.271C490.641 153.271 490.419 153.19 490.242 153.029C490.07 152.862 489.984 152.591 489.984 152.216ZM507.906 147.224C507.906 149.11 507.393 150.552 506.367 151.552C505.346 152.547 503.875 153.044 501.953 153.044H498.789V141.623H502.289C504.065 141.623 505.445 142.115 506.43 143.099C507.414 144.083 507.906 145.458 507.906 147.224ZM506.5 147.271C506.5 145.781 506.125 144.659 505.375 143.904C504.63 143.149 503.521 142.771 502.047 142.771H500.117V151.896H501.734C503.318 151.896 504.508 151.508 505.305 150.732C506.102 149.951 506.5 148.797 506.5 147.271ZM511.484 144.482V150.037C511.484 150.735 511.643 151.255 511.961 151.599C512.279 151.943 512.776 152.115 513.453 152.115C514.349 152.115 515.003 151.87 515.414 151.38C515.831 150.891 516.039 150.091 516.039 148.982V144.482H517.336V153.044H516.266L516.078 151.896H516.008C515.742 152.318 515.372 152.641 514.898 152.865C514.43 153.089 513.893 153.201 513.289 153.201C512.247 153.201 511.466 152.953 510.945 152.458C510.43 151.964 510.172 151.172 510.172 150.083V144.482H511.484ZM521.391 153.044H520.094V144.482H521.391V153.044ZM519.984 142.162C519.984 141.865 520.057 141.649 520.203 141.513C520.349 141.373 520.531 141.302 520.75 141.302C520.958 141.302 521.138 141.373 521.289 141.513C521.44 141.654 521.516 141.87 521.516 142.162C521.516 142.453 521.44 142.672 521.289 142.818C521.138 142.958 520.958 143.029 520.75 143.029C520.531 143.029 520.349 142.958 520.203 142.818C520.057 142.672 519.984 142.453 519.984 142.162ZM529.664 150.708C529.664 151.505 529.367 152.12 528.773 152.552C528.18 152.985 527.346 153.201 526.273 153.201C525.138 153.201 524.253 153.021 523.617 152.662V151.458C524.029 151.667 524.469 151.831 524.938 151.951C525.411 152.07 525.867 152.13 526.305 152.13C526.982 152.13 527.503 152.024 527.867 151.81C528.232 151.591 528.414 151.261 528.414 150.818C528.414 150.485 528.268 150.201 527.977 149.966C527.69 149.727 527.128 149.445 526.289 149.123C525.492 148.826 524.924 148.568 524.586 148.349C524.253 148.125 524.003 147.873 523.836 147.591C523.674 147.31 523.594 146.974 523.594 146.583C523.594 145.886 523.878 145.336 524.445 144.935C525.013 144.529 525.792 144.326 526.781 144.326C527.703 144.326 528.604 144.513 529.484 144.888L529.023 145.943C528.164 145.589 527.385 145.412 526.688 145.412C526.073 145.412 525.609 145.508 525.297 145.701C524.984 145.893 524.828 146.159 524.828 146.498C524.828 146.727 524.885 146.922 525 147.083C525.12 147.245 525.31 147.399 525.57 147.544C525.831 147.69 526.331 147.901 527.07 148.177C528.086 148.547 528.771 148.919 529.125 149.294C529.484 149.669 529.664 150.141 529.664 150.708ZM541.461 150.708C541.461 151.505 541.164 152.12 540.57 152.552C539.977 152.985 539.143 153.201 538.07 153.201C536.935 153.201 536.049 153.021 535.414 152.662V151.458C535.826 151.667 536.266 151.831 536.734 151.951C537.208 152.07 537.664 152.13 538.102 152.13C538.779 152.13 539.299 152.024 539.664 151.81C540.029 151.591 540.211 151.261 540.211 150.818C540.211 150.485 540.065 150.201 539.773 149.966C539.487 149.727 538.924 149.445 538.086 149.123C537.289 148.826 536.721 148.568 536.383 148.349C536.049 148.125 535.799 147.873 535.633 147.591C535.471 147.31 535.391 146.974 535.391 146.583C535.391 145.886 535.674 145.336 536.242 144.935C536.81 144.529 537.589 144.326 538.578 144.326C539.5 144.326 540.401 144.513 541.281 144.888L540.82 145.943C539.961 145.589 539.182 145.412 538.484 145.412C537.87 145.412 537.406 145.508 537.094 145.701C536.781 145.893 536.625 146.159 536.625 146.498C536.625 146.727 536.682 146.922 536.797 147.083C536.917 147.245 537.107 147.399 537.367 147.544C537.628 147.69 538.128 147.901 538.867 148.177C539.883 148.547 540.568 148.919 540.922 149.294C541.281 149.669 541.461 150.141 541.461 150.708ZM544.875 153.044H543.578V144.482H544.875V153.044ZM543.469 142.162C543.469 141.865 543.542 141.649 543.688 141.513C543.833 141.373 544.016 141.302 544.234 141.302C544.443 141.302 544.622 141.373 544.773 141.513C544.924 141.654 545 141.87 545 142.162C545 142.453 544.924 142.672 544.773 142.818C544.622 142.958 544.443 143.029 544.234 143.029C544.016 143.029 543.833 142.958 543.688 142.818C543.542 142.672 543.469 142.453 543.469 142.162ZM550.391 152.13C550.62 152.13 550.841 152.115 551.055 152.083C551.268 152.047 551.438 152.011 551.562 151.974V152.966C551.422 153.034 551.214 153.089 550.938 153.13C550.667 153.177 550.422 153.201 550.203 153.201C548.547 153.201 547.719 152.328 547.719 150.583V145.49H546.492V144.865L547.719 144.326L548.266 142.498H549.016V144.482H551.5V145.49H549.016V150.529C549.016 151.044 549.138 151.44 549.383 151.716C549.628 151.992 549.964 152.13 550.391 152.13ZM562.703 153.044L562.445 151.826H562.383C561.956 152.362 561.529 152.727 561.102 152.919C560.68 153.107 560.151 153.201 559.516 153.201C558.667 153.201 558 152.982 557.516 152.544C557.036 152.107 556.797 151.485 556.797 150.677C556.797 148.948 558.18 148.042 560.945 147.958L562.398 147.912V147.38C562.398 146.708 562.253 146.214 561.961 145.896C561.674 145.573 561.214 145.412 560.578 145.412C559.865 145.412 559.057 145.63 558.156 146.068L557.758 145.076C558.18 144.847 558.641 144.667 559.141 144.537C559.646 144.406 560.151 144.341 560.656 144.341C561.677 144.341 562.432 144.568 562.922 145.021C563.417 145.474 563.664 146.201 563.664 147.201V153.044H562.703ZM559.773 152.13C560.581 152.13 561.214 151.909 561.672 151.466C562.135 151.024 562.367 150.404 562.367 149.607V148.833L561.07 148.888C560.039 148.925 559.294 149.086 558.836 149.373C558.383 149.654 558.156 150.094 558.156 150.693C558.156 151.162 558.297 151.518 558.578 151.763C558.865 152.008 559.263 152.13 559.773 152.13ZM577.258 153.044V147.474C577.258 146.792 577.112 146.281 576.82 145.943C576.529 145.599 576.076 145.427 575.461 145.427C574.654 145.427 574.057 145.659 573.672 146.123C573.286 146.586 573.094 147.3 573.094 148.263V153.044H571.797V147.474C571.797 146.792 571.651 146.281 571.359 145.943C571.068 145.599 570.612 145.427 569.992 145.427C569.18 145.427 568.583 145.672 568.203 146.162C567.828 146.646 567.641 147.443 567.641 148.552V153.044H566.344V144.482H567.398L567.609 145.654H567.672C567.917 145.237 568.26 144.912 568.703 144.677C569.151 144.443 569.651 144.326 570.203 144.326C571.542 144.326 572.417 144.81 572.828 145.779H572.891C573.146 145.331 573.516 144.977 574 144.716C574.484 144.456 575.036 144.326 575.656 144.326C576.625 144.326 577.349 144.576 577.828 145.076C578.312 145.57 578.555 146.365 578.555 147.458V153.044H577.258ZM584.852 153.201C583.586 153.201 582.586 152.815 581.852 152.044C581.122 151.274 580.758 150.203 580.758 148.833C580.758 147.453 581.096 146.357 581.773 145.544C582.456 144.732 583.37 144.326 584.516 144.326C585.589 144.326 586.438 144.68 587.062 145.388C587.688 146.091 588 147.021 588 148.177V148.998H582.102C582.128 150.003 582.38 150.766 582.859 151.287C583.344 151.807 584.023 152.068 584.898 152.068C585.82 152.068 586.732 151.875 587.633 151.49V152.646C587.174 152.844 586.74 152.985 586.328 153.068C585.922 153.156 585.43 153.201 584.852 153.201ZM584.5 145.412C583.812 145.412 583.263 145.636 582.852 146.083C582.445 146.531 582.206 147.151 582.133 147.943H586.609C586.609 147.125 586.427 146.5 586.062 146.068C585.698 145.63 585.177 145.412 584.5 145.412ZM592.984 152.13C593.214 152.13 593.435 152.115 593.648 152.083C593.862 152.047 594.031 152.011 594.156 151.974V152.966C594.016 153.034 593.807 153.089 593.531 153.13C593.26 153.177 593.016 153.201 592.797 153.201C591.141 153.201 590.312 152.328 590.312 150.583V145.49H589.086V144.865L590.312 144.326L590.859 142.498H591.609V144.482H594.094V145.49H591.609V150.529C591.609 151.044 591.732 151.44 591.977 151.716C592.221 151.992 592.557 152.13 592.984 152.13ZM603.266 152.115C604.13 152.115 604.76 151.883 605.156 151.419C605.552 150.956 605.763 150.175 605.789 149.076V148.787C605.789 147.589 605.586 146.727 605.18 146.201C604.773 145.675 604.13 145.412 603.25 145.412C602.49 145.412 601.906 145.708 601.5 146.302C601.099 146.891 600.898 147.724 600.898 148.802C600.898 149.88 601.096 150.703 601.492 151.271C601.893 151.833 602.484 152.115 603.266 152.115ZM603.07 153.201C601.966 153.201 601.104 152.813 600.484 152.037C599.865 151.261 599.555 150.177 599.555 148.787C599.555 147.386 599.867 146.292 600.492 145.505C601.117 144.719 601.987 144.326 603.102 144.326C604.273 144.326 605.174 144.768 605.805 145.654H605.875L606.062 144.482H607.086V156.888H605.789V153.224C605.789 152.703 605.818 152.261 605.875 151.896H605.773C605.174 152.766 604.273 153.201 603.07 153.201ZM611.062 144.482V150.037C611.062 150.735 611.221 151.255 611.539 151.599C611.857 151.943 612.354 152.115 613.031 152.115C613.927 152.115 614.581 151.87 614.992 151.38C615.409 150.891 615.617 150.091 615.617 148.982V144.482H616.914V153.044H615.844L615.656 151.896H615.586C615.32 152.318 614.951 152.641 614.477 152.865C614.008 153.089 613.471 153.201 612.867 153.201C611.826 153.201 611.044 152.953 610.523 152.458C610.008 151.964 609.75 151.172 609.75 150.083V144.482H611.062ZM624.938 153.044L624.68 151.826H624.617C624.19 152.362 623.763 152.727 623.336 152.919C622.914 153.107 622.385 153.201 621.75 153.201C620.901 153.201 620.234 152.982 619.75 152.544C619.271 152.107 619.031 151.485 619.031 150.677C619.031 148.948 620.414 148.042 623.18 147.958L624.633 147.912V147.38C624.633 146.708 624.487 146.214 624.195 145.896C623.909 145.573 623.448 145.412 622.812 145.412C622.099 145.412 621.292 145.63 620.391 146.068L619.992 145.076C620.414 144.847 620.875 144.667 621.375 144.537C621.88 144.406 622.385 144.341 622.891 144.341C623.911 144.341 624.667 144.568 625.156 145.021C625.651 145.474 625.898 146.201 625.898 147.201V153.044H624.938ZM622.008 152.13C622.815 152.13 623.448 151.909 623.906 151.466C624.37 151.024 624.602 150.404 624.602 149.607V148.833L623.305 148.888C622.273 148.925 621.529 149.086 621.07 149.373C620.617 149.654 620.391 150.094 620.391 150.693C620.391 151.162 620.531 151.518 620.812 151.763C621.099 152.008 621.497 152.13 622.008 152.13ZM639.492 153.044V147.474C639.492 146.792 639.346 146.281 639.055 145.943C638.763 145.599 638.31 145.427 637.695 145.427C636.888 145.427 636.292 145.659 635.906 146.123C635.521 146.586 635.328 147.3 635.328 148.263V153.044H634.031V147.474C634.031 146.792 633.885 146.281 633.594 145.943C633.302 145.599 632.846 145.427 632.227 145.427C631.414 145.427 630.818 145.672 630.438 146.162C630.062 146.646 629.875 147.443 629.875 148.552V153.044H628.578V144.482H629.633L629.844 145.654H629.906C630.151 145.237 630.495 144.912 630.938 144.677C631.385 144.443 631.885 144.326 632.438 144.326C633.776 144.326 634.651 144.81 635.062 145.779H635.125C635.38 145.331 635.75 144.977 636.234 144.716C636.719 144.456 637.271 144.326 637.891 144.326C638.859 144.326 639.583 144.576 640.062 145.076C640.547 145.57 640.789 146.365 640.789 147.458V153.044H639.492ZM652.891 153.044L652.633 151.826H652.57C652.143 152.362 651.716 152.727 651.289 152.919C650.867 153.107 650.339 153.201 649.703 153.201C648.854 153.201 648.188 152.982 647.703 152.544C647.224 152.107 646.984 151.485 646.984 150.677C646.984 148.948 648.367 148.042 651.133 147.958L652.586 147.912V147.38C652.586 146.708 652.44 146.214 652.148 145.896C651.862 145.573 651.401 145.412 650.766 145.412C650.052 145.412 649.245 145.63 648.344 146.068L647.945 145.076C648.367 144.847 648.828 144.667 649.328 144.537C649.833 144.406 650.339 144.341 650.844 144.341C651.865 144.341 652.62 144.568 653.109 145.021C653.604 145.474 653.852 146.201 653.852 147.201V153.044H652.891ZM649.961 152.13C650.768 152.13 651.401 151.909 651.859 151.466C652.323 151.024 652.555 150.404 652.555 149.607V148.833L651.258 148.888C650.227 148.925 649.482 149.086 649.023 149.373C648.57 149.654 648.344 150.094 648.344 150.693C648.344 151.162 648.484 151.518 648.766 151.763C649.052 152.008 649.451 152.13 649.961 152.13ZM660.438 144.326C660.818 144.326 661.159 144.357 661.461 144.419L661.281 145.623C660.927 145.544 660.615 145.505 660.344 145.505C659.651 145.505 659.057 145.787 658.562 146.349C658.073 146.912 657.828 147.612 657.828 148.451V153.044H656.531V144.482H657.602L657.75 146.068H657.812C658.13 145.511 658.513 145.081 658.961 144.779C659.409 144.477 659.901 144.326 660.438 144.326ZM666.484 153.201C665.245 153.201 664.284 152.82 663.602 152.06C662.924 151.294 662.586 150.214 662.586 148.818C662.586 147.386 662.93 146.279 663.617 145.498C664.31 144.716 665.294 144.326 666.57 144.326C666.982 144.326 667.393 144.37 667.805 144.458C668.216 144.547 668.539 144.651 668.773 144.771L668.375 145.873C668.089 145.758 667.776 145.664 667.438 145.591C667.099 145.513 666.799 145.474 666.539 145.474C664.799 145.474 663.93 146.583 663.93 148.802C663.93 149.854 664.141 150.662 664.562 151.224C664.99 151.787 665.62 152.068 666.453 152.068C667.167 152.068 667.898 151.914 668.648 151.607V152.755C668.076 153.052 667.354 153.201 666.484 153.201ZM671.906 144.482V150.037C671.906 150.735 672.065 151.255 672.383 151.599C672.701 151.943 673.198 152.115 673.875 152.115C674.771 152.115 675.424 151.87 675.836 151.38C676.253 150.891 676.461 150.091 676.461 148.982V144.482H677.758V153.044H676.688L676.5 151.896H676.43C676.164 152.318 675.794 152.641 675.32 152.865C674.852 153.089 674.315 153.201 673.711 153.201C672.669 153.201 671.888 152.953 671.367 152.458C670.852 151.964 670.594 151.172 670.594 150.083V144.482H671.906ZM680.328 152.216C680.328 151.867 680.406 151.604 680.562 151.427C680.724 151.245 680.953 151.154 681.25 151.154C681.552 151.154 681.786 151.245 681.953 151.427C682.125 151.604 682.211 151.867 682.211 152.216C682.211 152.555 682.125 152.815 681.953 152.998C681.781 153.18 681.547 153.271 681.25 153.271C680.984 153.271 680.763 153.19 680.586 153.029C680.414 152.862 680.328 152.591 680.328 152.216ZM698.055 153.044H696.539L690.297 143.458H690.234C690.318 144.583 690.359 145.615 690.359 146.552V153.044H689.133V141.623H690.633L696.859 151.169H696.922C696.911 151.029 696.888 150.578 696.852 149.818C696.815 149.052 696.802 148.505 696.812 148.177V141.623H698.055V153.044ZM706.266 153.044L706.008 151.826H705.945C705.518 152.362 705.091 152.727 704.664 152.919C704.242 153.107 703.714 153.201 703.078 153.201C702.229 153.201 701.562 152.982 701.078 152.544C700.599 152.107 700.359 151.485 700.359 150.677C700.359 148.948 701.742 148.042 704.508 147.958L705.961 147.912V147.38C705.961 146.708 705.815 146.214 705.523 145.896C705.237 145.573 704.776 145.412 704.141 145.412C703.427 145.412 702.62 145.63 701.719 146.068L701.32 145.076C701.742 144.847 702.203 144.667 702.703 144.537C703.208 144.406 703.714 144.341 704.219 144.341C705.24 144.341 705.995 144.568 706.484 145.021C706.979 145.474 707.227 146.201 707.227 147.201V153.044H706.266ZM703.336 152.13C704.143 152.13 704.776 151.909 705.234 151.466C705.698 151.024 705.93 150.404 705.93 149.607V148.833L704.633 148.888C703.602 148.925 702.857 149.086 702.398 149.373C701.945 149.654 701.719 150.094 701.719 150.693C701.719 151.162 701.859 151.518 702.141 151.763C702.427 152.008 702.826 152.13 703.336 152.13ZM720.82 153.044V147.474C720.82 146.792 720.674 146.281 720.383 145.943C720.091 145.599 719.638 145.427 719.023 145.427C718.216 145.427 717.62 145.659 717.234 146.123C716.849 146.586 716.656 147.3 716.656 148.263V153.044H715.359V147.474C715.359 146.792 715.214 146.281 714.922 145.943C714.63 145.599 714.174 145.427 713.555 145.427C712.742 145.427 712.146 145.672 711.766 146.162C711.391 146.646 711.203 147.443 711.203 148.552V153.044H709.906V144.482H710.961L711.172 145.654H711.234C711.479 145.237 711.823 144.912 712.266 144.677C712.714 144.443 713.214 144.326 713.766 144.326C715.104 144.326 715.979 144.81 716.391 145.779H716.453C716.708 145.331 717.078 144.977 717.562 144.716C718.047 144.456 718.599 144.326 719.219 144.326C720.188 144.326 720.911 144.576 721.391 145.076C721.875 145.57 722.117 146.365 722.117 147.458V153.044H720.82ZM732.812 145.49H730.633V153.044H729.336V145.49H727.805V144.904L729.336 144.435V143.958C729.336 141.854 730.255 140.802 732.094 140.802C732.547 140.802 733.078 140.893 733.688 141.076L733.352 142.115C732.852 141.953 732.424 141.873 732.07 141.873C731.581 141.873 731.219 142.037 730.984 142.365C730.75 142.688 730.633 143.208 730.633 143.927V144.482H732.812V145.49ZM739.641 153.044L739.383 151.826H739.32C738.893 152.362 738.466 152.727 738.039 152.919C737.617 153.107 737.089 153.201 736.453 153.201C735.604 153.201 734.938 152.982 734.453 152.544C733.974 152.107 733.734 151.485 733.734 150.677C733.734 148.948 735.117 148.042 737.883 147.958L739.336 147.912V147.38C739.336 146.708 739.19 146.214 738.898 145.896C738.612 145.573 738.151 145.412 737.516 145.412C736.802 145.412 735.995 145.63 735.094 146.068L734.695 145.076C735.117 144.847 735.578 144.667 736.078 144.537C736.583 144.406 737.089 144.341 737.594 144.341C738.615 144.341 739.37 144.568 739.859 145.021C740.354 145.474 740.602 146.201 740.602 147.201V153.044H739.641ZM736.711 152.13C737.518 152.13 738.151 151.909 738.609 151.466C739.073 151.024 739.305 150.404 739.305 149.607V148.833L738.008 148.888C736.977 148.925 736.232 149.086 735.773 149.373C735.32 149.654 735.094 150.094 735.094 150.693C735.094 151.162 735.234 151.518 735.516 151.763C735.802 152.008 736.201 152.13 736.711 152.13ZM746.703 153.201C745.464 153.201 744.503 152.82 743.82 152.06C743.143 151.294 742.805 150.214 742.805 148.818C742.805 147.386 743.148 146.279 743.836 145.498C744.529 144.716 745.513 144.326 746.789 144.326C747.201 144.326 747.612 144.37 748.023 144.458C748.435 144.547 748.758 144.651 748.992 144.771L748.594 145.873C748.307 145.758 747.995 145.664 747.656 145.591C747.318 145.513 747.018 145.474 746.758 145.474C745.018 145.474 744.148 146.583 744.148 148.802C744.148 149.854 744.359 150.662 744.781 151.224C745.208 151.787 745.839 152.068 746.672 152.068C747.385 152.068 748.117 151.914 748.867 151.607V152.755C748.294 153.052 747.573 153.201 746.703 153.201ZM752.203 153.044H750.906V144.482H752.203V153.044ZM750.797 142.162C750.797 141.865 750.87 141.649 751.016 141.513C751.161 141.373 751.344 141.302 751.562 141.302C751.771 141.302 751.951 141.373 752.102 141.513C752.253 141.654 752.328 141.87 752.328 142.162C752.328 142.453 752.253 142.672 752.102 142.818C751.951 142.958 751.771 143.029 751.562 143.029C751.344 143.029 751.161 142.958 751.016 142.818C750.87 142.672 750.797 142.453 750.797 142.162ZM756.25 153.044H754.953V140.888H756.25V153.044ZM760.297 153.044H759V144.482H760.297V153.044ZM758.891 142.162C758.891 141.865 758.964 141.649 759.109 141.513C759.255 141.373 759.438 141.302 759.656 141.302C759.865 141.302 760.044 141.373 760.195 141.513C760.346 141.654 760.422 141.87 760.422 142.162C760.422 142.453 760.346 142.672 760.195 142.818C760.044 142.958 759.865 143.029 759.656 143.029C759.438 143.029 759.255 142.958 759.109 142.818C758.964 142.672 758.891 142.453 758.891 142.162ZM768.57 150.708C768.57 151.505 768.273 152.12 767.68 152.552C767.086 152.985 766.253 153.201 765.18 153.201C764.044 153.201 763.159 153.021 762.523 152.662V151.458C762.935 151.667 763.375 151.831 763.844 151.951C764.318 152.07 764.773 152.13 765.211 152.13C765.888 152.13 766.409 152.024 766.773 151.81C767.138 151.591 767.32 151.261 767.32 150.818C767.32 150.485 767.174 150.201 766.883 149.966C766.596 149.727 766.034 149.445 765.195 149.123C764.398 148.826 763.831 148.568 763.492 148.349C763.159 148.125 762.909 147.873 762.742 147.591C762.581 147.31 762.5 146.974 762.5 146.583C762.5 145.886 762.784 145.336 763.352 144.935C763.919 144.529 764.698 144.326 765.688 144.326C766.609 144.326 767.51 144.513 768.391 144.888L767.93 145.943C767.07 145.589 766.292 145.412 765.594 145.412C764.979 145.412 764.516 145.508 764.203 145.701C763.891 145.893 763.734 146.159 763.734 146.498C763.734 146.727 763.792 146.922 763.906 147.083C764.026 147.245 764.216 147.399 764.477 147.544C764.737 147.69 765.237 147.901 765.977 148.177C766.992 148.547 767.677 148.919 768.031 149.294C768.391 149.669 768.57 150.141 768.57 150.708ZM771.984 153.044H770.688V144.482H771.984V153.044ZM770.578 142.162C770.578 141.865 770.651 141.649 770.797 141.513C770.943 141.373 771.125 141.302 771.344 141.302C771.552 141.302 771.732 141.373 771.883 141.513C772.034 141.654 772.109 141.87 772.109 142.162C772.109 142.453 772.034 142.672 771.883 142.818C771.732 142.958 771.552 143.029 771.344 143.029C771.125 143.029 770.943 142.958 770.797 142.818C770.651 142.672 770.578 142.453 770.578 142.162ZM780.258 150.708C780.258 151.505 779.961 152.12 779.367 152.552C778.773 152.985 777.94 153.201 776.867 153.201C775.732 153.201 774.846 153.021 774.211 152.662V151.458C774.622 151.667 775.062 151.831 775.531 151.951C776.005 152.07 776.461 152.13 776.898 152.13C777.576 152.13 778.096 152.024 778.461 151.81C778.826 151.591 779.008 151.261 779.008 150.818C779.008 150.485 778.862 150.201 778.57 149.966C778.284 149.727 777.721 149.445 776.883 149.123C776.086 148.826 775.518 148.568 775.18 148.349C774.846 148.125 774.596 147.873 774.43 147.591C774.268 147.31 774.188 146.974 774.188 146.583C774.188 145.886 774.471 145.336 775.039 144.935C775.607 144.529 776.385 144.326 777.375 144.326C778.297 144.326 779.198 144.513 780.078 144.888L779.617 145.943C778.758 145.589 777.979 145.412 777.281 145.412C776.667 145.412 776.203 145.508 775.891 145.701C775.578 145.893 775.422 146.159 775.422 146.498C775.422 146.727 775.479 146.922 775.594 147.083C775.714 147.245 775.904 147.399 776.164 147.544C776.424 147.69 776.924 147.901 777.664 148.177C778.68 148.547 779.365 148.919 779.719 149.294C780.078 149.669 780.258 150.141 780.258 150.708Z" fill="black"/>
</g>
</g>
<defs>
<clipPath id="clip0_14_915">
<rect width="832" height="258.903" fill="white" transform="translate(0 0.593018)"/>
</clipPath>
<clipPath id="clip1_14_915">
<rect width="300" height="258.903" fill="white" transform="translate(0 0.593018)"/>
</clipPath>
<clipPath id="clip2_14_915">
<rect width="500" height="58" fill="white" transform="translate(332 101.044)"/>
</clipPath>
</defs>
</svg>
