<svg width="832" height="225" viewBox="0 0 832 225" fill="none" xmlns="http://www.w3.org/2000/svg">
<g clip-path="url(#clip0_14_914)">
<g clip-path="url(#clip1_14_914)">
<path d="M2.04102 90.0192H6.48438C8.50911 90.0192 9.97721 90.3089 10.8887 90.8883C11.8066 91.4612 12.2656 92.3759 12.2656 93.6324C12.2656 94.4853 12.0638 95.1852 11.6602 95.7321C11.263 96.2789 10.7324 96.6077 10.0684 96.7184V96.816C10.9733 97.0179 11.6243 97.3955 12.0215 97.9489C12.4251 98.5022 12.627 99.2379 12.627 100.156C12.627 101.458 12.1549 102.474 11.2109 103.203C10.2734 103.932 8.9974 104.297 7.38281 104.297H2.04102V90.0192ZM5.06836 95.6735H6.82617C7.64648 95.6735 8.23893 95.5465 8.60352 95.2926C8.97461 95.0387 9.16016 94.6188 9.16016 94.0328C9.16016 93.486 8.95833 93.0953 8.55469 92.861C8.15755 92.6201 7.52604 92.4996 6.66016 92.4996H5.06836V95.6735ZM5.06836 98.0758V101.797H7.04102C7.87435 101.797 8.48958 101.637 8.88672 101.318C9.28385 100.999 9.48242 100.511 9.48242 99.8531C9.48242 98.6683 8.63607 98.0758 6.94336 98.0758H5.06836ZM15.1172 90.5563C15.1172 89.5862 15.6576 89.1012 16.7383 89.1012C17.819 89.1012 18.3594 89.5862 18.3594 90.5563C18.3594 91.0185 18.2227 91.3798 17.9492 91.6403C17.6823 91.8942 17.2786 92.0211 16.7383 92.0211C15.6576 92.0211 15.1172 91.5328 15.1172 90.5563ZM18.2227 104.297H15.2441V93.3785H18.2227V104.297ZM27.4512 93.1735C27.8548 93.1735 28.1901 93.2028 28.457 93.2614L28.2324 96.0543C27.9915 95.9892 27.6986 95.9567 27.3535 95.9567C26.403 95.9567 25.6608 96.2008 25.127 96.6891C24.5996 97.1774 24.3359 97.861 24.3359 98.7399V104.297H21.3574V93.3785H23.6133L24.0527 95.2145H24.1992C24.5378 94.6025 24.9935 94.111 25.5664 93.7399C26.1458 93.3623 26.7741 93.1735 27.4512 93.1735ZM45.7129 104.297H42.7344V97.9196C42.7344 97.1318 42.5944 96.5426 42.3145 96.152C42.0345 95.7548 41.5885 95.5563 40.9766 95.5563C40.1432 95.5563 39.541 95.8362 39.1699 96.3961C38.7988 96.9495 38.6133 97.8707 38.6133 99.1598V104.297H35.6348V93.3785H37.9102L38.3105 94.775H38.4766C38.8086 94.2477 39.2643 93.8505 39.8438 93.5836C40.4297 93.3102 41.0938 93.1735 41.8359 93.1735C43.1055 93.1735 44.069 93.5185 44.7266 94.2086C45.3841 94.8922 45.7129 95.8818 45.7129 97.1774V104.297ZM53.3008 95.2926C52.6693 95.2926 52.1745 95.4944 51.8164 95.8981C51.4583 96.2952 51.2533 96.8616 51.2012 97.5973H55.3809C55.3678 96.8616 55.1758 96.2952 54.8047 95.8981C54.4336 95.4944 53.9323 95.2926 53.3008 95.2926ZM53.7207 104.492C51.9629 104.492 50.5892 104.007 49.5996 103.037C48.61 102.067 48.1152 100.693 48.1152 98.9156C48.1152 97.0862 48.571 95.6735 49.4824 94.6774C50.4004 93.6748 51.6667 93.1735 53.2812 93.1735C54.8242 93.1735 56.0254 93.6129 56.8848 94.4918C57.7441 95.3707 58.1738 96.5849 58.1738 98.1344V99.5797H51.1328C51.1654 100.426 51.416 101.087 51.8848 101.562C52.3535 102.037 53.0111 102.275 53.8574 102.275C54.515 102.275 55.1367 102.207 55.7227 102.07C56.3086 101.933 56.9206 101.715 57.5586 101.416V103.72C57.0378 103.981 56.4811 104.173 55.8887 104.297C55.2962 104.427 54.5736 104.492 53.7207 104.492ZM65.0293 104.492C61.6309 104.492 59.9316 102.627 59.9316 98.8961C59.9316 97.0406 60.3939 95.6246 61.3184 94.6481C62.2428 93.665 63.5677 93.1735 65.293 93.1735C66.556 93.1735 67.6888 93.4209 68.6914 93.9156L67.8125 96.2203C67.3438 96.0315 66.9076 95.8785 66.5039 95.7614C66.1003 95.6377 65.6966 95.5758 65.293 95.5758C63.7435 95.5758 62.9688 96.6761 62.9688 98.8766C62.9688 101.012 63.7435 102.08 65.293 102.08C65.8659 102.08 66.3965 102.005 66.8848 101.855C67.373 101.699 67.8613 101.458 68.3496 101.132V103.681C67.8678 103.987 67.3796 104.199 66.8848 104.316C66.3965 104.433 65.778 104.492 65.0293 104.492ZM80.9668 104.297H77.9883V97.9196C77.9883 96.344 77.4023 95.5563 76.2305 95.5563C75.3971 95.5563 74.7949 95.8395 74.4238 96.4059C74.0527 96.9723 73.8672 97.8903 73.8672 99.1598V104.297H70.8887V89.1012H73.8672V92.1969C73.8672 92.4378 73.8444 93.0042 73.7988 93.8961L73.7305 94.775H73.8867C74.5508 93.7073 75.6055 93.1735 77.0508 93.1735C78.3333 93.1735 79.3066 93.5185 79.9707 94.2086C80.6348 94.8987 80.9668 95.8883 80.9668 97.1774V104.297ZM90.9668 104.297L90.3906 102.812H90.3125C89.8112 103.444 89.2936 103.883 88.7598 104.13C88.2324 104.371 87.5423 104.492 86.6895 104.492C85.6413 104.492 84.8145 104.192 84.209 103.593C83.61 102.994 83.3105 102.142 83.3105 101.035C83.3105 99.8759 83.7142 99.0231 84.5215 98.4762C85.3353 97.9228 86.5592 97.6168 88.1934 97.5582L90.0879 97.4996V97.0211C90.0879 95.9143 89.5215 95.361 88.3887 95.361C87.5163 95.361 86.4909 95.6246 85.3125 96.152L84.3262 94.1403C85.5827 93.4827 86.9759 93.1539 88.5059 93.1539C89.9707 93.1539 91.0938 93.4729 91.875 94.111C92.6562 94.749 93.0469 95.719 93.0469 97.0211V104.297H90.9668ZM90.0879 99.2379L88.9355 99.277C88.0697 99.303 87.4251 99.4593 87.002 99.7457C86.5788 100.032 86.3672 100.468 86.3672 101.054C86.3672 101.894 86.849 102.314 87.8125 102.314C88.5026 102.314 89.0527 102.116 89.4629 101.718C89.8796 101.321 90.0879 100.794 90.0879 100.136V99.2379ZM99.7559 93.3785H103.018L105.078 99.5211C105.254 100.055 105.374 100.686 105.439 101.416H105.498C105.57 100.745 105.71 100.114 105.918 99.5211L107.939 93.3785H111.133L106.514 105.693C106.09 106.832 105.485 107.685 104.697 108.252C103.916 108.818 103.001 109.101 101.953 109.101C101.439 109.101 100.934 109.046 100.439 108.935V106.572C100.798 106.657 101.188 106.699 101.611 106.699C102.139 106.699 102.598 106.536 102.988 106.211C103.385 105.892 103.695 105.407 103.916 104.755L104.092 104.218L99.7559 93.3785ZM117.227 95.2926C116.595 95.2926 116.1 95.4944 115.742 95.8981C115.384 96.2952 115.179 96.8616 115.127 97.5973H119.307C119.294 96.8616 119.102 96.2952 118.73 95.8981C118.359 95.4944 117.858 95.2926 117.227 95.2926ZM117.646 104.492C115.889 104.492 114.515 104.007 113.525 103.037C112.536 102.067 112.041 100.693 112.041 98.9156C112.041 97.0862 112.497 95.6735 113.408 94.6774C114.326 93.6748 115.592 93.1735 117.207 93.1735C118.75 93.1735 119.951 93.6129 120.811 94.4918C121.67 95.3707 122.1 96.5849 122.1 98.1344V99.5797H115.059C115.091 100.426 115.342 101.087 115.811 101.562C116.279 102.037 116.937 102.275 117.783 102.275C118.441 102.275 119.062 102.207 119.648 102.07C120.234 101.933 120.846 101.715 121.484 101.416V103.72C120.964 103.981 120.407 104.173 119.814 104.297C119.222 104.427 118.499 104.492 117.646 104.492ZM128.955 104.492C125.557 104.492 123.857 102.627 123.857 98.8961C123.857 97.0406 124.32 95.6246 125.244 94.6481C126.169 93.665 127.493 93.1735 129.219 93.1735C130.482 93.1735 131.615 93.4209 132.617 93.9156L131.738 96.2203C131.27 96.0315 130.833 95.8785 130.43 95.7614C130.026 95.6377 129.622 95.5758 129.219 95.5758C127.669 95.5758 126.895 96.6761 126.895 98.8766C126.895 101.012 127.669 102.08 129.219 102.08C129.792 102.08 130.322 102.005 130.811 101.855C131.299 101.699 131.787 101.458 132.275 101.132V103.681C131.794 103.987 131.305 104.199 130.811 104.316C130.322 104.433 129.704 104.492 128.955 104.492ZM144.893 104.297H141.914V97.9196C141.914 96.344 141.328 95.5563 140.156 95.5563C139.323 95.5563 138.721 95.8395 138.35 96.4059C137.979 96.9723 137.793 97.8903 137.793 99.1598V104.297H134.814V89.1012H137.793V92.1969C137.793 92.4378 137.77 93.0042 137.725 93.8961L137.656 94.775H137.812C138.477 93.7073 139.531 93.1735 140.977 93.1735C142.259 93.1735 143.232 93.5185 143.896 94.2086C144.561 94.8987 144.893 95.8883 144.893 97.1774V104.297ZM147.832 90.5563C147.832 89.5862 148.372 89.1012 149.453 89.1012C150.534 89.1012 151.074 89.5862 151.074 90.5563C151.074 91.0185 150.938 91.3798 150.664 91.6403C150.397 91.8942 149.993 92.0211 149.453 92.0211C148.372 92.0211 147.832 91.5328 147.832 90.5563ZM150.938 104.297H147.959V93.3785H150.938V104.297ZM163.848 104.297H160.869V97.9196C160.869 97.1318 160.736 96.5426 160.469 96.152C160.208 95.7548 159.795 95.5563 159.229 95.5563C158.467 95.5563 157.913 95.8362 157.568 96.3961C157.223 96.956 157.051 97.8772 157.051 99.1598V104.297H154.072V93.3785H156.348L156.748 94.775H156.914C157.207 94.2737 157.63 93.8831 158.184 93.6031C158.737 93.3167 159.372 93.1735 160.088 93.1735C161.722 93.1735 162.829 93.7073 163.408 94.775H163.672C163.965 94.2672 164.395 93.8733 164.961 93.5934C165.534 93.3134 166.178 93.1735 166.895 93.1735C168.132 93.1735 169.066 93.4925 169.697 94.1305C170.335 94.762 170.654 95.7776 170.654 97.1774V104.297H167.666V97.9196C167.666 97.1318 167.533 96.5426 167.266 96.152C167.005 95.7548 166.592 95.5563 166.025 95.5563C165.296 95.5563 164.749 95.8167 164.385 96.3375C164.027 96.8584 163.848 97.6852 163.848 98.818V104.297ZM176.699 104.297H173.721V89.1012H176.699V104.297ZM186.768 104.297L186.191 102.812H186.113C185.612 103.444 185.094 103.883 184.561 104.13C184.033 104.371 183.343 104.492 182.49 104.492C181.442 104.492 180.615 104.192 180.01 103.593C179.411 102.994 179.111 102.142 179.111 101.035C179.111 99.8759 179.515 99.0231 180.322 98.4762C181.136 97.9228 182.36 97.6168 183.994 97.5582L185.889 97.4996V97.0211C185.889 95.9143 185.322 95.361 184.189 95.361C183.317 95.361 182.292 95.6246 181.113 96.152L180.127 94.1403C181.383 93.4827 182.777 93.1539 184.307 93.1539C185.771 93.1539 186.895 93.4729 187.676 94.111C188.457 94.749 188.848 95.719 188.848 97.0211V104.297H186.768ZM185.889 99.2379L184.736 99.277C183.87 99.303 183.226 99.4593 182.803 99.7457C182.38 100.032 182.168 100.468 182.168 101.054C182.168 101.894 182.65 102.314 183.613 102.314C184.303 102.314 184.854 102.116 185.264 101.718C185.68 101.321 185.889 100.794 185.889 100.136V99.2379ZM198.018 93.1735C198.421 93.1735 198.757 93.2028 199.023 93.2614L198.799 96.0543C198.558 95.9892 198.265 95.9567 197.92 95.9567C196.969 95.9567 196.227 96.2008 195.693 96.6891C195.166 97.1774 194.902 97.861 194.902 98.7399V104.297H191.924V93.3785H194.18L194.619 95.2145H194.766C195.104 94.6025 195.56 94.111 196.133 93.7399C196.712 93.3623 197.34 93.1735 198.018 93.1735ZM211.084 104.297H208.105V97.9196C208.105 97.1318 207.965 96.5426 207.686 96.152C207.406 95.7548 206.96 95.5563 206.348 95.5563C205.514 95.5563 204.912 95.8362 204.541 96.3961C204.17 96.9495 203.984 97.8707 203.984 99.1598V104.297H201.006V93.3785H203.281L203.682 94.775H203.848C204.18 94.2477 204.635 93.8505 205.215 93.5836C205.801 93.3102 206.465 93.1735 207.207 93.1735C208.477 93.1735 209.44 93.5185 210.098 94.2086C210.755 94.8922 211.084 95.8818 211.084 97.1774V104.297ZM214.023 90.5563C214.023 89.5862 214.564 89.1012 215.645 89.1012C216.725 89.1012 217.266 89.5862 217.266 90.5563C217.266 91.0185 217.129 91.3798 216.855 91.6403C216.589 91.8942 216.185 92.0211 215.645 92.0211C214.564 92.0211 214.023 91.5328 214.023 90.5563ZM217.129 104.297H214.15V93.3785H217.129V104.297ZM230.059 102.119C230.579 102.119 231.204 102.005 231.934 101.777V103.994C231.191 104.326 230.28 104.492 229.199 104.492C228.008 104.492 227.139 104.192 226.592 103.593C226.051 102.988 225.781 102.083 225.781 100.879V95.6149H224.355V94.3551L225.996 93.359L226.855 91.0543H228.76V93.3785H231.816V95.6149H228.76V100.879C228.76 101.302 228.877 101.614 229.111 101.816C229.352 102.018 229.668 102.119 230.059 102.119ZM241.084 104.297L240.508 102.812H240.43C239.928 103.444 239.411 103.883 238.877 104.13C238.35 104.371 237.66 104.492 236.807 104.492C235.758 104.492 234.932 104.192 234.326 103.593C233.727 102.994 233.428 102.142 233.428 101.035C233.428 99.8759 233.831 99.0231 234.639 98.4762C235.452 97.9228 236.676 97.6168 238.311 97.5582L240.205 97.4996V97.0211C240.205 95.9143 239.639 95.361 238.506 95.361C237.633 95.361 236.608 95.6246 235.43 96.152L234.443 94.1403C235.7 93.4827 237.093 93.1539 238.623 93.1539C240.088 93.1539 241.211 93.4729 241.992 94.111C242.773 94.749 243.164 95.719 243.164 97.0211V104.297H241.084ZM240.205 99.2379L239.053 99.277C238.187 99.303 237.542 99.4593 237.119 99.7457C236.696 100.032 236.484 100.468 236.484 101.054C236.484 101.894 236.966 102.314 237.93 102.314C238.62 102.314 239.17 102.116 239.58 101.718C239.997 101.321 240.205 100.794 240.205 100.136V99.2379ZM249.102 98.359L250.4 96.6989L253.457 93.3785H256.816L252.48 98.1149L257.08 104.297H253.643L250.498 99.8727L249.219 100.898V104.297H246.24V89.1012H249.219V95.8785L249.062 98.359H249.102ZM261.621 104.297H258.643V89.1012H261.621V104.297ZM264.629 90.5563C264.629 89.5862 265.169 89.1012 266.25 89.1012C267.331 89.1012 267.871 89.5862 267.871 90.5563C267.871 91.0185 267.734 91.3798 267.461 91.6403C267.194 91.8942 266.79 92.0211 266.25 92.0211C265.169 92.0211 264.629 91.5328 264.629 90.5563ZM267.734 104.297H264.756V93.3785H267.734V104.297ZM276.904 95.6149H274.326V104.297H271.348V95.6149H269.707V94.1793L271.348 93.3785V92.5778C271.348 91.3343 271.654 90.4261 272.266 89.8531C272.878 89.2802 273.857 88.9938 275.205 88.9938C276.234 88.9938 277.148 89.1468 277.949 89.4528L277.188 91.6403C276.589 91.4515 276.035 91.3571 275.527 91.3571C275.104 91.3571 274.798 91.484 274.609 91.7379C274.421 91.9853 274.326 92.3043 274.326 92.6949V93.3785H276.904V95.6149ZM288.34 102.158C289.095 102.158 289.648 101.943 290 101.513C290.352 101.077 290.544 100.319 290.576 99.2379V98.8766C290.576 97.7047 290.394 96.8649 290.029 96.3571C289.671 95.8492 289.092 95.5953 288.291 95.5953C286.891 95.5953 286.191 96.6956 286.191 98.8961C286.191 99.9899 286.364 100.807 286.709 101.347C287.061 101.888 287.604 102.158 288.34 102.158ZM287.275 104.492C285.986 104.492 284.977 103.997 284.248 103.007C283.519 102.011 283.154 100.628 283.154 98.8571C283.154 97.0732 283.525 95.68 284.268 94.6774C285.016 93.6748 286.038 93.1735 287.334 93.1735C288.024 93.1735 288.626 93.3037 289.141 93.5641C289.655 93.8245 290.107 94.2281 290.498 94.775H290.576L290.84 93.3785H293.359V109.101H290.371V104.521C290.371 104.124 290.413 103.577 290.498 102.88H290.371C290.052 103.408 289.629 103.808 289.102 104.082C288.574 104.355 287.965 104.492 287.275 104.492ZM296.348 90.5563C296.348 89.5862 296.888 89.1012 297.969 89.1012C299.049 89.1012 299.59 89.5862 299.59 90.5563C299.59 91.0185 299.453 91.3798 299.18 91.6403C298.913 91.8942 298.509 92.0211 297.969 92.0211C296.888 92.0211 296.348 91.5328 296.348 90.5563ZM299.453 104.297H296.475V93.3785H299.453V104.297ZM305.566 104.297H302.588V89.1012H305.566V104.297ZM315.635 104.297L315.059 102.812H314.98C314.479 103.444 313.962 103.883 313.428 104.13C312.9 104.371 312.21 104.492 311.357 104.492C310.309 104.492 309.482 104.192 308.877 103.593C308.278 102.994 307.979 102.142 307.979 101.035C307.979 99.8759 308.382 99.0231 309.189 98.4762C310.003 97.9228 311.227 97.6168 312.861 97.5582L314.756 97.4996V97.0211C314.756 95.9143 314.189 95.361 313.057 95.361C312.184 95.361 311.159 95.6246 309.98 96.152L308.994 94.1403C310.251 93.4827 311.644 93.1539 313.174 93.1539C314.639 93.1539 315.762 93.4729 316.543 94.111C317.324 94.749 317.715 95.719 317.715 97.0211V104.297H315.635ZM314.756 99.2379L313.604 99.277C312.738 99.303 312.093 99.4593 311.67 99.7457C311.247 100.032 311.035 100.468 311.035 101.054C311.035 101.894 311.517 102.314 312.48 102.314C313.171 102.314 313.721 102.116 314.131 101.718C314.548 101.321 314.756 100.794 314.756 100.136V99.2379ZM330.566 104.297H327.588V97.9196C327.588 97.1318 327.454 96.5426 327.188 96.152C326.927 95.7548 326.514 95.5563 325.947 95.5563C325.186 95.5563 324.632 95.8362 324.287 96.3961C323.942 96.956 323.77 97.8772 323.77 99.1598V104.297H320.791V93.3785H323.066L323.467 94.775H323.633C323.926 94.2737 324.349 93.8831 324.902 93.6031C325.456 93.3167 326.09 93.1735 326.807 93.1735C328.441 93.1735 329.548 93.7073 330.127 94.775H330.391C330.684 94.2672 331.113 93.8733 331.68 93.5934C332.253 93.3134 332.897 93.1735 333.613 93.1735C334.85 93.1735 335.785 93.4925 336.416 94.1305C337.054 94.762 337.373 95.7776 337.373 97.1774V104.297H334.385V97.9196C334.385 97.1318 334.251 96.5426 333.984 96.152C333.724 95.7548 333.311 95.5563 332.744 95.5563C332.015 95.5563 331.468 95.8167 331.104 96.3375C330.745 96.8584 330.566 97.6852 330.566 98.818V104.297ZM340.312 90.5563C340.312 89.5862 340.853 89.1012 341.934 89.1012C343.014 89.1012 343.555 89.5862 343.555 90.5563C343.555 91.0185 343.418 91.3798 343.145 91.6403C342.878 91.8942 342.474 92.0211 341.934 92.0211C340.853 92.0211 340.312 91.5328 340.312 90.5563ZM343.418 104.297H340.439V93.3785H343.418V104.297ZM354.15 104.297H345.527V102.539L350.586 95.6539H345.83V93.3785H353.975V95.3121L349.053 102.021H354.15V104.297Z" fill="black"/>
<path d="M-99.0078 135.297H-100.523L-106.766 125.711H-106.828C-106.745 126.836 -106.703 127.867 -106.703 128.804V135.297H-107.93V123.875H-106.43L-100.203 133.422H-100.141C-100.151 133.281 -100.174 132.83 -100.211 132.07C-100.247 131.304 -100.26 130.757 -100.25 130.429V123.875H-99.0078V135.297ZM-94.8438 126.734V132.289C-94.8438 132.987 -94.6849 133.507 -94.3672 133.851C-94.0495 134.195 -93.5521 134.367 -92.875 134.367C-91.9792 134.367 -91.3255 134.122 -90.9141 133.632C-90.4974 133.143 -90.2891 132.343 -90.2891 131.234V126.734H-88.9922V135.297H-90.0625L-90.25 134.148H-90.3203C-90.5859 134.57 -90.9557 134.893 -91.4297 135.117C-91.8984 135.341 -92.4349 135.453 -93.0391 135.453C-94.0807 135.453 -94.862 135.205 -95.3828 134.711C-95.8984 134.216 -96.1562 133.424 -96.1562 132.336V126.734H-94.8438ZM-84.9375 135.297H-86.2344V123.14H-84.9375V135.297ZM-80.8906 135.297H-82.1875V123.14H-80.8906V135.297ZM-72.875 135.297L-73.1328 134.078H-73.1953C-73.6224 134.614 -74.0495 134.979 -74.4766 135.172C-74.8984 135.359 -75.4271 135.453 -76.0625 135.453C-76.9115 135.453 -77.5781 135.234 -78.0625 134.797C-78.5417 134.359 -78.7812 133.737 -78.7812 132.929C-78.7812 131.2 -77.3984 130.294 -74.6328 130.211L-73.1797 130.164V129.632C-73.1797 128.961 -73.3255 128.466 -73.6172 128.148C-73.9036 127.825 -74.3646 127.664 -75 127.664C-75.7135 127.664 -76.5208 127.882 -77.4219 128.32L-77.8203 127.328C-77.3984 127.099 -76.9375 126.919 -76.4375 126.789C-75.9323 126.658 -75.4271 126.593 -74.9219 126.593C-73.901 126.593 -73.1458 126.82 -72.6562 127.273C-72.1615 127.726 -71.9141 128.453 -71.9141 129.453V135.297H-72.875ZM-75.8047 134.382C-74.9974 134.382 -74.3646 134.161 -73.9062 133.718C-73.4427 133.276 -73.2109 132.656 -73.2109 131.859V131.086L-74.5078 131.14C-75.5391 131.177 -76.2839 131.338 -76.7422 131.625C-77.1953 131.906 -77.4219 132.346 -77.4219 132.945C-77.4219 133.414 -77.2812 133.77 -77 134.015C-76.7135 134.26 -76.3151 134.382 -75.8047 134.382ZM-58.3203 135.297V129.726C-58.3203 129.044 -58.4661 128.533 -58.7578 128.195C-59.0495 127.851 -59.5026 127.679 -60.1172 127.679C-60.9245 127.679 -61.5208 127.911 -61.9062 128.375C-62.2917 128.838 -62.4844 129.552 -62.4844 130.515V135.297H-63.7812V129.726C-63.7812 129.044 -63.9271 128.533 -64.2188 128.195C-64.5104 127.851 -64.9661 127.679 -65.5859 127.679C-66.3984 127.679 -66.9948 127.924 -67.375 128.414C-67.75 128.898 -67.9375 129.695 -67.9375 130.804V135.297H-69.2344V126.734H-68.1797L-67.9688 127.906H-67.9062C-67.6615 127.489 -67.3177 127.164 -66.875 126.929C-66.4271 126.695 -65.9271 126.578 -65.375 126.578C-64.0365 126.578 -63.1615 127.062 -62.75 128.031H-62.6875C-62.4323 127.583 -62.0625 127.229 -61.5781 126.968C-61.0938 126.708 -60.5417 126.578 -59.9219 126.578C-58.9531 126.578 -58.2292 126.828 -57.75 127.328C-57.2656 127.823 -57.0234 128.617 -57.0234 129.711V135.297H-58.3203ZM-48.8906 135.297H-50.1875V123.14H-48.8906V135.297ZM-40.875 135.297L-41.1328 134.078H-41.1953C-41.6224 134.614 -42.0495 134.979 -42.4766 135.172C-42.8984 135.359 -43.4271 135.453 -44.0625 135.453C-44.9115 135.453 -45.5781 135.234 -46.0625 134.797C-46.5417 134.359 -46.7812 133.737 -46.7812 132.929C-46.7812 131.2 -45.3984 130.294 -42.6328 130.211L-41.1797 130.164V129.632C-41.1797 128.961 -41.3255 128.466 -41.6172 128.148C-41.9036 127.825 -42.3646 127.664 -43 127.664C-43.7135 127.664 -44.5208 127.882 -45.4219 128.32L-45.8203 127.328C-45.3984 127.099 -44.9375 126.919 -44.4375 126.789C-43.9323 126.658 -43.4271 126.593 -42.9219 126.593C-41.901 126.593 -41.1458 126.82 -40.6562 127.273C-40.1615 127.726 -39.9141 128.453 -39.9141 129.453V135.297H-40.875ZM-43.8047 134.382C-42.9974 134.382 -42.3646 134.161 -41.9062 133.718C-41.4427 133.276 -41.2109 132.656 -41.2109 131.859V131.086L-42.5078 131.14C-43.5391 131.177 -44.2839 131.338 -44.7422 131.625C-45.1953 131.906 -45.4219 132.346 -45.4219 132.945C-45.4219 133.414 -45.2812 133.77 -45 134.015C-44.7135 134.26 -44.3151 134.382 -43.8047 134.382ZM-29.8438 131.007C-29.8438 132.403 -30.1953 133.494 -30.8984 134.281C-31.6016 135.062 -32.5729 135.453 -33.8125 135.453C-34.5781 135.453 -35.2578 135.273 -35.8516 134.914C-36.4453 134.554 -36.9036 134.039 -37.2266 133.367C-37.5495 132.695 -37.7109 131.908 -37.7109 131.007C-37.7109 129.612 -37.362 128.526 -36.6641 127.75C-35.9661 126.968 -34.9974 126.578 -33.7578 126.578C-32.5599 126.578 -31.6094 126.976 -30.9062 127.773C-30.1979 128.57 -29.8438 129.648 -29.8438 131.007ZM-36.3672 131.007C-36.3672 132.101 -36.1484 132.935 -35.7109 133.507C-35.2734 134.08 -34.6302 134.367 -33.7812 134.367C-32.9323 134.367 -32.2891 134.083 -31.8516 133.515C-31.4089 132.942 -31.1875 132.106 -31.1875 131.007C-31.1875 129.919 -31.4089 129.093 -31.8516 128.531C-32.2891 127.963 -32.9375 127.679 -33.7969 127.679C-34.6458 127.679 -35.2865 127.958 -35.7188 128.515C-36.151 129.073 -36.3672 129.903 -36.3672 131.007ZM-23.6562 126.578C-23.276 126.578 -22.9349 126.609 -22.6328 126.672L-22.8125 127.875C-23.1667 127.797 -23.4792 127.757 -23.75 127.757C-24.4427 127.757 -25.0365 128.039 -25.5312 128.601C-26.0208 129.164 -26.2656 129.864 -26.2656 130.703V135.297H-27.5625V126.734H-26.4922L-26.3438 128.32H-26.2812C-25.9635 127.763 -25.5807 127.333 -25.1328 127.031C-24.6849 126.729 -24.1927 126.578 -23.6562 126.578ZM-17.4141 135.453C-18.6797 135.453 -19.6797 135.067 -20.4141 134.297C-21.1432 133.526 -21.5078 132.455 -21.5078 131.086C-21.5078 129.705 -21.1693 128.609 -20.4922 127.797C-19.8099 126.984 -18.8958 126.578 -17.75 126.578C-16.6771 126.578 -15.8281 126.932 -15.2031 127.64C-14.5781 128.343 -14.2656 129.273 -14.2656 130.429V131.25H-20.1641C-20.138 132.255 -19.8854 133.018 -19.4062 133.539C-18.9219 134.06 -18.2422 134.32 -17.3672 134.32C-16.4453 134.32 -15.5339 134.127 -14.6328 133.742V134.898C-15.0911 135.096 -15.526 135.237 -15.9375 135.32C-16.3438 135.408 -16.8359 135.453 -17.4141 135.453ZM-17.7656 127.664C-18.4531 127.664 -19.0026 127.888 -19.4141 128.336C-19.8203 128.783 -20.0599 129.403 -20.1328 130.195H-15.6562C-15.6562 129.377 -15.8385 128.752 -16.2031 128.32C-16.5677 127.882 -17.0885 127.664 -17.7656 127.664ZM-8.42969 135.453C-9.69531 135.453 -10.6953 135.067 -11.4297 134.297C-12.1589 133.526 -12.5234 132.455 -12.5234 131.086C-12.5234 129.705 -12.1849 128.609 -11.5078 127.797C-10.8255 126.984 -9.91146 126.578 -8.76562 126.578C-7.69271 126.578 -6.84375 126.932 -6.21875 127.64C-5.59375 128.343 -5.28125 129.273 -5.28125 130.429V131.25H-11.1797C-11.1536 132.255 -10.901 133.018 -10.4219 133.539C-9.9375 134.06 -9.25781 134.32 -8.38281 134.32C-7.46094 134.32 -6.54948 134.127 -5.64844 133.742V134.898C-6.10677 135.096 -6.54167 135.237 -6.95312 135.32C-7.35938 135.408 -7.85156 135.453 -8.42969 135.453ZM-8.78125 127.664C-9.46875 127.664 -10.0182 127.888 -10.4297 128.336C-10.8359 128.783 -11.0755 129.403 -11.1484 130.195H-6.67188C-6.67188 129.377 -6.85417 128.752 -7.21875 128.32C-7.58333 127.882 -8.10417 127.664 -8.78125 127.664ZM-0.296875 134.382C-0.0677083 134.382 0.153646 134.367 0.367188 134.336C0.580729 134.299 0.75 134.263 0.875 134.226V135.218C0.734375 135.286 0.526042 135.341 0.25 135.382C-0.0208333 135.429 -0.265625 135.453 -0.484375 135.453C-2.14062 135.453 -2.96875 134.58 -2.96875 132.836V127.742H-4.19531V127.117L-2.96875 126.578L-2.42188 124.75H-1.67188V126.734H0.8125V127.742H-1.67188V132.781C-1.67188 133.297 -1.54948 133.692 -1.30469 133.968C-1.0599 134.244 -0.723958 134.382 -0.296875 134.382ZM12.6094 135.297V129.757C12.6094 129.06 12.4505 128.539 12.1328 128.195C11.8151 127.851 11.3177 127.679 10.6406 127.679C9.74479 127.679 9.08854 127.922 8.67188 128.406C8.25521 128.89 8.04688 129.69 8.04688 130.804V135.297H6.75V126.734H7.80469L8.01562 127.906H8.07812C8.34375 127.484 8.71615 127.158 9.19531 126.929C9.67448 126.695 10.2083 126.578 10.7969 126.578C11.8281 126.578 12.6042 126.828 13.125 127.328C13.6458 127.823 13.9062 128.617 13.9062 129.711V135.297H12.6094ZM20.1953 135.453C18.9297 135.453 17.9297 135.067 17.1953 134.297C16.4661 133.526 16.1016 132.455 16.1016 131.086C16.1016 129.705 16.4401 128.609 17.1172 127.797C17.7995 126.984 18.7135 126.578 19.8594 126.578C20.9323 126.578 21.7812 126.932 22.4062 127.64C23.0312 128.343 23.3438 129.273 23.3438 130.429V131.25H17.4453C17.4714 132.255 17.724 133.018 18.2031 133.539C18.6875 134.06 19.3672 134.32 20.2422 134.32C21.1641 134.32 22.0755 134.127 22.9766 133.742V134.898C22.5182 135.096 22.0833 135.237 21.6719 135.32C21.2656 135.408 20.7734 135.453 20.1953 135.453ZM19.8438 127.664C19.1562 127.664 18.6068 127.888 18.1953 128.336C17.7891 128.783 17.5495 129.403 17.4766 130.195H21.9531C21.9531 129.377 21.7708 128.752 21.4062 128.32C21.0417 127.882 20.5208 127.664 19.8438 127.664ZM28.9844 135.453C27.7448 135.453 26.7839 135.073 26.1016 134.312C25.4245 133.547 25.0859 132.466 25.0859 131.07C25.0859 129.638 25.4297 128.531 26.1172 127.75C26.8099 126.968 27.7943 126.578 29.0703 126.578C29.4818 126.578 29.8932 126.622 30.3047 126.711C30.7161 126.799 31.0391 126.903 31.2734 127.023L30.875 128.125C30.5885 128.01 30.276 127.916 29.9375 127.843C29.599 127.765 29.2995 127.726 29.0391 127.726C27.2995 127.726 26.4297 128.836 26.4297 131.054C26.4297 132.106 26.6406 132.914 27.0625 133.476C27.4896 134.039 28.1198 134.32 28.9531 134.32C29.6667 134.32 30.3984 134.166 31.1484 133.859V135.007C30.5755 135.304 29.8542 135.453 28.9844 135.453ZM40.1094 134.382C40.3385 134.382 40.5599 134.367 40.7734 134.336C40.987 134.299 41.1562 134.263 41.2812 134.226V135.218C41.1406 135.286 40.9323 135.341 40.6562 135.382C40.3854 135.429 40.1406 135.453 39.9219 135.453C38.2656 135.453 37.4375 134.58 37.4375 132.836V127.742H36.2109V127.117L37.4375 126.578L37.9844 124.75H38.7344V126.734H41.2188V127.742H38.7344V132.781C38.7344 133.297 38.8568 133.692 39.1016 133.968C39.3464 134.244 39.6823 134.382 40.1094 134.382ZM44.2188 126.734V132.289C44.2188 132.987 44.3776 133.507 44.6953 133.851C45.013 134.195 45.5104 134.367 46.1875 134.367C47.0833 134.367 47.737 134.122 48.1484 133.632C48.5651 133.143 48.7734 132.343 48.7734 131.234V126.734H50.0703V135.297H49L48.8125 134.148H48.7422C48.4766 134.57 48.1068 134.893 47.6328 135.117C47.1641 135.341 46.6276 135.453 46.0234 135.453C44.9818 135.453 44.2005 135.205 43.6797 134.711C43.1641 134.216 42.9062 133.424 42.9062 132.336V126.734H44.2188ZM56.7344 126.578C57.1146 126.578 57.4557 126.609 57.7578 126.672L57.5781 127.875C57.224 127.797 56.9115 127.757 56.6406 127.757C55.9479 127.757 55.3542 128.039 54.8594 128.601C54.3698 129.164 54.125 129.864 54.125 130.703V135.297H52.8281V126.734H53.8984L54.0469 128.32H54.1094C54.4271 127.763 54.8099 127.333 55.2578 127.031C55.7057 126.729 56.1979 126.578 56.7344 126.578ZM63.3438 135.453C62.7865 135.453 62.276 135.351 61.8125 135.148C61.3542 134.94 60.9688 134.622 60.6562 134.195H60.5625C60.625 134.695 60.6562 135.169 60.6562 135.617V139.14H59.3594V126.734H60.4141L60.5938 127.906H60.6562C60.9896 127.437 61.3776 127.099 61.8203 126.89C62.263 126.682 62.7708 126.578 63.3438 126.578C64.4792 126.578 65.3542 126.966 65.9688 127.742C66.5885 128.518 66.8984 129.606 66.8984 131.007C66.8984 132.414 66.5833 133.507 65.9531 134.289C65.3281 135.065 64.4583 135.453 63.3438 135.453ZM63.1562 127.679C62.2812 127.679 61.6484 127.922 61.2578 128.406C60.8672 128.89 60.6667 129.661 60.6562 130.718V131.007C60.6562 132.211 60.8568 133.073 61.2578 133.593C61.6589 134.109 62.3021 134.367 63.1875 134.367C63.9271 134.367 64.5052 134.067 64.9219 133.468C65.3438 132.869 65.5547 132.044 65.5547 130.992C65.5547 129.924 65.3438 129.106 64.9219 128.539C64.5052 127.966 63.9167 127.679 63.1562 127.679ZM70.4688 135.297H69.1719V126.734H70.4688V135.297ZM69.0625 124.414C69.0625 124.117 69.1354 123.901 69.2812 123.765C69.4271 123.625 69.6094 123.554 69.8281 123.554C70.0365 123.554 70.2161 123.625 70.3672 123.765C70.5182 123.906 70.5938 124.122 70.5938 124.414C70.5938 124.705 70.5182 124.924 70.3672 125.07C70.2161 125.211 70.0365 125.281 69.8281 125.281C69.6094 125.281 69.4271 125.211 69.2812 125.07C69.1354 124.924 69.0625 124.705 69.0625 124.414ZM78.7422 132.961C78.7422 133.757 78.4453 134.372 77.8516 134.804C77.2578 135.237 76.4245 135.453 75.3516 135.453C74.2161 135.453 73.3307 135.273 72.6953 134.914V133.711C73.1068 133.919 73.5469 134.083 74.0156 134.203C74.4896 134.323 74.9453 134.382 75.3828 134.382C76.0599 134.382 76.5807 134.276 76.9453 134.062C77.3099 133.843 77.4922 133.513 77.4922 133.07C77.4922 132.737 77.3464 132.453 77.0547 132.218C76.7682 131.979 76.2057 131.698 75.3672 131.375C74.5703 131.078 74.0026 130.82 73.6641 130.601C73.3307 130.377 73.0807 130.125 72.9141 129.843C72.7526 129.562 72.6719 129.226 72.6719 128.836C72.6719 128.138 72.9557 127.588 73.5234 127.187C74.0911 126.781 74.8698 126.578 75.8594 126.578C76.7812 126.578 77.6823 126.765 78.5625 127.14L78.1016 128.195C77.2422 127.841 76.4635 127.664 75.7656 127.664C75.151 127.664 74.6875 127.76 74.375 127.953C74.0625 128.145 73.9062 128.411 73.9062 128.75C73.9062 128.979 73.9635 129.174 74.0781 129.336C74.1979 129.497 74.388 129.651 74.6484 129.797C74.9089 129.942 75.4089 130.153 76.1484 130.429C77.1641 130.799 77.849 131.172 78.2031 131.547C78.5625 131.922 78.7422 132.393 78.7422 132.961ZM88.6328 135.453C87.3672 135.453 86.3672 135.067 85.6328 134.297C84.9036 133.526 84.5391 132.455 84.5391 131.086C84.5391 129.705 84.8776 128.609 85.5547 127.797C86.237 126.984 87.151 126.578 88.2969 126.578C89.3698 126.578 90.2188 126.932 90.8438 127.64C91.4688 128.343 91.7812 129.273 91.7812 130.429V131.25H85.8828C85.9089 132.255 86.1615 133.018 86.6406 133.539C87.125 134.06 87.8047 134.32 88.6797 134.32C89.6016 134.32 90.513 134.127 91.4141 133.742V134.898C90.9557 135.096 90.5208 135.237 90.1094 135.32C89.7031 135.408 89.2109 135.453 88.6328 135.453ZM88.2812 127.664C87.5938 127.664 87.0443 127.888 86.6328 128.336C86.2266 128.783 85.987 129.403 85.9141 130.195H90.3906C90.3906 129.377 90.2083 128.752 89.8438 128.32C89.4792 127.882 88.9583 127.664 88.2812 127.664ZM96.7656 134.382C96.9948 134.382 97.2161 134.367 97.4297 134.336C97.6432 134.299 97.8125 134.263 97.9375 134.226V135.218C97.7969 135.286 97.5885 135.341 97.3125 135.382C97.0417 135.429 96.7969 135.453 96.5781 135.453C94.9219 135.453 94.0938 134.58 94.0938 132.836V127.742H92.8672V127.117L94.0938 126.578L94.6406 124.75H95.3906V126.734H97.875V127.742H95.3906V132.781C95.3906 133.297 95.513 133.692 95.7578 133.968C96.0026 134.244 96.3385 134.382 96.7656 134.382ZM105.031 126.734V132.289C105.031 132.987 105.19 133.507 105.508 133.851C105.826 134.195 106.323 134.367 107 134.367C107.896 134.367 108.549 134.122 108.961 133.632C109.378 133.143 109.586 132.343 109.586 131.234V126.734H110.883V135.297H109.812L109.625 134.148H109.555C109.289 134.57 108.919 134.893 108.445 135.117C107.977 135.341 107.44 135.453 106.836 135.453C105.794 135.453 105.013 135.205 104.492 134.711C103.977 134.216 103.719 133.424 103.719 132.336V126.734H105.031ZM114.938 135.297H113.641V123.14H114.938V135.297ZM120.453 134.382C120.682 134.382 120.904 134.367 121.117 134.336C121.331 134.299 121.5 134.263 121.625 134.226V135.218C121.484 135.286 121.276 135.341 121 135.382C120.729 135.429 120.484 135.453 120.266 135.453C118.609 135.453 117.781 134.58 117.781 132.836V127.742H116.555V127.117L117.781 126.578L118.328 124.75H119.078V126.734H121.562V127.742H119.078V132.781C119.078 133.297 119.201 133.692 119.445 133.968C119.69 134.244 120.026 134.382 120.453 134.382ZM127.25 126.578C127.63 126.578 127.971 126.609 128.273 126.672L128.094 127.875C127.74 127.797 127.427 127.757 127.156 127.757C126.464 127.757 125.87 128.039 125.375 128.601C124.885 129.164 124.641 129.864 124.641 130.703V135.297H123.344V126.734H124.414L124.562 128.32H124.625C124.943 127.763 125.326 127.333 125.773 127.031C126.221 126.729 126.714 126.578 127.25 126.578ZM131.172 135.297H129.875V126.734H131.172V135.297ZM129.766 124.414C129.766 124.117 129.839 123.901 129.984 123.765C130.13 123.625 130.312 123.554 130.531 123.554C130.74 123.554 130.919 123.625 131.07 123.765C131.221 123.906 131.297 124.122 131.297 124.414C131.297 124.705 131.221 124.924 131.07 125.07C130.919 125.211 130.74 125.281 130.531 125.281C130.312 125.281 130.13 125.211 129.984 125.07C129.839 124.924 129.766 124.705 129.766 124.414ZM137.344 135.453C136.104 135.453 135.143 135.073 134.461 134.312C133.784 133.547 133.445 132.466 133.445 131.07C133.445 129.638 133.789 128.531 134.477 127.75C135.169 126.968 136.154 126.578 137.43 126.578C137.841 126.578 138.253 126.622 138.664 126.711C139.076 126.799 139.398 126.903 139.633 127.023L139.234 128.125C138.948 128.01 138.635 127.916 138.297 127.843C137.958 127.765 137.659 127.726 137.398 127.726C135.659 127.726 134.789 128.836 134.789 131.054C134.789 132.106 135 132.914 135.422 133.476C135.849 134.039 136.479 134.32 137.312 134.32C138.026 134.32 138.758 134.166 139.508 133.859V135.007C138.935 135.304 138.214 135.453 137.344 135.453ZM145.164 135.453C143.898 135.453 142.898 135.067 142.164 134.297C141.435 133.526 141.07 132.455 141.07 131.086C141.07 129.705 141.409 128.609 142.086 127.797C142.768 126.984 143.682 126.578 144.828 126.578C145.901 126.578 146.75 126.932 147.375 127.64C148 128.343 148.312 129.273 148.312 130.429V131.25H142.414C142.44 132.255 142.693 133.018 143.172 133.539C143.656 134.06 144.336 134.32 145.211 134.32C146.133 134.32 147.044 134.127 147.945 133.742V134.898C147.487 135.096 147.052 135.237 146.641 135.32C146.234 135.408 145.742 135.453 145.164 135.453ZM144.812 127.664C144.125 127.664 143.576 127.888 143.164 128.336C142.758 128.783 142.518 129.403 142.445 130.195H146.922C146.922 129.377 146.74 128.752 146.375 128.32C146.01 127.882 145.49 127.664 144.812 127.664ZM156.055 132.961C156.055 133.757 155.758 134.372 155.164 134.804C154.57 135.237 153.737 135.453 152.664 135.453C151.529 135.453 150.643 135.273 150.008 134.914V133.711C150.419 133.919 150.859 134.083 151.328 134.203C151.802 134.323 152.258 134.382 152.695 134.382C153.372 134.382 153.893 134.276 154.258 134.062C154.622 133.843 154.805 133.513 154.805 133.07C154.805 132.737 154.659 132.453 154.367 132.218C154.081 131.979 153.518 131.698 152.68 131.375C151.883 131.078 151.315 130.82 150.977 130.601C150.643 130.377 150.393 130.125 150.227 129.843C150.065 129.562 149.984 129.226 149.984 128.836C149.984 128.138 150.268 127.588 150.836 127.187C151.404 126.781 152.182 126.578 153.172 126.578C154.094 126.578 154.995 126.765 155.875 127.14L155.414 128.195C154.555 127.841 153.776 127.664 153.078 127.664C152.464 127.664 152 127.76 151.688 127.953C151.375 128.145 151.219 128.411 151.219 128.75C151.219 128.979 151.276 129.174 151.391 129.336C151.51 129.497 151.701 129.651 151.961 129.797C152.221 129.942 152.721 130.153 153.461 130.429C154.477 130.799 155.161 131.172 155.516 131.547C155.875 131.922 156.055 132.393 156.055 132.961ZM157.984 134.468C157.984 134.119 158.062 133.856 158.219 133.679C158.38 133.497 158.609 133.406 158.906 133.406C159.208 133.406 159.443 133.497 159.609 133.679C159.781 133.856 159.867 134.119 159.867 134.468C159.867 134.807 159.781 135.067 159.609 135.25C159.438 135.432 159.203 135.523 158.906 135.523C158.641 135.523 158.419 135.442 158.242 135.281C158.07 135.114 157.984 134.843 157.984 134.468ZM175.906 129.476C175.906 131.362 175.393 132.804 174.367 133.804C173.346 134.799 171.875 135.297 169.953 135.297H166.789V123.875H170.289C172.065 123.875 173.445 124.367 174.43 125.351C175.414 126.336 175.906 127.711 175.906 129.476ZM174.5 129.523C174.5 128.033 174.125 126.911 173.375 126.156C172.63 125.401 171.521 125.023 170.047 125.023H168.117V134.148H169.734C171.318 134.148 172.508 133.76 173.305 132.984C174.102 132.203 174.5 131.049 174.5 129.523ZM179.484 126.734V132.289C179.484 132.987 179.643 133.507 179.961 133.851C180.279 134.195 180.776 134.367 181.453 134.367C182.349 134.367 183.003 134.122 183.414 133.632C183.831 133.143 184.039 132.343 184.039 131.234V126.734H185.336V135.297H184.266L184.078 134.148H184.008C183.742 134.57 183.372 134.893 182.898 135.117C182.43 135.341 181.893 135.453 181.289 135.453C180.247 135.453 179.466 135.205 178.945 134.711C178.43 134.216 178.172 133.424 178.172 132.336V126.734H179.484ZM189.391 135.297H188.094V126.734H189.391V135.297ZM187.984 124.414C187.984 124.117 188.057 123.901 188.203 123.765C188.349 123.625 188.531 123.554 188.75 123.554C188.958 123.554 189.138 123.625 189.289 123.765C189.44 123.906 189.516 124.122 189.516 124.414C189.516 124.705 189.44 124.924 189.289 125.07C189.138 125.211 188.958 125.281 188.75 125.281C188.531 125.281 188.349 125.211 188.203 125.07C188.057 124.924 187.984 124.705 187.984 124.414ZM197.664 132.961C197.664 133.757 197.367 134.372 196.773 134.804C196.18 135.237 195.346 135.453 194.273 135.453C193.138 135.453 192.253 135.273 191.617 134.914V133.711C192.029 133.919 192.469 134.083 192.938 134.203C193.411 134.323 193.867 134.382 194.305 134.382C194.982 134.382 195.503 134.276 195.867 134.062C196.232 133.843 196.414 133.513 196.414 133.07C196.414 132.737 196.268 132.453 195.977 132.218C195.69 131.979 195.128 131.698 194.289 131.375C193.492 131.078 192.924 130.82 192.586 130.601C192.253 130.377 192.003 130.125 191.836 129.843C191.674 129.562 191.594 129.226 191.594 128.836C191.594 128.138 191.878 127.588 192.445 127.187C193.013 126.781 193.792 126.578 194.781 126.578C195.703 126.578 196.604 126.765 197.484 127.14L197.023 128.195C196.164 127.841 195.385 127.664 194.688 127.664C194.073 127.664 193.609 127.76 193.297 127.953C192.984 128.145 192.828 128.411 192.828 128.75C192.828 128.979 192.885 129.174 193 129.336C193.12 129.497 193.31 129.651 193.57 129.797C193.831 129.942 194.331 130.153 195.07 130.429C196.086 130.799 196.771 131.172 197.125 131.547C197.484 131.922 197.664 132.393 197.664 132.961ZM209.461 132.961C209.461 133.757 209.164 134.372 208.57 134.804C207.977 135.237 207.143 135.453 206.07 135.453C204.935 135.453 204.049 135.273 203.414 134.914V133.711C203.826 133.919 204.266 134.083 204.734 134.203C205.208 134.323 205.664 134.382 206.102 134.382C206.779 134.382 207.299 134.276 207.664 134.062C208.029 133.843 208.211 133.513 208.211 133.07C208.211 132.737 208.065 132.453 207.773 132.218C207.487 131.979 206.924 131.698 206.086 131.375C205.289 131.078 204.721 130.82 204.383 130.601C204.049 130.377 203.799 130.125 203.633 129.843C203.471 129.562 203.391 129.226 203.391 128.836C203.391 128.138 203.674 127.588 204.242 127.187C204.81 126.781 205.589 126.578 206.578 126.578C207.5 126.578 208.401 126.765 209.281 127.14L208.82 128.195C207.961 127.841 207.182 127.664 206.484 127.664C205.87 127.664 205.406 127.76 205.094 127.953C204.781 128.145 204.625 128.411 204.625 128.75C204.625 128.979 204.682 129.174 204.797 129.336C204.917 129.497 205.107 129.651 205.367 129.797C205.628 129.942 206.128 130.153 206.867 130.429C207.883 130.799 208.568 131.172 208.922 131.547C209.281 131.922 209.461 132.393 209.461 132.961ZM212.875 135.297H211.578V126.734H212.875V135.297ZM211.469 124.414C211.469 124.117 211.542 123.901 211.688 123.765C211.833 123.625 212.016 123.554 212.234 123.554C212.443 123.554 212.622 123.625 212.773 123.765C212.924 123.906 213 124.122 213 124.414C213 124.705 212.924 124.924 212.773 125.07C212.622 125.211 212.443 125.281 212.234 125.281C212.016 125.281 211.833 125.211 211.688 125.07C211.542 124.924 211.469 124.705 211.469 124.414ZM218.391 134.382C218.62 134.382 218.841 134.367 219.055 134.336C219.268 134.299 219.438 134.263 219.562 134.226V135.218C219.422 135.286 219.214 135.341 218.938 135.382C218.667 135.429 218.422 135.453 218.203 135.453C216.547 135.453 215.719 134.58 215.719 132.836V127.742H214.492V127.117L215.719 126.578L216.266 124.75H217.016V126.734H219.5V127.742H217.016V132.781C217.016 133.297 217.138 133.692 217.383 133.968C217.628 134.244 217.964 134.382 218.391 134.382ZM230.703 135.297L230.445 134.078H230.383C229.956 134.614 229.529 134.979 229.102 135.172C228.68 135.359 228.151 135.453 227.516 135.453C226.667 135.453 226 135.234 225.516 134.797C225.036 134.359 224.797 133.737 224.797 132.929C224.797 131.2 226.18 130.294 228.945 130.211L230.398 130.164V129.632C230.398 128.961 230.253 128.466 229.961 128.148C229.674 127.825 229.214 127.664 228.578 127.664C227.865 127.664 227.057 127.882 226.156 128.32L225.758 127.328C226.18 127.099 226.641 126.919 227.141 126.789C227.646 126.658 228.151 126.593 228.656 126.593C229.677 126.593 230.432 126.82 230.922 127.273C231.417 127.726 231.664 128.453 231.664 129.453V135.297H230.703ZM227.773 134.382C228.581 134.382 229.214 134.161 229.672 133.718C230.135 133.276 230.367 132.656 230.367 131.859V131.086L229.07 131.14C228.039 131.177 227.294 131.338 226.836 131.625C226.383 131.906 226.156 132.346 226.156 132.945C226.156 133.414 226.297 133.77 226.578 134.015C226.865 134.26 227.263 134.382 227.773 134.382ZM245.258 135.297V129.726C245.258 129.044 245.112 128.533 244.82 128.195C244.529 127.851 244.076 127.679 243.461 127.679C242.654 127.679 242.057 127.911 241.672 128.375C241.286 128.838 241.094 129.552 241.094 130.515V135.297H239.797V129.726C239.797 129.044 239.651 128.533 239.359 128.195C239.068 127.851 238.612 127.679 237.992 127.679C237.18 127.679 236.583 127.924 236.203 128.414C235.828 128.898 235.641 129.695 235.641 130.804V135.297H234.344V126.734H235.398L235.609 127.906H235.672C235.917 127.489 236.26 127.164 236.703 126.929C237.151 126.695 237.651 126.578 238.203 126.578C239.542 126.578 240.417 127.062 240.828 128.031H240.891C241.146 127.583 241.516 127.229 242 126.968C242.484 126.708 243.036 126.578 243.656 126.578C244.625 126.578 245.349 126.828 245.828 127.328C246.312 127.823 246.555 128.617 246.555 129.711V135.297H245.258ZM252.852 135.453C251.586 135.453 250.586 135.067 249.852 134.297C249.122 133.526 248.758 132.455 248.758 131.086C248.758 129.705 249.096 128.609 249.773 127.797C250.456 126.984 251.37 126.578 252.516 126.578C253.589 126.578 254.438 126.932 255.062 127.64C255.688 128.343 256 129.273 256 130.429V131.25H250.102C250.128 132.255 250.38 133.018 250.859 133.539C251.344 134.06 252.023 134.32 252.898 134.32C253.82 134.32 254.732 134.127 255.633 133.742V134.898C255.174 135.096 254.74 135.237 254.328 135.32C253.922 135.408 253.43 135.453 252.852 135.453ZM252.5 127.664C251.812 127.664 251.263 127.888 250.852 128.336C250.445 128.783 250.206 129.403 250.133 130.195H254.609C254.609 129.377 254.427 128.752 254.062 128.32C253.698 127.882 253.177 127.664 252.5 127.664ZM260.984 134.382C261.214 134.382 261.435 134.367 261.648 134.336C261.862 134.299 262.031 134.263 262.156 134.226V135.218C262.016 135.286 261.807 135.341 261.531 135.382C261.26 135.429 261.016 135.453 260.797 135.453C259.141 135.453 258.312 134.58 258.312 132.836V127.742H257.086V127.117L258.312 126.578L258.859 124.75H259.609V126.734H262.094V127.742H259.609V132.781C259.609 133.297 259.732 133.692 259.977 133.968C260.221 134.244 260.557 134.382 260.984 134.382ZM271.266 134.367C272.13 134.367 272.76 134.135 273.156 133.672C273.552 133.208 273.763 132.427 273.789 131.328V131.039C273.789 129.841 273.586 128.979 273.18 128.453C272.773 127.927 272.13 127.664 271.25 127.664C270.49 127.664 269.906 127.961 269.5 128.554C269.099 129.143 268.898 129.976 268.898 131.054C268.898 132.132 269.096 132.955 269.492 133.523C269.893 134.086 270.484 134.367 271.266 134.367ZM271.07 135.453C269.966 135.453 269.104 135.065 268.484 134.289C267.865 133.513 267.555 132.429 267.555 131.039C267.555 129.638 267.867 128.544 268.492 127.757C269.117 126.971 269.987 126.578 271.102 126.578C272.273 126.578 273.174 127.02 273.805 127.906H273.875L274.062 126.734H275.086V139.14H273.789V135.476C273.789 134.955 273.818 134.513 273.875 134.148H273.773C273.174 135.018 272.273 135.453 271.07 135.453ZM279.062 126.734V132.289C279.062 132.987 279.221 133.507 279.539 133.851C279.857 134.195 280.354 134.367 281.031 134.367C281.927 134.367 282.581 134.122 282.992 133.632C283.409 133.143 283.617 132.343 283.617 131.234V126.734H284.914V135.297H283.844L283.656 134.148H283.586C283.32 134.57 282.951 134.893 282.477 135.117C282.008 135.341 281.471 135.453 280.867 135.453C279.826 135.453 279.044 135.205 278.523 134.711C278.008 134.216 277.75 133.424 277.75 132.336V126.734H279.062ZM292.938 135.297L292.68 134.078H292.617C292.19 134.614 291.763 134.979 291.336 135.172C290.914 135.359 290.385 135.453 289.75 135.453C288.901 135.453 288.234 135.234 287.75 134.797C287.271 134.359 287.031 133.737 287.031 132.929C287.031 131.2 288.414 130.294 291.18 130.211L292.633 130.164V129.632C292.633 128.961 292.487 128.466 292.195 128.148C291.909 127.825 291.448 127.664 290.812 127.664C290.099 127.664 289.292 127.882 288.391 128.32L287.992 127.328C288.414 127.099 288.875 126.919 289.375 126.789C289.88 126.658 290.385 126.593 290.891 126.593C291.911 126.593 292.667 126.82 293.156 127.273C293.651 127.726 293.898 128.453 293.898 129.453V135.297H292.938ZM290.008 134.382C290.815 134.382 291.448 134.161 291.906 133.718C292.37 133.276 292.602 132.656 292.602 131.859V131.086L291.305 131.14C290.273 131.177 289.529 131.338 289.07 131.625C288.617 131.906 288.391 132.346 288.391 132.945C288.391 133.414 288.531 133.77 288.812 134.015C289.099 134.26 289.497 134.382 290.008 134.382ZM307.492 135.297V129.726C307.492 129.044 307.346 128.533 307.055 128.195C306.763 127.851 306.31 127.679 305.695 127.679C304.888 127.679 304.292 127.911 303.906 128.375C303.521 128.838 303.328 129.552 303.328 130.515V135.297H302.031V129.726C302.031 129.044 301.885 128.533 301.594 128.195C301.302 127.851 300.846 127.679 300.227 127.679C299.414 127.679 298.818 127.924 298.438 128.414C298.062 128.898 297.875 129.695 297.875 130.804V135.297H296.578V126.734H297.633L297.844 127.906H297.906C298.151 127.489 298.495 127.164 298.938 126.929C299.385 126.695 299.885 126.578 300.438 126.578C301.776 126.578 302.651 127.062 303.062 128.031H303.125C303.38 127.583 303.75 127.229 304.234 126.968C304.719 126.708 305.271 126.578 305.891 126.578C306.859 126.578 307.583 126.828 308.062 127.328C308.547 127.823 308.789 128.617 308.789 129.711V135.297H307.492ZM320.891 135.297L320.633 134.078H320.57C320.143 134.614 319.716 134.979 319.289 135.172C318.867 135.359 318.339 135.453 317.703 135.453C316.854 135.453 316.188 135.234 315.703 134.797C315.224 134.359 314.984 133.737 314.984 132.929C314.984 131.2 316.367 130.294 319.133 130.211L320.586 130.164V129.632C320.586 128.961 320.44 128.466 320.148 128.148C319.862 127.825 319.401 127.664 318.766 127.664C318.052 127.664 317.245 127.882 316.344 128.32L315.945 127.328C316.367 127.099 316.828 126.919 317.328 126.789C317.833 126.658 318.339 126.593 318.844 126.593C319.865 126.593 320.62 126.82 321.109 127.273C321.604 127.726 321.852 128.453 321.852 129.453V135.297H320.891ZM317.961 134.382C318.768 134.382 319.401 134.161 319.859 133.718C320.323 133.276 320.555 132.656 320.555 131.859V131.086L319.258 131.14C318.227 131.177 317.482 131.338 317.023 131.625C316.57 131.906 316.344 132.346 316.344 132.945C316.344 133.414 316.484 133.77 316.766 134.015C317.052 134.26 317.451 134.382 317.961 134.382ZM328.438 126.578C328.818 126.578 329.159 126.609 329.461 126.672L329.281 127.875C328.927 127.797 328.615 127.757 328.344 127.757C327.651 127.757 327.057 128.039 326.562 128.601C326.073 129.164 325.828 129.864 325.828 130.703V135.297H324.531V126.734H325.602L325.75 128.32H325.812C326.13 127.763 326.513 127.333 326.961 127.031C327.409 126.729 327.901 126.578 328.438 126.578ZM334.484 135.453C333.245 135.453 332.284 135.073 331.602 134.312C330.924 133.547 330.586 132.466 330.586 131.07C330.586 129.638 330.93 128.531 331.617 127.75C332.31 126.968 333.294 126.578 334.57 126.578C334.982 126.578 335.393 126.622 335.805 126.711C336.216 126.799 336.539 126.903 336.773 127.023L336.375 128.125C336.089 128.01 335.776 127.916 335.438 127.843C335.099 127.765 334.799 127.726 334.539 127.726C332.799 127.726 331.93 128.836 331.93 131.054C331.93 132.106 332.141 132.914 332.562 133.476C332.99 134.039 333.62 134.32 334.453 134.32C335.167 134.32 335.898 134.166 336.648 133.859V135.007C336.076 135.304 335.354 135.453 334.484 135.453ZM339.906 126.734V132.289C339.906 132.987 340.065 133.507 340.383 133.851C340.701 134.195 341.198 134.367 341.875 134.367C342.771 134.367 343.424 134.122 343.836 133.632C344.253 133.143 344.461 132.343 344.461 131.234V126.734H345.758V135.297H344.688L344.5 134.148H344.43C344.164 134.57 343.794 134.893 343.32 135.117C342.852 135.341 342.315 135.453 341.711 135.453C340.669 135.453 339.888 135.205 339.367 134.711C338.852 134.216 338.594 133.424 338.594 132.336V126.734H339.906ZM348.328 134.468C348.328 134.119 348.406 133.856 348.562 133.679C348.724 133.497 348.953 133.406 349.25 133.406C349.552 133.406 349.786 133.497 349.953 133.679C350.125 133.856 350.211 134.119 350.211 134.468C350.211 134.807 350.125 135.067 349.953 135.25C349.781 135.432 349.547 135.523 349.25 135.523C348.984 135.523 348.763 135.442 348.586 135.281C348.414 135.114 348.328 134.843 348.328 134.468ZM366.055 135.297H364.539L358.297 125.711H358.234C358.318 126.836 358.359 127.867 358.359 128.804V135.297H357.133V123.875H358.633L364.859 133.422H364.922C364.911 133.281 364.888 132.83 364.852 132.07C364.815 131.304 364.802 130.757 364.812 130.429V123.875H366.055V135.297ZM374.266 135.297L374.008 134.078H373.945C373.518 134.614 373.091 134.979 372.664 135.172C372.242 135.359 371.714 135.453 371.078 135.453C370.229 135.453 369.562 135.234 369.078 134.797C368.599 134.359 368.359 133.737 368.359 132.929C368.359 131.2 369.742 130.294 372.508 130.211L373.961 130.164V129.632C373.961 128.961 373.815 128.466 373.523 128.148C373.237 127.825 372.776 127.664 372.141 127.664C371.427 127.664 370.62 127.882 369.719 128.32L369.32 127.328C369.742 127.099 370.203 126.919 370.703 126.789C371.208 126.658 371.714 126.593 372.219 126.593C373.24 126.593 373.995 126.82 374.484 127.273C374.979 127.726 375.227 128.453 375.227 129.453V135.297H374.266ZM371.336 134.382C372.143 134.382 372.776 134.161 373.234 133.718C373.698 133.276 373.93 132.656 373.93 131.859V131.086L372.633 131.14C371.602 131.177 370.857 131.338 370.398 131.625C369.945 131.906 369.719 132.346 369.719 132.945C369.719 133.414 369.859 133.77 370.141 134.015C370.427 134.26 370.826 134.382 371.336 134.382ZM388.82 135.297V129.726C388.82 129.044 388.674 128.533 388.383 128.195C388.091 127.851 387.638 127.679 387.023 127.679C386.216 127.679 385.62 127.911 385.234 128.375C384.849 128.838 384.656 129.552 384.656 130.515V135.297H383.359V129.726C383.359 129.044 383.214 128.533 382.922 128.195C382.63 127.851 382.174 127.679 381.555 127.679C380.742 127.679 380.146 127.924 379.766 128.414C379.391 128.898 379.203 129.695 379.203 130.804V135.297H377.906V126.734H378.961L379.172 127.906H379.234C379.479 127.489 379.823 127.164 380.266 126.929C380.714 126.695 381.214 126.578 381.766 126.578C383.104 126.578 383.979 127.062 384.391 128.031H384.453C384.708 127.583 385.078 127.229 385.562 126.968C386.047 126.708 386.599 126.578 387.219 126.578C388.188 126.578 388.911 126.828 389.391 127.328C389.875 127.823 390.117 128.617 390.117 129.711V135.297H388.82ZM400.812 127.742H398.633V135.297H397.336V127.742H395.805V127.156L397.336 126.687V126.211C397.336 124.106 398.255 123.054 400.094 123.054C400.547 123.054 401.078 123.145 401.688 123.328L401.352 124.367C400.852 124.205 400.424 124.125 400.07 124.125C399.581 124.125 399.219 124.289 398.984 124.617C398.75 124.94 398.633 125.461 398.633 126.179V126.734H400.812V127.742ZM407.641 135.297L407.383 134.078H407.32C406.893 134.614 406.466 134.979 406.039 135.172C405.617 135.359 405.089 135.453 404.453 135.453C403.604 135.453 402.938 135.234 402.453 134.797C401.974 134.359 401.734 133.737 401.734 132.929C401.734 131.2 403.117 130.294 405.883 130.211L407.336 130.164V129.632C407.336 128.961 407.19 128.466 406.898 128.148C406.612 127.825 406.151 127.664 405.516 127.664C404.802 127.664 403.995 127.882 403.094 128.32L402.695 127.328C403.117 127.099 403.578 126.919 404.078 126.789C404.583 126.658 405.089 126.593 405.594 126.593C406.615 126.593 407.37 126.82 407.859 127.273C408.354 127.726 408.602 128.453 408.602 129.453V135.297H407.641ZM404.711 134.382C405.518 134.382 406.151 134.161 406.609 133.718C407.073 133.276 407.305 132.656 407.305 131.859V131.086L406.008 131.14C404.977 131.177 404.232 131.338 403.773 131.625C403.32 131.906 403.094 132.346 403.094 132.945C403.094 133.414 403.234 133.77 403.516 134.015C403.802 134.26 404.201 134.382 404.711 134.382ZM414.703 135.453C413.464 135.453 412.503 135.073 411.82 134.312C411.143 133.547 410.805 132.466 410.805 131.07C410.805 129.638 411.148 128.531 411.836 127.75C412.529 126.968 413.513 126.578 414.789 126.578C415.201 126.578 415.612 126.622 416.023 126.711C416.435 126.799 416.758 126.903 416.992 127.023L416.594 128.125C416.307 128.01 415.995 127.916 415.656 127.843C415.318 127.765 415.018 127.726 414.758 127.726C413.018 127.726 412.148 128.836 412.148 131.054C412.148 132.106 412.359 132.914 412.781 133.476C413.208 134.039 413.839 134.32 414.672 134.32C415.385 134.32 416.117 134.166 416.867 133.859V135.007C416.294 135.304 415.573 135.453 414.703 135.453ZM420.203 135.297H418.906V126.734H420.203V135.297ZM418.797 124.414C418.797 124.117 418.87 123.901 419.016 123.765C419.161 123.625 419.344 123.554 419.562 123.554C419.771 123.554 419.951 123.625 420.102 123.765C420.253 123.906 420.328 124.122 420.328 124.414C420.328 124.705 420.253 124.924 420.102 125.07C419.951 125.211 419.771 125.281 419.562 125.281C419.344 125.281 419.161 125.211 419.016 125.07C418.87 124.924 418.797 124.705 418.797 124.414ZM424.25 135.297H422.953V123.14H424.25V135.297ZM428.297 135.297H427V126.734H428.297V135.297ZM426.891 124.414C426.891 124.117 426.964 123.901 427.109 123.765C427.255 123.625 427.438 123.554 427.656 123.554C427.865 123.554 428.044 123.625 428.195 123.765C428.346 123.906 428.422 124.122 428.422 124.414C428.422 124.705 428.346 124.924 428.195 125.07C428.044 125.211 427.865 125.281 427.656 125.281C427.438 125.281 427.255 125.211 427.109 125.07C426.964 124.924 426.891 124.705 426.891 124.414ZM436.57 132.961C436.57 133.757 436.273 134.372 435.68 134.804C435.086 135.237 434.253 135.453 433.18 135.453C432.044 135.453 431.159 135.273 430.523 134.914V133.711C430.935 133.919 431.375 134.083 431.844 134.203C432.318 134.323 432.773 134.382 433.211 134.382C433.888 134.382 434.409 134.276 434.773 134.062C435.138 133.843 435.32 133.513 435.32 133.07C435.32 132.737 435.174 132.453 434.883 132.218C434.596 131.979 434.034 131.698 433.195 131.375C432.398 131.078 431.831 130.82 431.492 130.601C431.159 130.377 430.909 130.125 430.742 129.843C430.581 129.562 430.5 129.226 430.5 128.836C430.5 128.138 430.784 127.588 431.352 127.187C431.919 126.781 432.698 126.578 433.688 126.578C434.609 126.578 435.51 126.765 436.391 127.14L435.93 128.195C435.07 127.841 434.292 127.664 433.594 127.664C432.979 127.664 432.516 127.76 432.203 127.953C431.891 128.145 431.734 128.411 431.734 128.75C431.734 128.979 431.792 129.174 431.906 129.336C432.026 129.497 432.216 129.651 432.477 129.797C432.737 129.942 433.237 130.153 433.977 130.429C434.992 130.799 435.677 131.172 436.031 131.547C436.391 131.922 436.57 132.393 436.57 132.961ZM439.984 135.297H438.688V126.734H439.984V135.297ZM438.578 124.414C438.578 124.117 438.651 123.901 438.797 123.765C438.943 123.625 439.125 123.554 439.344 123.554C439.552 123.554 439.732 123.625 439.883 123.765C440.034 123.906 440.109 124.122 440.109 124.414C440.109 124.705 440.034 124.924 439.883 125.07C439.732 125.211 439.552 125.281 439.344 125.281C439.125 125.281 438.943 125.211 438.797 125.07C438.651 124.924 438.578 124.705 438.578 124.414ZM448.258 132.961C448.258 133.757 447.961 134.372 447.367 134.804C446.773 135.237 445.94 135.453 444.867 135.453C443.732 135.453 442.846 135.273 442.211 134.914V133.711C442.622 133.919 443.062 134.083 443.531 134.203C444.005 134.323 444.461 134.382 444.898 134.382C445.576 134.382 446.096 134.276 446.461 134.062C446.826 133.843 447.008 133.513 447.008 133.07C447.008 132.737 446.862 132.453 446.57 132.218C446.284 131.979 445.721 131.698 444.883 131.375C444.086 131.078 443.518 130.82 443.18 130.601C442.846 130.377 442.596 130.125 442.43 129.843C442.268 129.562 442.188 129.226 442.188 128.836C442.188 128.138 442.471 127.588 443.039 127.187C443.607 126.781 444.385 126.578 445.375 126.578C446.297 126.578 447.198 126.765 448.078 127.14L447.617 128.195C446.758 127.841 445.979 127.664 445.281 127.664C444.667 127.664 444.203 127.76 443.891 127.953C443.578 128.145 443.422 128.411 443.422 128.75C443.422 128.979 443.479 129.174 443.594 129.336C443.714 129.497 443.904 129.651 444.164 129.797C444.424 129.942 444.924 130.153 445.664 130.429C446.68 130.799 447.365 131.172 447.719 131.547C448.078 131.922 448.258 132.393 448.258 132.961Z" fill="black"/>
</g>
<g clip-path="url(#clip2_14_914)">
<path d="M819.742 199.491L820.864 195.063C822.855 194.22 824.891 193.489 826.964 192.875L827.106 194.932L827.681 192.666C830.251 191.931 832 191.608 832 191.608C832 191.608 829.638 200.591 824.683 207.458L818.91 208.472L823.395 209.119C822.772 209.869 822.102 210.579 821.389 211.245C814.182 217.935 806.154 221.004 803.459 218.101C800.763 215.197 804.421 207.42 811.629 200.73C813.863 198.656 816.67 196.991 819.479 195.681L819.742 199.491Z" fill="#E6E6E6"/>
<path d="M809.065 194.682L807.738 190.312C809.005 188.561 810.371 186.883 811.828 185.286L813.013 186.974L812.333 184.736C814.154 182.779 815.484 181.598 815.484 181.598C815.484 181.598 818.105 190.509 817.414 198.949L812.996 202.801L817.169 201.036C817.023 202 816.817 202.955 816.551 203.893C813.839 213.346 808.554 220.123 804.746 219.03C800.937 217.938 800.049 209.389 802.76 199.937C803.601 197.006 805.143 194.131 806.872 191.557L809.065 194.682Z" fill="#E6E6E6"/>
<path d="M831.324 218.715H657V219.391H831.324V218.715Z" fill="#3F3D56"/>
<path d="M540.182 88.3024C537.822 84.7999 536.808 78.5793 541.196 75.5137C543.372 73.9933 546.014 74.1788 548.302 74.8478C551.465 75.7733 554.279 77.6598 556.712 79.7705C559.519 82.205 561.922 85.0592 564.292 87.9146C566.631 90.7334 569.002 93.5194 571.489 96.2062C576.39 101.499 581.623 106.475 587.156 111.103C592.579 115.644 598.282 119.84 604.231 123.666C607.184 125.564 610.201 127.365 613.28 129.069C616.14 130.712 619.097 132.178 622.136 133.459C626.178 135.085 633.104 137.356 636.688 132.797C638.589 130.379 638.684 127.099 638.255 124.343C637.736 121.012 636.427 117.903 635.138 114.866C629.142 100.74 623.077 86.6478 617.045 72.5393C615.638 69.2465 614.188 65.9663 613.019 62.5631C611.924 59.3769 611.013 56.0176 610.991 52.5475C610.972 49.5165 611.631 46.0962 613.937 43.7616C615.849 41.8254 618.528 41.1845 621.051 41.1992C627.296 41.2356 633.165 44.4149 638.016 47.7658C644.043 51.929 649.367 56.9863 655.37 61.1808C660.218 64.5677 665.919 67.6368 672.106 68.0254C674.478 68.1744 676.995 67.858 679.156 66.562C681.222 65.2653 682.726 63.2411 683.373 60.8893C684.183 58.1632 684.082 55.2836 683.652 52.5966C683.115 49.4501 682.14 46.3941 680.757 43.5174C677.832 37.2672 673.835 31.666 670.393 25.7339C668.705 22.8246 667.057 19.8264 666.005 16.5815C665.113 13.8325 664.388 10.5787 665.269 7.59811C667.086 1.44845 674.472 3.76249 678.218 5.53768C680.755 6.78426 683.201 8.20871 685.537 9.80038C686.04 10.1329 686.53 9.25077 686.029 8.91979C683.576 7.24064 680.997 5.75395 678.314 4.47305C676.031 3.4283 673.518 2.51694 670.899 2.56704C668.699 2.60911 666.482 3.53055 665.191 5.49866C663.663 7.82726 663.768 10.8378 664.179 13.3361C664.723 16.6398 666.021 19.6917 667.518 22.5955C669.094 25.6538 670.893 28.578 672.702 31.4891C676.318 37.3062 680.278 43.191 682.082 49.9822C683.343 54.7328 684.14 62.1528 679.006 65.543C676.727 67.048 673.934 67.2658 671.412 66.9823C668.364 66.6397 665.461 65.6267 662.75 64.3543C650.108 58.4208 641.686 46.1005 628.208 41.5443C623.626 39.9952 617.213 39.0061 613.18 43.1952C611.086 45.3713 610.245 48.3926 610.057 51.2315C609.831 54.6318 610.54 57.9781 611.505 61.1271C612.575 64.4271 613.82 67.668 615.234 70.8359C616.745 74.3761 618.258 77.9154 619.773 81.4537L628.957 102.936L633.519 113.61C634.912 116.868 636.405 120.141 637.131 123.673C637.725 126.565 637.894 130.544 635.347 132.87C633.324 134.717 630.368 134.632 628.001 134.203C624.934 133.647 622.05 132.433 619.304 131.094C616.138 129.549 613.055 127.835 610.029 126.052C603.799 122.377 597.82 118.294 592.129 113.829C586.416 109.354 580.994 104.519 575.897 99.3537C573.321 96.7424 570.831 94.048 568.429 91.2703C565.952 88.4064 563.627 85.4069 561.063 82.6221C558.743 80.1033 556.203 77.7683 553.251 75.9918C550.786 74.5085 547.872 73.2681 544.84 73.3658C543.77 73.3957 542.719 73.6504 541.755 74.1132C540.79 74.576 539.934 75.2367 539.241 76.0522C537.884 77.7392 537.151 79.8428 537.165 82.0077C537.181 84.4511 537.935 86.8327 539.328 88.8399C539.665 89.3402 540.52 88.8049 540.182 88.3024V88.3024Z" fill="#E6E6E6"/>
<path d="M578.829 6.8031H538.35V42.7446H578.829V6.8031Z" fill="#E6E6E6"/>
<path d="M578.829 71.4978H538.35V107.439H578.829V71.4978Z" fill="#00BAFC"/>
<path d="M708.897 6.8031H668.417V42.7446H708.897V6.8031Z" fill="#00BAFC"/>
<path d="M708.897 71.4978H668.417V107.439H708.897V71.4978Z" fill="#E6E6E6"/>
<path d="M644.323 6.8031H603.843V42.7446H644.323V6.8031Z" fill="#00BAFC"/>
<path d="M644.323 71.4978H603.843V107.439H644.323V71.4978Z" fill="#00BAFC"/>
<path d="M603.959 13.5135C607.691 13.5135 610.716 10.4884 610.716 6.75676C610.716 3.0251 607.691 0 603.959 0C600.228 0 597.203 3.0251 597.203 6.75676C597.203 10.4884 600.228 13.5135 603.959 13.5135Z" fill="#3F3D56"/>
<path d="M669.162 13.5135C672.894 13.5135 675.919 10.4884 675.919 6.75676C675.919 3.0251 672.894 0 669.162 0C665.431 0 662.405 3.0251 662.405 6.75676C662.405 10.4884 665.431 13.5135 669.162 13.5135Z" fill="#3F3D56"/>
<path d="M538.757 78.3784C542.488 78.3784 545.514 75.3533 545.514 71.6216C545.514 67.89 542.488 64.8649 538.757 64.8649C535.025 64.8649 532 67.89 532 71.6216C532 75.3533 535.025 78.3784 538.757 78.3784Z" fill="#3F3D56"/>
<path d="M603.959 78.3784C607.691 78.3784 610.716 75.3533 610.716 71.6216C610.716 67.89 607.691 64.8649 603.959 64.8649C600.228 64.8649 597.203 67.89 597.203 71.6216C597.203 75.3533 600.228 78.3784 603.959 78.3784Z" fill="#3F3D56"/>
<path d="M761.493 215.249C761.493 215.249 752.05 215.976 753.019 219.366C753.987 222.756 761.493 222.271 761.493 222.271C761.493 222.271 767.305 221.787 770.452 222.756C773.6 223.724 777.232 222.756 777.474 221.061C777.716 219.366 775.779 218.155 775.779 218.155L774.569 215.734L761.493 215.249Z" fill="#2F2E41"/>
<path d="M736.675 139.583L735.706 143.457C735.706 143.457 731.348 152.416 736.675 152.416C742.002 152.416 740.065 144.183 740.065 144.183L740.549 140.309L736.675 139.583Z" fill="#9F616A"/>
<path d="M783.406 136.435L784.375 140.309C784.375 140.309 788.733 149.268 783.406 149.268C778.079 149.268 780.017 141.035 780.017 141.035L779.532 137.161L783.406 136.435Z" fill="#9F616A"/>
<path d="M758.225 70.5746C763.975 70.5746 768.636 65.9131 768.636 60.1628C768.636 54.4126 763.975 49.7511 758.225 49.7511C752.474 49.7511 747.813 54.4126 747.813 60.1628C747.813 65.9131 752.474 70.5746 758.225 70.5746Z" fill="#9F616A"/>
<path d="M755.077 68.1533C755.077 68.1533 756.287 73.7224 755.561 76.3858C754.835 79.0493 770.573 75.9016 770.573 75.9016C770.573 75.9016 765.004 66.7005 765.246 66.4584L755.077 68.1533Z" fill="#9F616A"/>
<path d="M757.498 74.4488C757.498 74.4488 753.14 73.2381 751.687 74.6909C750.234 76.1437 741.759 80.26 741.759 80.26L747.571 115.854L772.753 110.285L777.111 76.628C777.111 76.628 770.245 72.6016 769.077 73.4041C767.91 74.2067 757.498 74.4488 757.498 74.4488Z" fill="#D0CDE1"/>
<path d="M743.697 80.5021L742.534 79.8788C742.534 79.8788 738.127 80.7442 738.37 84.1341C738.612 87.5239 739.58 106.41 739.58 106.41L735.706 140.551L742.728 141.762L749.75 113.19L743.697 80.5021Z" fill="#D0CDE1"/>
<path d="M776.385 77.3544L777.547 76.7311C777.547 76.7311 781.954 77.5965 781.711 80.9864C781.469 84.3762 780.501 103.263 780.501 103.263L784.375 137.404L777.353 138.614L770.331 110.042L776.385 77.3544Z" fill="#D0CDE1"/>
<path d="M747.813 112.222L746.844 126.992L743.697 156.532L748.297 217.792L764.278 218.276L759.435 159.922L764.278 139.825L780.107 139.238C780.107 139.238 781.227 116.096 772.268 108.832L747.813 112.222Z" fill="#2F2E41"/>
<path d="M765.246 136.435L762.704 189.825L761.856 216.823L776.143 218.276L779.747 138.878L774.205 133.287L765.246 136.435Z" fill="#2F2E41"/>
<path d="M762.825 46.3612C762.825 46.3612 753.382 45.1506 750.718 49.7511C750.718 49.7511 749.992 53.141 747.571 54.3516C745.149 55.5623 748.055 59.6786 748.781 60.8892C749.508 62.0999 751.445 69.1218 749.266 70.8167C747.086 72.5116 753.14 77.3543 753.14 77.3543C753.14 77.3543 756.045 81.2284 753.624 84.134C751.203 87.0396 756.772 88.0082 756.772 88.0082C756.772 88.0082 755.561 96.2407 757.74 94.0615C757.74 94.0615 758.709 112.706 767.91 101.083C777.111 89.461 780.985 83.8919 777.111 79.2914C773.237 74.6908 776.142 70.5746 776.142 70.5746C776.142 70.5746 777.353 68.1532 774.69 64.5212C772.026 60.8892 772.026 46.3612 762.825 46.3612Z" fill="#2F2E41"/>
<path d="M749.145 216.702C749.145 216.702 739.701 217.429 740.67 220.818C741.638 224.208 749.145 223.724 749.145 223.724C749.145 223.724 754.956 223.24 758.103 224.208C761.251 225.177 764.883 224.208 765.125 222.513C765.367 220.818 763.43 219.608 763.43 219.608L762.22 217.186L749.145 216.702Z" fill="#2F2E41"/>
</g>
</g>
<defs>
<clipPath id="clip0_14_914">
<rect width="832" height="224.593" fill="white"/>
</clipPath>
<clipPath id="clip1_14_914">
<rect width="500" height="58" fill="white" transform="translate(0 83.2965)"/>
</clipPath>
<clipPath id="clip2_14_914">
<rect width="300" height="224.593" fill="white" transform="translate(532)"/>
</clipPath>
</defs>
</svg>
