<svg width="159" height="40" viewBox="0 0 159 40" fill="none" xmlns="http://www.w3.org/2000/svg">
<rect width="159" height="40" rx="5" fill="#00BAFC"/>
<path d="M19.479 21.5176H16.6445V19.9136H19.479V17.0571H21.083V19.9136H23.9175V21.5176H21.083V24.3374H19.479V21.5176ZM32.6113 19.8623C32.6113 21.9717 32.167 23.5464 31.2783 24.5864C30.3896 25.6265 29.0444 26.1465 27.2427 26.1465C26.6079 26.1465 26.127 26.1123 25.7998 26.0439V24.2275C26.21 24.3301 26.6396 24.3813 27.0889 24.3813C27.8457 24.3813 28.4683 24.2715 28.9565 24.0518C29.4448 23.8271 29.8184 23.478 30.0771 23.0044C30.3359 22.5259 30.4849 21.8691 30.5239 21.0342H30.436C30.1528 21.4932 29.8257 21.8154 29.4546 22.001C29.0835 22.1865 28.6196 22.2793 28.063 22.2793C27.1304 22.2793 26.3955 21.9814 25.8584 21.3857C25.3213 20.7852 25.0527 19.9526 25.0527 18.8882C25.0527 17.7407 25.3774 16.835 26.0269 16.1709C26.6812 15.502 27.5698 15.1675 28.6929 15.1675C29.4839 15.1675 30.1748 15.353 30.7656 15.7241C31.3613 16.0952 31.8179 16.6348 32.1353 17.3428C32.4526 18.0459 32.6113 18.8857 32.6113 19.8623ZM28.7368 16.9839C28.2681 16.9839 27.9019 17.145 27.6382 17.4673C27.3745 17.7896 27.2427 18.2534 27.2427 18.8589C27.2427 19.3765 27.3623 19.7866 27.6016 20.0894C27.8408 20.3921 28.2046 20.5435 28.6929 20.5435C29.1519 20.5435 29.5449 20.3945 29.8721 20.0967C30.1992 19.7939 30.3628 19.4473 30.3628 19.0566C30.3628 18.4756 30.209 17.9849 29.9014 17.5845C29.5986 17.1841 29.2104 16.9839 28.7368 16.9839ZM41.1807 19.8623C41.1807 21.9717 40.7363 23.5464 39.8477 24.5864C38.959 25.6265 37.6138 26.1465 35.812 26.1465C35.1772 26.1465 34.6963 26.1123 34.3691 26.0439V24.2275C34.7793 24.3301 35.209 24.3813 35.6582 24.3813C36.415 24.3813 37.0376 24.2715 37.5259 24.0518C38.0142 23.8271 38.3877 23.478 38.6465 23.0044C38.9053 22.5259 39.0542 21.8691 39.0933 21.0342H39.0054C38.7222 21.4932 38.395 21.8154 38.0239 22.001C37.6528 22.1865 37.189 22.2793 36.6323 22.2793C35.6997 22.2793 34.9648 21.9814 34.4277 21.3857C33.8906 20.7852 33.6221 19.9526 33.6221 18.8882C33.6221 17.7407 33.9468 16.835 34.5962 16.1709C35.2505 15.502 36.1392 15.1675 37.2622 15.1675C38.0532 15.1675 38.7441 15.353 39.335 15.7241C39.9307 16.0952 40.3872 16.6348 40.7046 17.3428C41.022 18.0459 41.1807 18.8857 41.1807 19.8623ZM37.3062 16.9839C36.8374 16.9839 36.4712 17.145 36.2075 17.4673C35.9438 17.7896 35.812 18.2534 35.812 18.8589C35.812 19.3765 35.9316 19.7866 36.1709 20.0894C36.4102 20.3921 36.7739 20.5435 37.2622 20.5435C37.7212 20.5435 38.1143 20.3945 38.4414 20.0967C38.7686 19.7939 38.9321 19.4473 38.9321 19.0566C38.9321 18.4756 38.7783 17.9849 38.4707 17.5845C38.168 17.1841 37.7798 16.9839 37.3062 16.9839ZM46 15.1528C47.0254 15.1528 47.8506 15.3872 48.4756 15.856C49.1055 16.3198 49.4204 16.9473 49.4204 17.7383C49.4204 18.2852 49.269 18.7734 48.9663 19.2031C48.6636 19.6279 48.1753 20.0088 47.5015 20.3457C48.3022 20.7754 48.876 21.2246 49.2227 21.6934C49.5742 22.1572 49.75 22.6675 49.75 23.2241C49.75 24.103 49.4058 24.811 48.7173 25.3481C48.0288 25.8804 47.123 26.1465 46 26.1465C44.8281 26.1465 43.9077 25.8975 43.2388 25.3994C42.5698 24.9014 42.2354 24.1958 42.2354 23.2827C42.2354 22.6724 42.3965 22.1304 42.7188 21.6567C43.0459 21.1831 43.5684 20.7656 44.2861 20.4043C43.6758 20.0186 43.2363 19.606 42.9678 19.1665C42.6992 18.7271 42.5649 18.2461 42.5649 17.7236C42.5649 16.957 42.8823 16.3369 43.5171 15.8633C44.1519 15.3896 44.9795 15.1528 46 15.1528ZM44.3301 23.1509C44.3301 23.5708 44.4766 23.8979 44.7695 24.1323C45.0625 24.3667 45.4629 24.4839 45.9707 24.4839C46.5322 24.4839 46.9521 24.3643 47.2305 24.125C47.5088 23.8809 47.6479 23.561 47.6479 23.1655C47.6479 22.8384 47.5088 22.5332 47.2305 22.25C46.957 21.9619 46.5103 21.6567 45.8901 21.3345C44.8501 21.813 44.3301 22.4185 44.3301 23.1509ZM45.9854 16.8081C45.5996 16.8081 45.2871 16.9082 45.0479 17.1084C44.8135 17.3037 44.6963 17.5674 44.6963 17.8994C44.6963 18.1924 44.7891 18.4561 44.9746 18.6904C45.165 18.9199 45.5068 19.1567 46 19.4009C46.4785 19.1763 46.813 18.9468 47.0034 18.7124C47.1938 18.478 47.2891 18.207 47.2891 17.8994C47.2891 17.5625 47.167 17.2964 46.9229 17.1011C46.6787 16.9058 46.3662 16.8081 45.9854 16.8081ZM62.2158 19.8623C62.2158 21.9717 61.7715 23.5464 60.8828 24.5864C59.9941 25.6265 58.6489 26.1465 56.8472 26.1465C56.2124 26.1465 55.7314 26.1123 55.4043 26.0439V24.2275C55.8145 24.3301 56.2441 24.3813 56.6934 24.3813C57.4502 24.3813 58.0728 24.2715 58.561 24.0518C59.0493 23.8271 59.4229 23.478 59.6816 23.0044C59.9404 22.5259 60.0894 21.8691 60.1284 21.0342H60.0405C59.7573 21.4932 59.4302 21.8154 59.0591 22.001C58.688 22.1865 58.2241 22.2793 57.6675 22.2793C56.7349 22.2793 56 21.9814 55.4629 21.3857C54.9258 20.7852 54.6572 19.9526 54.6572 18.8882C54.6572 17.7407 54.9819 16.835 55.6313 16.1709C56.2856 15.502 57.1743 15.1675 58.2974 15.1675C59.0884 15.1675 59.7793 15.353 60.3701 15.7241C60.9658 16.0952 61.4224 16.6348 61.7397 17.3428C62.0571 18.0459 62.2158 18.8857 62.2158 19.8623ZM58.3413 16.9839C57.8726 16.9839 57.5063 17.145 57.2427 17.4673C56.979 17.7896 56.8472 18.2534 56.8472 18.8589C56.8472 19.3765 56.9668 19.7866 57.2061 20.0894C57.4453 20.3921 57.8091 20.5435 58.2974 20.5435C58.7563 20.5435 59.1494 20.3945 59.4766 20.0967C59.8037 19.7939 59.9673 19.4473 59.9673 19.0566C59.9673 18.4756 59.8135 17.9849 59.5059 17.5845C59.2031 17.1841 58.8149 16.9839 58.3413 16.9839ZM70.7705 20.646C70.7705 22.5161 70.4629 23.9004 69.8477 24.7988C69.2373 25.6973 68.2949 26.1465 67.0205 26.1465C65.7852 26.1465 64.8525 25.6826 64.2227 24.7549C63.5977 23.8271 63.2852 22.4575 63.2852 20.646C63.2852 18.7563 63.5903 17.3647 64.2007 16.4712C64.811 15.5728 65.751 15.1235 67.0205 15.1235C68.2559 15.1235 69.1885 15.5923 69.8184 16.5298C70.4531 17.4673 70.7705 18.8394 70.7705 20.646ZM65.5337 20.646C65.5337 21.9595 65.646 22.9019 65.8706 23.4731C66.1001 24.0396 66.4834 24.3228 67.0205 24.3228C67.5479 24.3228 67.9287 24.0347 68.1631 23.4585C68.3975 22.8823 68.5146 21.9448 68.5146 20.646C68.5146 19.3325 68.395 18.3901 68.1558 17.8188C67.9214 17.2427 67.543 16.9546 67.0205 16.9546C66.4883 16.9546 66.1074 17.2427 65.8779 17.8188C65.6484 18.3901 65.5337 19.3325 65.5337 20.646ZM83.251 19.8623C83.251 21.9717 82.8066 23.5464 81.918 24.5864C81.0293 25.6265 79.6841 26.1465 77.8823 26.1465C77.2476 26.1465 76.7666 26.1123 76.4395 26.0439V24.2275C76.8496 24.3301 77.2793 24.3813 77.7285 24.3813C78.4854 24.3813 79.1079 24.2715 79.5962 24.0518C80.0845 23.8271 80.458 23.478 80.7168 23.0044C80.9756 22.5259 81.1245 21.8691 81.1636 21.0342H81.0757C80.7925 21.4932 80.4653 21.8154 80.0942 22.001C79.7231 22.1865 79.2593 22.2793 78.7026 22.2793C77.77 22.2793 77.0352 21.9814 76.498 21.3857C75.9609 20.7852 75.6924 19.9526 75.6924 18.8882C75.6924 17.7407 76.0171 16.835 76.6665 16.1709C77.3208 15.502 78.2095 15.1675 79.3325 15.1675C80.1235 15.1675 80.8145 15.353 81.4053 15.7241C82.001 16.0952 82.4575 16.6348 82.7749 17.3428C83.0923 18.0459 83.251 18.8857 83.251 19.8623ZM79.3765 16.9839C78.9077 16.9839 78.5415 17.145 78.2778 17.4673C78.0142 17.7896 77.8823 18.2534 77.8823 18.8589C77.8823 19.3765 78.002 19.7866 78.2412 20.0894C78.4805 20.3921 78.8442 20.5435 79.3325 20.5435C79.7915 20.5435 80.1846 20.3945 80.5117 20.0967C80.8389 19.7939 81.0024 19.4473 81.0024 19.0566C81.0024 18.4756 80.8486 17.9849 80.541 17.5845C80.2383 17.1841 79.8501 16.9839 79.3765 16.9839ZM91.8643 26H84.3789V24.4253L87.0669 21.708C87.8628 20.8926 88.3828 20.3286 88.627 20.0161C88.8711 19.6987 89.0469 19.4058 89.1543 19.1372C89.2617 18.8687 89.3154 18.5903 89.3154 18.3022C89.3154 17.8726 89.1958 17.5527 88.9565 17.3428C88.7222 17.1328 88.4072 17.0278 88.0117 17.0278C87.5967 17.0278 87.1938 17.123 86.8032 17.3135C86.4126 17.5039 86.0049 17.7749 85.5801 18.1265L84.3496 16.6689C84.877 16.2197 85.314 15.9023 85.6606 15.7168C86.0073 15.5312 86.3857 15.3896 86.7959 15.292C87.2061 15.1895 87.665 15.1382 88.1729 15.1382C88.8418 15.1382 89.4326 15.2603 89.9453 15.5044C90.458 15.7485 90.856 16.0903 91.1392 16.5298C91.4224 16.9692 91.564 17.4722 91.564 18.0386C91.564 18.5317 91.4761 18.9956 91.3003 19.4302C91.1294 19.8599 90.8608 20.3018 90.4946 20.7559C90.1333 21.21 89.4937 21.8569 88.5757 22.6968L87.1987 23.9932V24.0957H91.8643V26ZM98.5439 26H96.2808V19.8037L96.3027 18.7856L96.3394 17.6724C95.9634 18.0483 95.7021 18.2949 95.5557 18.4121L94.3252 19.4009L93.2339 18.0386L96.6836 15.292H98.5439V26ZM112.482 17.687C112.482 18.356 112.279 18.9248 111.874 19.3936C111.469 19.8623 110.9 20.1846 110.167 20.3604V20.4043C111.032 20.5117 111.686 20.7754 112.13 21.1953C112.575 21.6104 112.797 22.1719 112.797 22.8799C112.797 23.9102 112.423 24.7134 111.676 25.2896C110.929 25.8608 109.862 26.1465 108.476 26.1465C107.313 26.1465 106.283 25.9536 105.385 25.5679V23.6416C105.8 23.8516 106.256 24.0225 106.754 24.1543C107.252 24.2861 107.746 24.3521 108.234 24.3521C108.981 24.3521 109.533 24.2251 109.889 23.9712C110.246 23.7173 110.424 23.3096 110.424 22.748C110.424 22.2451 110.219 21.8887 109.809 21.6787C109.398 21.4688 108.744 21.3638 107.846 21.3638H107.033V19.6279H107.86C108.69 19.6279 109.296 19.5205 109.677 19.3057C110.062 19.0859 110.255 18.7124 110.255 18.1851C110.255 17.3745 109.748 16.9692 108.732 16.9692C108.38 16.9692 108.021 17.0278 107.655 17.145C107.294 17.2622 106.891 17.4648 106.447 17.7529L105.399 16.1929C106.376 15.4897 107.541 15.1382 108.893 15.1382C110.001 15.1382 110.875 15.3628 111.515 15.812C112.16 16.2612 112.482 16.8862 112.482 17.687ZM115.045 26L119.066 17.2109H113.786V15.3066H121.469V16.7275L117.418 26H115.045ZM132.045 26H129.782V19.8037L129.804 18.7856L129.84 17.6724C129.464 18.0483 129.203 18.2949 129.057 18.4121L127.826 19.4009L126.735 18.0386L130.185 15.292H132.045V26ZM140.614 26H138.351V19.8037L138.373 18.7856L138.41 17.6724C138.034 18.0483 137.772 18.2949 137.626 18.4121L136.396 19.4009L135.304 18.0386L138.754 15.292H140.614V26Z" fill="white"/>
</svg>
