<svg width="832" height="278" viewBox="0 0 832 278" fill="none" xmlns="http://www.w3.org/2000/svg">
<g clip-path="url(#clip0_14_905)">
<path d="M18.1829 22.1398C13.3622 22.1453 8.74047 24.0627 5.3317 27.4715C1.92293 30.8802 0.00548312 35.5019 0 40.3227V249.8C0.00553034 254.621 1.92301 259.243 5.33177 262.651C8.74053 266.06 13.3622 267.978 18.1829 267.983H171.85C176.671 267.977 181.292 266.06 184.701 262.651C188.11 259.243 190.027 254.621 190.033 249.8V40.3227C190.027 35.502 188.11 30.8803 184.701 27.4715C181.292 24.0628 176.671 22.1453 171.85 22.1398H18.1829Z" fill="#3F3D56"/>
<path d="M180.577 35.0546H9.45551V255.068H180.577V35.0546Z" fill="white"/>
<path d="M158.207 74.491H31.8259V82.7934H158.207V74.491Z" fill="#00BAFC"/>
<path d="M158.207 96.6307H31.8259V104.933H158.207V96.6307Z" fill="#00BAFC"/>
<path d="M158.207 118.77H31.8259V127.073H158.207V118.77Z" fill="#00BAFC"/>
<path d="M158.207 140.91H31.8259V149.213H158.207V140.91Z" fill="#00BAFC"/>
<path d="M158.207 163.05H31.8259V171.352H158.207V163.05Z" fill="#00BAFC"/>
<path d="M158.207 185.19H31.8259V193.492H158.207V185.19Z" fill="#00BAFC"/>
<path d="M158.207 207.329H31.8259V215.632H158.207V207.329Z" fill="#00BAFC"/>
<path d="M159.986 21.1041L34.6673 44.0377L64.1534 205.162L189.472 182.228L159.986 21.1041Z" fill="#E6E6E6"/>
<path d="M148.889 52.9828L56.3352 69.9203L57.4479 76.0004L150.001 59.0629L148.889 52.9828Z" fill="#00BAFC"/>
<path d="M151.856 69.1965L59.3023 86.134L60.415 92.2142L152.968 75.2767L151.856 69.1965Z" fill="#00BAFC"/>
<path d="M154.823 85.4103L62.2695 102.348L63.3822 108.428L155.935 91.4904L154.823 85.4103Z" fill="#00BAFC"/>
<path d="M157.79 101.624L65.2366 118.562L66.3493 124.642L158.903 107.704L157.79 101.624Z" fill="#00BAFC"/>
<path d="M160.756 117.838L68.2027 134.775L69.3154 140.855L161.868 123.918L160.756 117.838Z" fill="#00BAFC"/>
<path d="M163.724 134.051L71.171 150.989L72.2836 157.069L164.837 140.132L163.724 134.051Z" fill="#00BAFC"/>
<path d="M166.691 150.265L74.1381 167.203L75.2508 173.283L167.804 156.345L166.691 150.265Z" fill="#00BAFC"/>
<path d="M248.688 197.361L213.229 203.85L221.572 249.441L257.031 242.952L248.688 197.361Z" fill="#E6E6E6"/>
<path d="M245.548 206.381L219.36 211.174L219.675 212.894L245.863 208.102L245.548 206.381Z" fill="white"/>
<path d="M246.388 210.969L220.199 215.762L220.514 217.482L246.703 212.69L246.388 210.969Z" fill="white"/>
<path d="M247.227 215.557L221.039 220.349L221.354 222.07L247.542 217.277L247.227 215.557Z" fill="white"/>
<path d="M248.067 220.145L221.879 224.937L222.193 226.658L248.382 221.865L248.067 220.145Z" fill="white"/>
<path d="M248.906 224.732L222.718 229.525L223.033 231.245L249.221 226.453L248.906 224.732Z" fill="white"/>
<path d="M249.746 229.32L223.558 234.113L223.873 235.833L250.061 231.041L249.746 229.32Z" fill="white"/>
<path d="M250.586 233.908L224.397 238.7L224.712 240.421L250.9 235.628L250.586 233.908Z" fill="white"/>
<path d="M126.701 11.5311H111.621V8.44404C111.621 6.20454 110.732 4.05677 109.148 2.4732C107.564 0.889637 105.417 0 103.177 0H86.8556C84.6161 2.01297e-06 82.4683 0.88964 80.8848 2.4732C79.3012 4.05677 78.4116 6.20454 78.4116 8.44404V11.5311H63.3321C62.2232 11.5311 61.1252 11.7495 60.1007 12.1739C59.0762 12.5982 58.1454 13.2202 57.3613 14.0043C56.5772 14.7884 55.9552 15.7193 55.5309 16.7438C55.1065 17.7682 54.8881 18.8663 54.8881 19.9751V43.357H135.145V19.9751C135.145 18.8663 134.926 17.7682 134.502 16.7438C134.077 15.7193 133.456 14.7884 132.671 14.0043C131.887 13.2202 130.956 12.5982 129.932 12.1739C128.907 11.7495 127.809 11.5311 126.701 11.5311Z" fill="#3F3D56"/>
<path d="M89.6033 239.069C92.0965 237.363 94.659 235.588 97.6197 234.813C100.321 234.105 103.423 234.292 105.559 236.27C107.284 237.866 108.012 240.32 106.734 242.42C106.46 242.899 106.088 243.314 105.641 243.639C105.195 243.964 104.685 244.19 104.145 244.304C103.623 244.372 103.092 244.308 102.602 244.117C102.112 243.925 101.678 243.612 101.341 243.208C100.671 242.468 100.27 241.374 100.626 240.398C101.001 239.372 102.002 238.745 102.985 238.395C104.13 238.032 105.309 237.789 106.503 237.668L111.396 236.998L131.421 234.257L153.723 231.204C153.899 231.154 154.048 231.037 154.139 230.877C154.229 230.718 154.253 230.53 154.206 230.353C154.153 230.178 154.035 230.031 153.877 229.941C153.719 229.851 153.532 229.825 153.355 229.869L108.98 235.944C107.375 236.164 105.747 236.321 104.159 236.644C102.908 236.846 101.723 237.339 100.697 238.082C98.5714 239.765 98.7233 242.742 100.679 244.502C102.66 246.285 105.531 245.978 107.269 244.009C108.147 243.013 108.669 241.752 108.751 240.427C108.833 239.101 108.471 237.785 107.722 236.688C105.825 233.828 102.368 232.729 99.0653 233.135C95.2456 233.604 92.0073 235.751 88.9049 237.874C88.1745 238.374 88.8658 239.574 89.6033 239.069Z" fill="#3F3D56"/>
<path d="M245.308 187.788L245.77 192.401C245.77 192.401 243.002 202.548 248.998 202.548C254.994 202.548 250.382 192.401 250.382 192.401L250.843 188.711L245.308 187.788Z" fill="#A0616A"/>
<path d="M287.203 172.421L285.087 176.546C285.087 176.546 277.254 183.566 282.29 186.82C287.326 190.075 288.96 179.049 288.96 179.049L291.351 176.201L287.203 172.421Z" fill="#A0616A"/>
<path d="M252.688 191.939L259.146 235.758L262.374 267.122C262.374 267.122 265.142 274.041 274.367 268.045L272.983 250.056L272.06 233.913C272.06 233.913 271.138 218.23 270.216 215.463C269.293 212.695 270.677 203.471 270.677 203.471L274.367 188.25L252.688 191.939Z" fill="#2F2E41"/>
<path d="M263.297 266.2L259.607 270.351C259.607 270.351 254.072 268.506 252.688 272.196C251.305 275.886 263.297 276.808 263.297 276.808C263.297 276.808 275.75 277.731 275.75 276.808C275.75 275.886 275.417 268.831 273.739 268.438C272.061 268.045 263.297 266.2 263.297 266.2Z" fill="#2F2E41"/>
<path d="M270.215 189.633L276.673 235.758L279.902 267.122C279.902 267.122 282.669 274.041 291.894 268.045L290.51 250.056L289.588 233.913C289.588 233.913 288.665 218.23 287.743 215.463C286.82 212.695 288.204 203.471 288.204 203.471L287.282 186.405L270.215 189.633Z" fill="#2F2E41"/>
<path d="M280.824 266.2L277.134 270.351C277.134 270.351 271.599 268.506 270.216 272.196C268.832 275.886 280.824 276.808 280.824 276.808C280.824 276.808 293.278 277.731 293.278 276.808C293.278 275.886 292.944 268.831 291.266 268.438C289.588 268.045 280.824 266.2 280.824 266.2Z" fill="#2F2E41"/>
<path d="M256.378 116.757C261.728 116.757 266.064 112.42 266.064 107.071C266.064 101.721 261.728 97.3844 256.378 97.3844C251.029 97.3844 246.692 101.721 246.692 107.071C246.692 112.42 251.029 116.757 256.378 116.757Z" fill="#A0616A"/>
<path d="M263.527 111.452L267.679 118.371L257.07 122.983L255.686 114.681L263.527 111.452Z" fill="#A0616A"/>
<path d="M268.832 117.679C268.832 117.679 259.146 116.757 255.456 122.753L246.352 129.672C245.615 130.232 245.039 130.977 244.683 131.832C244.327 132.687 244.203 133.621 244.325 134.539L252.227 194.246L263.758 193.784L282.669 190.094L288.204 188.711L285.437 164.265C285.437 164.265 282.208 154.579 285.898 148.121L284.053 125.52L271.138 120.447L268.832 117.679Z" fill="#575A89"/>
<path d="M247.153 131.517L246.461 130.363C246.461 130.363 245.539 130.363 245.539 132.208C245.539 134.053 243.925 173.951 243.925 173.951L243.463 189.172L252.227 190.095L255.456 161.497L254.072 142.586L247.153 131.517Z" fill="#575A89"/>
<path d="M277.595 124.598L284.053 125.52C286.569 128.155 288.739 131.1 290.51 134.284C293.278 139.358 301.58 149.044 299.735 156.424C297.89 163.804 292.355 177.18 292.355 177.18L283.592 173.49C283.592 173.49 290.51 157.346 290.049 155.963C289.588 154.579 284.053 146.276 284.053 146.276L277.595 124.598Z" fill="#575A89"/>
<path d="M249.69 101.766C249.69 101.766 241.849 101.305 246.923 96.2313C246.923 96.2313 251.074 94.3863 252.919 95.3088C252.919 95.3088 255.686 93.4638 255.686 94.3863C255.686 94.3863 265.372 91.6189 266.756 101.305C268.14 110.991 265.834 115.604 265.834 115.604L259.376 115.142C259.376 115.142 260.76 107.301 255.686 108.224C255.686 108.224 251.535 109.607 251.074 108.224C250.613 106.84 249.69 101.766 249.69 101.766Z" fill="#2F2E41"/>
<path opacity="0.2" d="M253.38 189.403L257.531 161.728L254.764 144.662L255.686 163.225L252.919 189.403H253.38Z" fill="black"/>
</g>
<path d="M339.729 119H336.701V107.242H332.824V104.723H343.605V107.242H339.729V119ZM352.502 119L351.926 117.516H351.848C351.346 118.147 350.829 118.587 350.295 118.834C349.768 119.075 349.077 119.195 348.225 119.195C347.176 119.195 346.35 118.896 345.744 118.297C345.145 117.698 344.846 116.845 344.846 115.738C344.846 114.579 345.249 113.727 346.057 113.18C346.87 112.626 348.094 112.32 349.729 112.262L351.623 112.203V111.725C351.623 110.618 351.057 110.064 349.924 110.064C349.051 110.064 348.026 110.328 346.848 110.855L345.861 108.844C347.118 108.186 348.511 107.857 350.041 107.857C351.506 107.857 352.629 108.176 353.41 108.814C354.191 109.452 354.582 110.423 354.582 111.725V119H352.502ZM351.623 113.941L350.471 113.98C349.605 114.007 348.96 114.163 348.537 114.449C348.114 114.736 347.902 115.172 347.902 115.758C347.902 116.598 348.384 117.018 349.348 117.018C350.038 117.018 350.588 116.819 350.998 116.422C351.415 116.025 351.623 115.497 351.623 114.84V113.941ZM360.637 119H357.658V103.805H360.637V119ZM370.705 119L370.129 117.516H370.051C369.549 118.147 369.032 118.587 368.498 118.834C367.971 119.075 367.281 119.195 366.428 119.195C365.38 119.195 364.553 118.896 363.947 118.297C363.348 117.698 363.049 116.845 363.049 115.738C363.049 114.579 363.452 113.727 364.26 113.18C365.074 112.626 366.298 112.32 367.932 112.262L369.826 112.203V111.725C369.826 110.618 369.26 110.064 368.127 110.064C367.255 110.064 366.229 110.328 365.051 110.855L364.064 108.844C365.321 108.186 366.714 107.857 368.244 107.857C369.709 107.857 370.832 108.176 371.613 108.814C372.395 109.452 372.785 110.423 372.785 111.725V119H370.705ZM369.826 113.941L368.674 113.98C367.808 114.007 367.163 114.163 366.74 114.449C366.317 114.736 366.105 115.172 366.105 115.758C366.105 116.598 366.587 117.018 367.551 117.018C368.241 117.018 368.791 116.819 369.201 116.422C369.618 116.025 369.826 115.497 369.826 114.84V113.941ZM381.936 107.877C383.225 107.877 384.234 108.382 384.963 109.391C385.692 110.393 386.057 111.77 386.057 113.521C386.057 115.325 385.679 116.721 384.924 117.711C384.175 118.701 383.153 119.195 381.857 119.195C380.575 119.195 379.569 118.73 378.84 117.799H378.635L378.137 119H375.861V103.805H378.84V107.34C378.84 107.789 378.801 108.508 378.723 109.498H378.84C379.536 108.417 380.568 107.877 381.936 107.877ZM380.979 110.26C380.243 110.26 379.706 110.488 379.367 110.943C379.029 111.393 378.853 112.138 378.84 113.18V113.502C378.84 114.674 379.012 115.514 379.357 116.021C379.709 116.529 380.262 116.783 381.018 116.783C381.63 116.783 382.115 116.503 382.473 115.943C382.837 115.377 383.02 114.557 383.02 113.482C383.02 112.408 382.837 111.604 382.473 111.07C382.108 110.53 381.61 110.26 380.979 110.26ZM391.496 119H388.518V103.805H391.496V119ZM401.564 119L400.988 117.516H400.91C400.409 118.147 399.891 118.587 399.357 118.834C398.83 119.075 398.14 119.195 397.287 119.195C396.239 119.195 395.412 118.896 394.807 118.297C394.208 117.698 393.908 116.845 393.908 115.738C393.908 114.579 394.312 113.727 395.119 113.18C395.933 112.626 397.157 112.32 398.791 112.262L400.686 112.203V111.725C400.686 110.618 400.119 110.064 398.986 110.064C398.114 110.064 397.089 110.328 395.91 110.855L394.924 108.844C396.18 108.186 397.574 107.857 399.104 107.857C400.568 107.857 401.691 108.176 402.473 108.814C403.254 109.452 403.645 110.423 403.645 111.725V119H401.564ZM400.686 113.941L399.533 113.98C398.667 114.007 398.023 114.163 397.6 114.449C397.176 114.736 396.965 115.172 396.965 115.758C396.965 116.598 397.447 117.018 398.41 117.018C399.1 117.018 399.65 116.819 400.061 116.422C400.477 116.025 400.686 115.497 400.686 114.84V113.941ZM412.814 107.877C413.218 107.877 413.553 107.906 413.82 107.965L413.596 110.758C413.355 110.693 413.062 110.66 412.717 110.66C411.766 110.66 411.024 110.904 410.49 111.393C409.963 111.881 409.699 112.564 409.699 113.443V119H406.721V108.082H408.977L409.416 109.918H409.562C409.901 109.306 410.357 108.814 410.93 108.443C411.509 108.066 412.137 107.877 412.814 107.877ZM425.881 119H422.902V112.623C422.902 111.835 422.762 111.246 422.482 110.855C422.202 110.458 421.757 110.26 421.145 110.26C420.311 110.26 419.709 110.54 419.338 111.1C418.967 111.653 418.781 112.574 418.781 113.863V119H415.803V108.082H418.078L418.479 109.479H418.645C418.977 108.951 419.432 108.554 420.012 108.287C420.598 108.014 421.262 107.877 422.004 107.877C423.273 107.877 424.237 108.222 424.895 108.912C425.552 109.596 425.881 110.585 425.881 111.881V119ZM428.82 105.26C428.82 104.29 429.361 103.805 430.441 103.805C431.522 103.805 432.062 104.29 432.062 105.26C432.062 105.722 431.926 106.083 431.652 106.344C431.385 106.598 430.982 106.725 430.441 106.725C429.361 106.725 428.82 106.236 428.82 105.26ZM431.926 119H428.947V108.082H431.926V119ZM447.189 119L446.613 117.516H446.535C446.034 118.147 445.516 118.587 444.982 118.834C444.455 119.075 443.765 119.195 442.912 119.195C441.864 119.195 441.037 118.896 440.432 118.297C439.833 117.698 439.533 116.845 439.533 115.738C439.533 114.579 439.937 113.727 440.744 113.18C441.558 112.626 442.782 112.32 444.416 112.262L446.311 112.203V111.725C446.311 110.618 445.744 110.064 444.611 110.064C443.739 110.064 442.714 110.328 441.535 110.855L440.549 108.844C441.805 108.186 443.199 107.857 444.729 107.857C446.193 107.857 447.316 108.176 448.098 108.814C448.879 109.452 449.27 110.423 449.27 111.725V119H447.189ZM446.311 113.941L445.158 113.98C444.292 114.007 443.648 114.163 443.225 114.449C442.801 114.736 442.59 115.172 442.59 115.758C442.59 116.598 443.072 117.018 444.035 117.018C444.725 117.018 445.275 116.819 445.686 116.422C446.102 116.025 446.311 115.497 446.311 114.84V113.941ZM462.424 119H459.445V112.623C459.445 111.835 459.305 111.246 459.025 110.855C458.745 110.458 458.299 110.26 457.688 110.26C456.854 110.26 456.252 110.54 455.881 111.1C455.51 111.653 455.324 112.574 455.324 113.863V119H452.346V108.082H454.621L455.021 109.479H455.188C455.52 108.951 455.975 108.554 456.555 108.287C457.141 108.014 457.805 107.877 458.547 107.877C459.816 107.877 460.78 108.222 461.438 108.912C462.095 109.596 462.424 110.585 462.424 111.881V119ZM465.363 105.26C465.363 104.29 465.904 103.805 466.984 103.805C468.065 103.805 468.605 104.29 468.605 105.26C468.605 105.722 468.469 106.083 468.195 106.344C467.928 106.598 467.525 106.725 466.984 106.725C465.904 106.725 465.363 106.236 465.363 105.26ZM468.469 119H465.49V108.082H468.469V119ZM476.125 116.861C476.88 116.861 477.434 116.646 477.785 116.217C478.137 115.781 478.329 115.022 478.361 113.941V113.58C478.361 112.408 478.179 111.568 477.814 111.061C477.456 110.553 476.877 110.299 476.076 110.299C474.676 110.299 473.977 111.399 473.977 113.6C473.977 114.693 474.149 115.51 474.494 116.051C474.846 116.591 475.389 116.861 476.125 116.861ZM475.061 119.195C473.771 119.195 472.762 118.701 472.033 117.711C471.304 116.715 470.939 115.331 470.939 113.561C470.939 111.777 471.311 110.383 472.053 109.381C472.801 108.378 473.824 107.877 475.119 107.877C475.809 107.877 476.411 108.007 476.926 108.268C477.44 108.528 477.893 108.932 478.283 109.479H478.361L478.625 108.082H481.145V123.805H478.156V119.225C478.156 118.827 478.199 118.281 478.283 117.584H478.156C477.837 118.111 477.414 118.512 476.887 118.785C476.359 119.059 475.751 119.195 475.061 119.195ZM487.238 119H484.26V103.805H487.238V119ZM497.307 119L496.73 117.516H496.652C496.151 118.147 495.633 118.587 495.1 118.834C494.572 119.075 493.882 119.195 493.029 119.195C491.981 119.195 491.154 118.896 490.549 118.297C489.95 117.698 489.65 116.845 489.65 115.738C489.65 114.579 490.054 113.727 490.861 113.18C491.675 112.626 492.899 112.32 494.533 112.262L496.428 112.203V111.725C496.428 110.618 495.861 110.064 494.729 110.064C493.856 110.064 492.831 110.328 491.652 110.855L490.666 108.844C491.923 108.186 493.316 107.857 494.846 107.857C496.311 107.857 497.434 108.176 498.215 108.814C498.996 109.452 499.387 110.423 499.387 111.725V119H497.307ZM496.428 113.941L495.275 113.98C494.41 114.007 493.765 114.163 493.342 114.449C492.919 114.736 492.707 115.172 492.707 115.758C492.707 116.598 493.189 117.018 494.152 117.018C494.842 117.018 495.393 116.819 495.803 116.422C496.219 116.025 496.428 115.497 496.428 114.84V113.941ZM508.537 107.877C509.826 107.877 510.835 108.382 511.564 109.391C512.294 110.393 512.658 111.77 512.658 113.521C512.658 115.325 512.281 116.721 511.525 117.711C510.777 118.701 509.755 119.195 508.459 119.195C507.176 119.195 506.171 118.73 505.441 117.799H505.236L504.738 119H502.463V103.805H505.441V107.34C505.441 107.789 505.402 108.508 505.324 109.498H505.441C506.138 108.417 507.17 107.877 508.537 107.877ZM507.58 110.26C506.844 110.26 506.307 110.488 505.969 110.943C505.63 111.393 505.454 112.138 505.441 113.18V113.502C505.441 114.674 505.614 115.514 505.959 116.021C506.311 116.529 506.864 116.783 507.619 116.783C508.231 116.783 508.716 116.503 509.074 115.943C509.439 115.377 509.621 114.557 509.621 113.482C509.621 112.408 509.439 111.604 509.074 111.07C508.71 110.53 508.212 110.26 507.58 110.26ZM524.748 119.195C521.35 119.195 519.65 117.33 519.65 113.6C519.65 111.744 520.113 110.328 521.037 109.352C521.962 108.368 523.286 107.877 525.012 107.877C526.275 107.877 527.408 108.124 528.41 108.619L527.531 110.924C527.062 110.735 526.626 110.582 526.223 110.465C525.819 110.341 525.415 110.279 525.012 110.279C523.462 110.279 522.688 111.38 522.688 113.58C522.688 115.715 523.462 116.783 525.012 116.783C525.585 116.783 526.115 116.708 526.604 116.559C527.092 116.402 527.58 116.161 528.068 115.836V118.385C527.587 118.691 527.098 118.902 526.604 119.02C526.115 119.137 525.497 119.195 524.748 119.195ZM540.686 119H537.707V112.623C537.707 111.048 537.121 110.26 535.949 110.26C535.116 110.26 534.514 110.543 534.143 111.109C533.771 111.676 533.586 112.594 533.586 113.863V119H530.607V103.805H533.586V106.9C533.586 107.141 533.563 107.708 533.518 108.6L533.449 109.479H533.605C534.27 108.411 535.324 107.877 536.77 107.877C538.052 107.877 539.025 108.222 539.689 108.912C540.354 109.602 540.686 110.592 540.686 111.881V119ZM543.625 105.26C543.625 104.29 544.165 103.805 545.246 103.805C546.327 103.805 546.867 104.29 546.867 105.26C546.867 105.722 546.73 106.083 546.457 106.344C546.19 106.598 545.786 106.725 545.246 106.725C544.165 106.725 543.625 106.236 543.625 105.26ZM546.73 119H543.752V108.082H546.73V119ZM554.387 116.861C555.142 116.861 555.695 116.646 556.047 116.217C556.398 115.781 556.59 115.022 556.623 113.941V113.58C556.623 112.408 556.441 111.568 556.076 111.061C555.718 110.553 555.139 110.299 554.338 110.299C552.938 110.299 552.238 111.399 552.238 113.6C552.238 114.693 552.411 115.51 552.756 116.051C553.107 116.591 553.651 116.861 554.387 116.861ZM553.322 119.195C552.033 119.195 551.024 118.701 550.295 117.711C549.566 116.715 549.201 115.331 549.201 113.561C549.201 111.777 549.572 110.383 550.314 109.381C551.063 108.378 552.085 107.877 553.381 107.877C554.071 107.877 554.673 108.007 555.188 108.268C555.702 108.528 556.154 108.932 556.545 109.479H556.623L556.887 108.082H559.406V123.805H556.418V119.225C556.418 118.827 556.46 118.281 556.545 117.584H556.418C556.099 118.111 555.676 118.512 555.148 118.785C554.621 119.059 554.012 119.195 553.322 119.195ZM569.455 119L568.879 117.516H568.801C568.299 118.147 567.782 118.587 567.248 118.834C566.721 119.075 566.031 119.195 565.178 119.195C564.13 119.195 563.303 118.896 562.697 118.297C562.098 117.698 561.799 116.845 561.799 115.738C561.799 114.579 562.202 113.727 563.01 113.18C563.824 112.626 565.048 112.32 566.682 112.262L568.576 112.203V111.725C568.576 110.618 568.01 110.064 566.877 110.064C566.005 110.064 564.979 110.328 563.801 110.855L562.814 108.844C564.071 108.186 565.464 107.857 566.994 107.857C568.459 107.857 569.582 108.176 570.363 108.814C571.145 109.452 571.535 110.423 571.535 111.725V119H569.455ZM568.576 113.941L567.424 113.98C566.558 114.007 565.913 114.163 565.49 114.449C565.067 114.736 564.855 115.172 564.855 115.758C564.855 116.598 565.337 117.018 566.301 117.018C566.991 117.018 567.541 116.819 567.951 116.422C568.368 116.025 568.576 115.497 568.576 114.84V113.941ZM584.387 119H581.408V112.623C581.408 111.835 581.275 111.246 581.008 110.855C580.747 110.458 580.334 110.26 579.768 110.26C579.006 110.26 578.452 110.54 578.107 111.1C577.762 111.66 577.59 112.581 577.59 113.863V119H574.611V108.082H576.887L577.287 109.479H577.453C577.746 108.977 578.169 108.587 578.723 108.307C579.276 108.02 579.911 107.877 580.627 107.877C582.261 107.877 583.368 108.411 583.947 109.479H584.211C584.504 108.971 584.934 108.577 585.5 108.297C586.073 108.017 586.717 107.877 587.434 107.877C588.671 107.877 589.605 108.196 590.236 108.834C590.874 109.465 591.193 110.481 591.193 111.881V119H588.205V112.623C588.205 111.835 588.072 111.246 587.805 110.855C587.544 110.458 587.131 110.26 586.564 110.26C585.835 110.26 585.288 110.52 584.924 111.041C584.566 111.562 584.387 112.389 584.387 113.521V119ZM594.133 105.26C594.133 104.29 594.673 103.805 595.754 103.805C596.835 103.805 597.375 104.29 597.375 105.26C597.375 105.722 597.238 106.083 596.965 106.344C596.698 106.598 596.294 106.725 595.754 106.725C594.673 106.725 594.133 106.236 594.133 105.26ZM597.238 119H594.26V108.082H597.238V119ZM607.971 119H599.348V117.242L604.406 110.357H599.65V108.082H607.795V110.016L602.873 116.725H607.971V119Z" fill="black"/>
<path d="M345.992 150H344.477L338.234 140.414H338.172C338.255 141.539 338.297 142.57 338.297 143.508V150H337.07V138.578H338.57L344.797 148.125H344.859C344.849 147.984 344.826 147.534 344.789 146.773C344.753 146.008 344.74 145.461 344.75 145.133V138.578H345.992V150ZM350.156 141.438V146.992C350.156 147.69 350.315 148.211 350.633 148.555C350.951 148.898 351.448 149.07 352.125 149.07C353.021 149.07 353.674 148.826 354.086 148.336C354.503 147.846 354.711 147.047 354.711 145.938V141.438H356.008V150H354.938L354.75 148.852H354.68C354.414 149.273 354.044 149.596 353.57 149.82C353.102 150.044 352.565 150.156 351.961 150.156C350.919 150.156 350.138 149.909 349.617 149.414C349.102 148.919 348.844 148.128 348.844 147.039V141.438H350.156ZM360.062 150H358.766V137.844H360.062V150ZM364.109 150H362.812V137.844H364.109V150ZM372.125 150L371.867 148.781H371.805C371.378 149.318 370.951 149.682 370.523 149.875C370.102 150.062 369.573 150.156 368.938 150.156C368.089 150.156 367.422 149.938 366.938 149.5C366.458 149.062 366.219 148.44 366.219 147.633C366.219 145.904 367.602 144.997 370.367 144.914L371.82 144.867V144.336C371.82 143.664 371.674 143.169 371.383 142.852C371.096 142.529 370.635 142.367 370 142.367C369.286 142.367 368.479 142.586 367.578 143.023L367.18 142.031C367.602 141.802 368.062 141.622 368.562 141.492C369.068 141.362 369.573 141.297 370.078 141.297C371.099 141.297 371.854 141.523 372.344 141.977C372.839 142.43 373.086 143.156 373.086 144.156V150H372.125ZM369.195 149.086C370.003 149.086 370.635 148.865 371.094 148.422C371.557 147.979 371.789 147.359 371.789 146.562V145.789L370.492 145.844C369.461 145.88 368.716 146.042 368.258 146.328C367.805 146.609 367.578 147.049 367.578 147.648C367.578 148.117 367.719 148.474 368 148.719C368.286 148.964 368.685 149.086 369.195 149.086ZM386.68 150V144.43C386.68 143.747 386.534 143.237 386.242 142.898C385.951 142.555 385.497 142.383 384.883 142.383C384.076 142.383 383.479 142.615 383.094 143.078C382.708 143.542 382.516 144.255 382.516 145.219V150H381.219V144.43C381.219 143.747 381.073 143.237 380.781 142.898C380.49 142.555 380.034 142.383 379.414 142.383C378.602 142.383 378.005 142.628 377.625 143.117C377.25 143.602 377.062 144.398 377.062 145.508V150H375.766V141.438H376.82L377.031 142.609H377.094C377.339 142.193 377.682 141.867 378.125 141.633C378.573 141.398 379.073 141.281 379.625 141.281C380.964 141.281 381.839 141.766 382.25 142.734H382.312C382.568 142.286 382.938 141.932 383.422 141.672C383.906 141.411 384.458 141.281 385.078 141.281C386.047 141.281 386.771 141.531 387.25 142.031C387.734 142.526 387.977 143.32 387.977 144.414V150H386.68ZM396.109 150H394.812V137.844H396.109V150ZM404.125 150L403.867 148.781H403.805C403.378 149.318 402.951 149.682 402.523 149.875C402.102 150.062 401.573 150.156 400.938 150.156C400.089 150.156 399.422 149.938 398.938 149.5C398.458 149.062 398.219 148.44 398.219 147.633C398.219 145.904 399.602 144.997 402.367 144.914L403.82 144.867V144.336C403.82 143.664 403.674 143.169 403.383 142.852C403.096 142.529 402.635 142.367 402 142.367C401.286 142.367 400.479 142.586 399.578 143.023L399.18 142.031C399.602 141.802 400.062 141.622 400.562 141.492C401.068 141.362 401.573 141.297 402.078 141.297C403.099 141.297 403.854 141.523 404.344 141.977C404.839 142.43 405.086 143.156 405.086 144.156V150H404.125ZM401.195 149.086C402.003 149.086 402.635 148.865 403.094 148.422C403.557 147.979 403.789 147.359 403.789 146.562V145.789L402.492 145.844C401.461 145.88 400.716 146.042 400.258 146.328C399.805 146.609 399.578 147.049 399.578 147.648C399.578 148.117 399.719 148.474 400 148.719C400.286 148.964 400.685 149.086 401.195 149.086ZM415.156 145.711C415.156 147.107 414.805 148.198 414.102 148.984C413.398 149.766 412.427 150.156 411.188 150.156C410.422 150.156 409.742 149.977 409.148 149.617C408.555 149.258 408.096 148.742 407.773 148.07C407.451 147.398 407.289 146.612 407.289 145.711C407.289 144.315 407.638 143.229 408.336 142.453C409.034 141.672 410.003 141.281 411.242 141.281C412.44 141.281 413.391 141.68 414.094 142.477C414.802 143.273 415.156 144.352 415.156 145.711ZM408.633 145.711C408.633 146.805 408.852 147.638 409.289 148.211C409.727 148.784 410.37 149.07 411.219 149.07C412.068 149.07 412.711 148.786 413.148 148.219C413.591 147.646 413.812 146.81 413.812 145.711C413.812 144.622 413.591 143.797 413.148 143.234C412.711 142.667 412.062 142.383 411.203 142.383C410.354 142.383 409.714 142.661 409.281 143.219C408.849 143.776 408.633 144.607 408.633 145.711ZM421.344 141.281C421.724 141.281 422.065 141.312 422.367 141.375L422.188 142.578C421.833 142.5 421.521 142.461 421.25 142.461C420.557 142.461 419.964 142.742 419.469 143.305C418.979 143.867 418.734 144.568 418.734 145.406V150H417.438V141.438H418.508L418.656 143.023H418.719C419.036 142.466 419.419 142.036 419.867 141.734C420.315 141.432 420.807 141.281 421.344 141.281ZM427.586 150.156C426.32 150.156 425.32 149.771 424.586 149C423.857 148.229 423.492 147.159 423.492 145.789C423.492 144.409 423.831 143.312 424.508 142.5C425.19 141.688 426.104 141.281 427.25 141.281C428.323 141.281 429.172 141.635 429.797 142.344C430.422 143.047 430.734 143.977 430.734 145.133V145.953H424.836C424.862 146.958 425.115 147.721 425.594 148.242C426.078 148.763 426.758 149.023 427.633 149.023C428.555 149.023 429.466 148.831 430.367 148.445V149.602C429.909 149.799 429.474 149.94 429.062 150.023C428.656 150.112 428.164 150.156 427.586 150.156ZM427.234 142.367C426.547 142.367 425.997 142.591 425.586 143.039C425.18 143.487 424.94 144.107 424.867 144.898H429.344C429.344 144.081 429.161 143.456 428.797 143.023C428.432 142.586 427.911 142.367 427.234 142.367ZM436.57 150.156C435.305 150.156 434.305 149.771 433.57 149C432.841 148.229 432.477 147.159 432.477 145.789C432.477 144.409 432.815 143.312 433.492 142.5C434.174 141.688 435.089 141.281 436.234 141.281C437.307 141.281 438.156 141.635 438.781 142.344C439.406 143.047 439.719 143.977 439.719 145.133V145.953H433.82C433.846 146.958 434.099 147.721 434.578 148.242C435.062 148.763 435.742 149.023 436.617 149.023C437.539 149.023 438.451 148.831 439.352 148.445V149.602C438.893 149.799 438.458 149.94 438.047 150.023C437.641 150.112 437.148 150.156 436.57 150.156ZM436.219 142.367C435.531 142.367 434.982 142.591 434.57 143.039C434.164 143.487 433.924 144.107 433.852 144.898H438.328C438.328 144.081 438.146 143.456 437.781 143.023C437.417 142.586 436.896 142.367 436.219 142.367ZM444.703 149.086C444.932 149.086 445.154 149.07 445.367 149.039C445.581 149.003 445.75 148.966 445.875 148.93V149.922C445.734 149.99 445.526 150.044 445.25 150.086C444.979 150.133 444.734 150.156 444.516 150.156C442.859 150.156 442.031 149.284 442.031 147.539V142.445H440.805V141.82L442.031 141.281L442.578 139.453H443.328V141.438H445.812V142.445H443.328V147.484C443.328 148 443.451 148.396 443.695 148.672C443.94 148.948 444.276 149.086 444.703 149.086ZM457.609 150V144.461C457.609 143.763 457.451 143.242 457.133 142.898C456.815 142.555 456.318 142.383 455.641 142.383C454.745 142.383 454.089 142.625 453.672 143.109C453.255 143.594 453.047 144.393 453.047 145.508V150H451.75V141.438H452.805L453.016 142.609H453.078C453.344 142.188 453.716 141.862 454.195 141.633C454.674 141.398 455.208 141.281 455.797 141.281C456.828 141.281 457.604 141.531 458.125 142.031C458.646 142.526 458.906 143.32 458.906 144.414V150H457.609ZM465.195 150.156C463.93 150.156 462.93 149.771 462.195 149C461.466 148.229 461.102 147.159 461.102 145.789C461.102 144.409 461.44 143.312 462.117 142.5C462.799 141.688 463.714 141.281 464.859 141.281C465.932 141.281 466.781 141.635 467.406 142.344C468.031 143.047 468.344 143.977 468.344 145.133V145.953H462.445C462.471 146.958 462.724 147.721 463.203 148.242C463.688 148.763 464.367 149.023 465.242 149.023C466.164 149.023 467.076 148.831 467.977 148.445V149.602C467.518 149.799 467.083 149.94 466.672 150.023C466.266 150.112 465.773 150.156 465.195 150.156ZM464.844 142.367C464.156 142.367 463.607 142.591 463.195 143.039C462.789 143.487 462.549 144.107 462.477 144.898H466.953C466.953 144.081 466.771 143.456 466.406 143.023C466.042 142.586 465.521 142.367 464.844 142.367ZM473.984 150.156C472.745 150.156 471.784 149.776 471.102 149.016C470.424 148.25 470.086 147.169 470.086 145.773C470.086 144.341 470.43 143.234 471.117 142.453C471.81 141.672 472.794 141.281 474.07 141.281C474.482 141.281 474.893 141.326 475.305 141.414C475.716 141.503 476.039 141.607 476.273 141.727L475.875 142.828C475.589 142.714 475.276 142.62 474.938 142.547C474.599 142.469 474.299 142.43 474.039 142.43C472.299 142.43 471.43 143.539 471.43 145.758C471.43 146.81 471.641 147.617 472.062 148.18C472.49 148.742 473.12 149.023 473.953 149.023C474.667 149.023 475.398 148.87 476.148 148.562V149.711C475.576 150.008 474.854 150.156 473.984 150.156ZM485.109 149.086C485.339 149.086 485.56 149.07 485.773 149.039C485.987 149.003 486.156 148.966 486.281 148.93V149.922C486.141 149.99 485.932 150.044 485.656 150.086C485.385 150.133 485.141 150.156 484.922 150.156C483.266 150.156 482.438 149.284 482.438 147.539V142.445H481.211V141.82L482.438 141.281L482.984 139.453H483.734V141.438H486.219V142.445H483.734V147.484C483.734 148 483.857 148.396 484.102 148.672C484.346 148.948 484.682 149.086 485.109 149.086ZM489.219 141.438V146.992C489.219 147.69 489.378 148.211 489.695 148.555C490.013 148.898 490.51 149.07 491.188 149.07C492.083 149.07 492.737 148.826 493.148 148.336C493.565 147.846 493.773 147.047 493.773 145.938V141.438H495.07V150H494L493.812 148.852H493.742C493.477 149.273 493.107 149.596 492.633 149.82C492.164 150.044 491.628 150.156 491.023 150.156C489.982 150.156 489.201 149.909 488.68 149.414C488.164 148.919 487.906 148.128 487.906 147.039V141.438H489.219ZM501.734 141.281C502.115 141.281 502.456 141.312 502.758 141.375L502.578 142.578C502.224 142.5 501.911 142.461 501.641 142.461C500.948 142.461 500.354 142.742 499.859 143.305C499.37 143.867 499.125 144.568 499.125 145.406V150H497.828V141.438H498.898L499.047 143.023H499.109C499.427 142.466 499.81 142.036 500.258 141.734C500.706 141.432 501.198 141.281 501.734 141.281ZM508.344 150.156C507.786 150.156 507.276 150.055 506.812 149.852C506.354 149.643 505.969 149.326 505.656 148.898H505.562C505.625 149.398 505.656 149.872 505.656 150.32V153.844H504.359V141.438H505.414L505.594 142.609H505.656C505.99 142.141 506.378 141.802 506.82 141.594C507.263 141.385 507.771 141.281 508.344 141.281C509.479 141.281 510.354 141.669 510.969 142.445C511.589 143.221 511.898 144.31 511.898 145.711C511.898 147.117 511.583 148.211 510.953 148.992C510.328 149.768 509.458 150.156 508.344 150.156ZM508.156 142.383C507.281 142.383 506.648 142.625 506.258 143.109C505.867 143.594 505.667 144.365 505.656 145.422V145.711C505.656 146.914 505.857 147.776 506.258 148.297C506.659 148.812 507.302 149.07 508.188 149.07C508.927 149.07 509.505 148.771 509.922 148.172C510.344 147.573 510.555 146.747 510.555 145.695C510.555 144.628 510.344 143.81 509.922 143.242C509.505 142.669 508.917 142.383 508.156 142.383ZM515.469 150H514.172V141.438H515.469V150ZM514.062 139.117C514.062 138.82 514.135 138.604 514.281 138.469C514.427 138.328 514.609 138.258 514.828 138.258C515.036 138.258 515.216 138.328 515.367 138.469C515.518 138.609 515.594 138.826 515.594 139.117C515.594 139.409 515.518 139.628 515.367 139.773C515.216 139.914 515.036 139.984 514.828 139.984C514.609 139.984 514.427 139.914 514.281 139.773C514.135 139.628 514.062 139.409 514.062 139.117ZM523.742 147.664C523.742 148.461 523.445 149.076 522.852 149.508C522.258 149.94 521.424 150.156 520.352 150.156C519.216 150.156 518.331 149.977 517.695 149.617V148.414C518.107 148.622 518.547 148.786 519.016 148.906C519.49 149.026 519.945 149.086 520.383 149.086C521.06 149.086 521.581 148.979 521.945 148.766C522.31 148.547 522.492 148.216 522.492 147.773C522.492 147.44 522.346 147.156 522.055 146.922C521.768 146.682 521.206 146.401 520.367 146.078C519.57 145.781 519.003 145.523 518.664 145.305C518.331 145.081 518.081 144.828 517.914 144.547C517.753 144.266 517.672 143.93 517.672 143.539C517.672 142.841 517.956 142.292 518.523 141.891C519.091 141.484 519.87 141.281 520.859 141.281C521.781 141.281 522.682 141.469 523.562 141.844L523.102 142.898C522.242 142.544 521.464 142.367 520.766 142.367C520.151 142.367 519.688 142.464 519.375 142.656C519.062 142.849 518.906 143.115 518.906 143.453C518.906 143.682 518.964 143.878 519.078 144.039C519.198 144.201 519.388 144.354 519.648 144.5C519.909 144.646 520.409 144.857 521.148 145.133C522.164 145.503 522.849 145.875 523.203 146.25C523.562 146.625 523.742 147.096 523.742 147.664ZM533.633 150.156C532.367 150.156 531.367 149.771 530.633 149C529.904 148.229 529.539 147.159 529.539 145.789C529.539 144.409 529.878 143.312 530.555 142.5C531.237 141.688 532.151 141.281 533.297 141.281C534.37 141.281 535.219 141.635 535.844 142.344C536.469 143.047 536.781 143.977 536.781 145.133V145.953H530.883C530.909 146.958 531.161 147.721 531.641 148.242C532.125 148.763 532.805 149.023 533.68 149.023C534.602 149.023 535.513 148.831 536.414 148.445V149.602C535.956 149.799 535.521 149.94 535.109 150.023C534.703 150.112 534.211 150.156 533.633 150.156ZM533.281 142.367C532.594 142.367 532.044 142.591 531.633 143.039C531.227 143.487 530.987 144.107 530.914 144.898H535.391C535.391 144.081 535.208 143.456 534.844 143.023C534.479 142.586 533.958 142.367 533.281 142.367ZM541.766 149.086C541.995 149.086 542.216 149.07 542.43 149.039C542.643 149.003 542.812 148.966 542.938 148.93V149.922C542.797 149.99 542.589 150.044 542.312 150.086C542.042 150.133 541.797 150.156 541.578 150.156C539.922 150.156 539.094 149.284 539.094 147.539V142.445H537.867V141.82L539.094 141.281L539.641 139.453H540.391V141.438H542.875V142.445H540.391V147.484C540.391 148 540.513 148.396 540.758 148.672C541.003 148.948 541.339 149.086 541.766 149.086ZM550.031 141.438V146.992C550.031 147.69 550.19 148.211 550.508 148.555C550.826 148.898 551.323 149.07 552 149.07C552.896 149.07 553.549 148.826 553.961 148.336C554.378 147.846 554.586 147.047 554.586 145.938V141.438H555.883V150H554.812L554.625 148.852H554.555C554.289 149.273 553.919 149.596 553.445 149.82C552.977 150.044 552.44 150.156 551.836 150.156C550.794 150.156 550.013 149.909 549.492 149.414C548.977 148.919 548.719 148.128 548.719 147.039V141.438H550.031ZM559.938 150H558.641V137.844H559.938V150ZM565.453 149.086C565.682 149.086 565.904 149.07 566.117 149.039C566.331 149.003 566.5 148.966 566.625 148.93V149.922C566.484 149.99 566.276 150.044 566 150.086C565.729 150.133 565.484 150.156 565.266 150.156C563.609 150.156 562.781 149.284 562.781 147.539V142.445H561.555V141.82L562.781 141.281L563.328 139.453H564.078V141.438H566.562V142.445H564.078V147.484C564.078 148 564.201 148.396 564.445 148.672C564.69 148.948 565.026 149.086 565.453 149.086ZM572.25 141.281C572.63 141.281 572.971 141.312 573.273 141.375L573.094 142.578C572.74 142.5 572.427 142.461 572.156 142.461C571.464 142.461 570.87 142.742 570.375 143.305C569.885 143.867 569.641 144.568 569.641 145.406V150H568.344V141.438H569.414L569.562 143.023H569.625C569.943 142.466 570.326 142.036 570.773 141.734C571.221 141.432 571.714 141.281 572.25 141.281ZM576.172 150H574.875V141.438H576.172V150ZM574.766 139.117C574.766 138.82 574.839 138.604 574.984 138.469C575.13 138.328 575.312 138.258 575.531 138.258C575.74 138.258 575.919 138.328 576.07 138.469C576.221 138.609 576.297 138.826 576.297 139.117C576.297 139.409 576.221 139.628 576.07 139.773C575.919 139.914 575.74 139.984 575.531 139.984C575.312 139.984 575.13 139.914 574.984 139.773C574.839 139.628 574.766 139.409 574.766 139.117ZM582.344 150.156C581.104 150.156 580.143 149.776 579.461 149.016C578.784 148.25 578.445 147.169 578.445 145.773C578.445 144.341 578.789 143.234 579.477 142.453C580.169 141.672 581.154 141.281 582.43 141.281C582.841 141.281 583.253 141.326 583.664 141.414C584.076 141.503 584.398 141.607 584.633 141.727L584.234 142.828C583.948 142.714 583.635 142.62 583.297 142.547C582.958 142.469 582.659 142.43 582.398 142.43C580.659 142.43 579.789 143.539 579.789 145.758C579.789 146.81 580 147.617 580.422 148.18C580.849 148.742 581.479 149.023 582.312 149.023C583.026 149.023 583.758 148.87 584.508 148.562V149.711C583.935 150.008 583.214 150.156 582.344 150.156ZM590.164 150.156C588.898 150.156 587.898 149.771 587.164 149C586.435 148.229 586.07 147.159 586.07 145.789C586.07 144.409 586.409 143.312 587.086 142.5C587.768 141.688 588.682 141.281 589.828 141.281C590.901 141.281 591.75 141.635 592.375 142.344C593 143.047 593.312 143.977 593.312 145.133V145.953H587.414C587.44 146.958 587.693 147.721 588.172 148.242C588.656 148.763 589.336 149.023 590.211 149.023C591.133 149.023 592.044 148.831 592.945 148.445V149.602C592.487 149.799 592.052 149.94 591.641 150.023C591.234 150.112 590.742 150.156 590.164 150.156ZM589.812 142.367C589.125 142.367 588.576 142.591 588.164 143.039C587.758 143.487 587.518 144.107 587.445 144.898H591.922C591.922 144.081 591.74 143.456 591.375 143.023C591.01 142.586 590.49 142.367 589.812 142.367ZM601.055 147.664C601.055 148.461 600.758 149.076 600.164 149.508C599.57 149.94 598.737 150.156 597.664 150.156C596.529 150.156 595.643 149.977 595.008 149.617V148.414C595.419 148.622 595.859 148.786 596.328 148.906C596.802 149.026 597.258 149.086 597.695 149.086C598.372 149.086 598.893 148.979 599.258 148.766C599.622 148.547 599.805 148.216 599.805 147.773C599.805 147.44 599.659 147.156 599.367 146.922C599.081 146.682 598.518 146.401 597.68 146.078C596.883 145.781 596.315 145.523 595.977 145.305C595.643 145.081 595.393 144.828 595.227 144.547C595.065 144.266 594.984 143.93 594.984 143.539C594.984 142.841 595.268 142.292 595.836 141.891C596.404 141.484 597.182 141.281 598.172 141.281C599.094 141.281 599.995 141.469 600.875 141.844L600.414 142.898C599.555 142.544 598.776 142.367 598.078 142.367C597.464 142.367 597 142.464 596.688 142.656C596.375 142.849 596.219 143.115 596.219 143.453C596.219 143.682 596.276 143.878 596.391 144.039C596.51 144.201 596.701 144.354 596.961 144.5C597.221 144.646 597.721 144.857 598.461 145.133C599.477 145.503 600.161 145.875 600.516 146.25C600.875 146.625 601.055 147.096 601.055 147.664ZM602.984 149.172C602.984 148.823 603.062 148.56 603.219 148.383C603.38 148.201 603.609 148.109 603.906 148.109C604.208 148.109 604.443 148.201 604.609 148.383C604.781 148.56 604.867 148.823 604.867 149.172C604.867 149.51 604.781 149.771 604.609 149.953C604.438 150.135 604.203 150.227 603.906 150.227C603.641 150.227 603.419 150.146 603.242 149.984C603.07 149.818 602.984 149.547 602.984 149.172ZM620.906 144.18C620.906 146.065 620.393 147.508 619.367 148.508C618.346 149.503 616.875 150 614.953 150H611.789V138.578H615.289C617.065 138.578 618.445 139.07 619.43 140.055C620.414 141.039 620.906 142.414 620.906 144.18ZM619.5 144.227C619.5 142.737 619.125 141.615 618.375 140.859C617.63 140.104 616.521 139.727 615.047 139.727H613.117V148.852H614.734C616.318 148.852 617.508 148.464 618.305 147.688C619.102 146.906 619.5 145.753 619.5 144.227ZM624.484 141.438V146.992C624.484 147.69 624.643 148.211 624.961 148.555C625.279 148.898 625.776 149.07 626.453 149.07C627.349 149.07 628.003 148.826 628.414 148.336C628.831 147.846 629.039 147.047 629.039 145.938V141.438H630.336V150H629.266L629.078 148.852H629.008C628.742 149.273 628.372 149.596 627.898 149.82C627.43 150.044 626.893 150.156 626.289 150.156C625.247 150.156 624.466 149.909 623.945 149.414C623.43 148.919 623.172 148.128 623.172 147.039V141.438H624.484ZM634.391 150H633.094V141.438H634.391V150ZM632.984 139.117C632.984 138.82 633.057 138.604 633.203 138.469C633.349 138.328 633.531 138.258 633.75 138.258C633.958 138.258 634.138 138.328 634.289 138.469C634.44 138.609 634.516 138.826 634.516 139.117C634.516 139.409 634.44 139.628 634.289 139.773C634.138 139.914 633.958 139.984 633.75 139.984C633.531 139.984 633.349 139.914 633.203 139.773C633.057 139.628 632.984 139.409 632.984 139.117ZM642.664 147.664C642.664 148.461 642.367 149.076 641.773 149.508C641.18 149.94 640.346 150.156 639.273 150.156C638.138 150.156 637.253 149.977 636.617 149.617V148.414C637.029 148.622 637.469 148.786 637.938 148.906C638.411 149.026 638.867 149.086 639.305 149.086C639.982 149.086 640.503 148.979 640.867 148.766C641.232 148.547 641.414 148.216 641.414 147.773C641.414 147.44 641.268 147.156 640.977 146.922C640.69 146.682 640.128 146.401 639.289 146.078C638.492 145.781 637.924 145.523 637.586 145.305C637.253 145.081 637.003 144.828 636.836 144.547C636.674 144.266 636.594 143.93 636.594 143.539C636.594 142.841 636.878 142.292 637.445 141.891C638.013 141.484 638.792 141.281 639.781 141.281C640.703 141.281 641.604 141.469 642.484 141.844L642.023 142.898C641.164 142.544 640.385 142.367 639.688 142.367C639.073 142.367 638.609 142.464 638.297 142.656C637.984 142.849 637.828 143.115 637.828 143.453C637.828 143.682 637.885 143.878 638 144.039C638.12 144.201 638.31 144.354 638.57 144.5C638.831 144.646 639.331 144.857 640.07 145.133C641.086 145.503 641.771 145.875 642.125 146.25C642.484 146.625 642.664 147.096 642.664 147.664ZM654.461 147.664C654.461 148.461 654.164 149.076 653.57 149.508C652.977 149.94 652.143 150.156 651.07 150.156C649.935 150.156 649.049 149.977 648.414 149.617V148.414C648.826 148.622 649.266 148.786 649.734 148.906C650.208 149.026 650.664 149.086 651.102 149.086C651.779 149.086 652.299 148.979 652.664 148.766C653.029 148.547 653.211 148.216 653.211 147.773C653.211 147.44 653.065 147.156 652.773 146.922C652.487 146.682 651.924 146.401 651.086 146.078C650.289 145.781 649.721 145.523 649.383 145.305C649.049 145.081 648.799 144.828 648.633 144.547C648.471 144.266 648.391 143.93 648.391 143.539C648.391 142.841 648.674 142.292 649.242 141.891C649.81 141.484 650.589 141.281 651.578 141.281C652.5 141.281 653.401 141.469 654.281 141.844L653.82 142.898C652.961 142.544 652.182 142.367 651.484 142.367C650.87 142.367 650.406 142.464 650.094 142.656C649.781 142.849 649.625 143.115 649.625 143.453C649.625 143.682 649.682 143.878 649.797 144.039C649.917 144.201 650.107 144.354 650.367 144.5C650.628 144.646 651.128 144.857 651.867 145.133C652.883 145.503 653.568 145.875 653.922 146.25C654.281 146.625 654.461 147.096 654.461 147.664ZM657.875 150H656.578V141.438H657.875V150ZM656.469 139.117C656.469 138.82 656.542 138.604 656.688 138.469C656.833 138.328 657.016 138.258 657.234 138.258C657.443 138.258 657.622 138.328 657.773 138.469C657.924 138.609 658 138.826 658 139.117C658 139.409 657.924 139.628 657.773 139.773C657.622 139.914 657.443 139.984 657.234 139.984C657.016 139.984 656.833 139.914 656.688 139.773C656.542 139.628 656.469 139.409 656.469 139.117ZM663.391 149.086C663.62 149.086 663.841 149.07 664.055 149.039C664.268 149.003 664.438 148.966 664.562 148.93V149.922C664.422 149.99 664.214 150.044 663.938 150.086C663.667 150.133 663.422 150.156 663.203 150.156C661.547 150.156 660.719 149.284 660.719 147.539V142.445H659.492V141.82L660.719 141.281L661.266 139.453H662.016V141.438H664.5V142.445H662.016V147.484C662.016 148 662.138 148.396 662.383 148.672C662.628 148.948 662.964 149.086 663.391 149.086ZM675.703 150L675.445 148.781H675.383C674.956 149.318 674.529 149.682 674.102 149.875C673.68 150.062 673.151 150.156 672.516 150.156C671.667 150.156 671 149.938 670.516 149.5C670.036 149.062 669.797 148.44 669.797 147.633C669.797 145.904 671.18 144.997 673.945 144.914L675.398 144.867V144.336C675.398 143.664 675.253 143.169 674.961 142.852C674.674 142.529 674.214 142.367 673.578 142.367C672.865 142.367 672.057 142.586 671.156 143.023L670.758 142.031C671.18 141.802 671.641 141.622 672.141 141.492C672.646 141.362 673.151 141.297 673.656 141.297C674.677 141.297 675.432 141.523 675.922 141.977C676.417 142.43 676.664 143.156 676.664 144.156V150H675.703ZM672.773 149.086C673.581 149.086 674.214 148.865 674.672 148.422C675.135 147.979 675.367 147.359 675.367 146.562V145.789L674.07 145.844C673.039 145.88 672.294 146.042 671.836 146.328C671.383 146.609 671.156 147.049 671.156 147.648C671.156 148.117 671.297 148.474 671.578 148.719C671.865 148.964 672.263 149.086 672.773 149.086ZM690.258 150V144.43C690.258 143.747 690.112 143.237 689.82 142.898C689.529 142.555 689.076 142.383 688.461 142.383C687.654 142.383 687.057 142.615 686.672 143.078C686.286 143.542 686.094 144.255 686.094 145.219V150H684.797V144.43C684.797 143.747 684.651 143.237 684.359 142.898C684.068 142.555 683.612 142.383 682.992 142.383C682.18 142.383 681.583 142.628 681.203 143.117C680.828 143.602 680.641 144.398 680.641 145.508V150H679.344V141.438H680.398L680.609 142.609H680.672C680.917 142.193 681.26 141.867 681.703 141.633C682.151 141.398 682.651 141.281 683.203 141.281C684.542 141.281 685.417 141.766 685.828 142.734H685.891C686.146 142.286 686.516 141.932 687 141.672C687.484 141.411 688.036 141.281 688.656 141.281C689.625 141.281 690.349 141.531 690.828 142.031C691.312 142.526 691.555 143.32 691.555 144.414V150H690.258ZM697.852 150.156C696.586 150.156 695.586 149.771 694.852 149C694.122 148.229 693.758 147.159 693.758 145.789C693.758 144.409 694.096 143.312 694.773 142.5C695.456 141.688 696.37 141.281 697.516 141.281C698.589 141.281 699.438 141.635 700.062 142.344C700.688 143.047 701 143.977 701 145.133V145.953H695.102C695.128 146.958 695.38 147.721 695.859 148.242C696.344 148.763 697.023 149.023 697.898 149.023C698.82 149.023 699.732 148.831 700.633 148.445V149.602C700.174 149.799 699.74 149.94 699.328 150.023C698.922 150.112 698.43 150.156 697.852 150.156ZM697.5 142.367C696.812 142.367 696.263 142.591 695.852 143.039C695.445 143.487 695.206 144.107 695.133 144.898H699.609C699.609 144.081 699.427 143.456 699.062 143.023C698.698 142.586 698.177 142.367 697.5 142.367ZM705.984 149.086C706.214 149.086 706.435 149.07 706.648 149.039C706.862 149.003 707.031 148.966 707.156 148.93V149.922C707.016 149.99 706.807 150.044 706.531 150.086C706.26 150.133 706.016 150.156 705.797 150.156C704.141 150.156 703.312 149.284 703.312 147.539V142.445H702.086V141.82L703.312 141.281L703.859 139.453H704.609V141.438H707.094V142.445H704.609V147.484C704.609 148 704.732 148.396 704.977 148.672C705.221 148.948 705.557 149.086 705.984 149.086ZM716.266 149.07C717.13 149.07 717.76 148.839 718.156 148.375C718.552 147.911 718.763 147.13 718.789 146.031V145.742C718.789 144.544 718.586 143.682 718.18 143.156C717.773 142.63 717.13 142.367 716.25 142.367C715.49 142.367 714.906 142.664 714.5 143.258C714.099 143.846 713.898 144.68 713.898 145.758C713.898 146.836 714.096 147.659 714.492 148.227C714.893 148.789 715.484 149.07 716.266 149.07ZM716.07 150.156C714.966 150.156 714.104 149.768 713.484 148.992C712.865 148.216 712.555 147.133 712.555 145.742C712.555 144.341 712.867 143.247 713.492 142.461C714.117 141.674 714.987 141.281 716.102 141.281C717.273 141.281 718.174 141.724 718.805 142.609H718.875L719.062 141.438H720.086V153.844H718.789V150.18C718.789 149.659 718.818 149.216 718.875 148.852H718.773C718.174 149.721 717.273 150.156 716.07 150.156ZM724.062 141.438V146.992C724.062 147.69 724.221 148.211 724.539 148.555C724.857 148.898 725.354 149.07 726.031 149.07C726.927 149.07 727.581 148.826 727.992 148.336C728.409 147.846 728.617 147.047 728.617 145.938V141.438H729.914V150H728.844L728.656 148.852H728.586C728.32 149.273 727.951 149.596 727.477 149.82C727.008 150.044 726.471 150.156 725.867 150.156C724.826 150.156 724.044 149.909 723.523 149.414C723.008 148.919 722.75 148.128 722.75 147.039V141.438H724.062ZM737.938 150L737.68 148.781H737.617C737.19 149.318 736.763 149.682 736.336 149.875C735.914 150.062 735.385 150.156 734.75 150.156C733.901 150.156 733.234 149.938 732.75 149.5C732.271 149.062 732.031 148.44 732.031 147.633C732.031 145.904 733.414 144.997 736.18 144.914L737.633 144.867V144.336C737.633 143.664 737.487 143.169 737.195 142.852C736.909 142.529 736.448 142.367 735.812 142.367C735.099 142.367 734.292 142.586 733.391 143.023L732.992 142.031C733.414 141.802 733.875 141.622 734.375 141.492C734.88 141.362 735.385 141.297 735.891 141.297C736.911 141.297 737.667 141.523 738.156 141.977C738.651 142.43 738.898 143.156 738.898 144.156V150H737.938ZM735.008 149.086C735.815 149.086 736.448 148.865 736.906 148.422C737.37 147.979 737.602 147.359 737.602 146.562V145.789L736.305 145.844C735.273 145.88 734.529 146.042 734.07 146.328C733.617 146.609 733.391 147.049 733.391 147.648C733.391 148.117 733.531 148.474 733.812 148.719C734.099 148.964 734.497 149.086 735.008 149.086ZM752.492 150V144.43C752.492 143.747 752.346 143.237 752.055 142.898C751.763 142.555 751.31 142.383 750.695 142.383C749.888 142.383 749.292 142.615 748.906 143.078C748.521 143.542 748.328 144.255 748.328 145.219V150H747.031V144.43C747.031 143.747 746.885 143.237 746.594 142.898C746.302 142.555 745.846 142.383 745.227 142.383C744.414 142.383 743.818 142.628 743.438 143.117C743.062 143.602 742.875 144.398 742.875 145.508V150H741.578V141.438H742.633L742.844 142.609H742.906C743.151 142.193 743.495 141.867 743.938 141.633C744.385 141.398 744.885 141.281 745.438 141.281C746.776 141.281 747.651 141.766 748.062 142.734H748.125C748.38 142.286 748.75 141.932 749.234 141.672C749.719 141.411 750.271 141.281 750.891 141.281C751.859 141.281 752.583 141.531 753.062 142.031C753.547 142.526 753.789 143.32 753.789 144.414V150H752.492ZM765.891 150L765.633 148.781H765.57C765.143 149.318 764.716 149.682 764.289 149.875C763.867 150.062 763.339 150.156 762.703 150.156C761.854 150.156 761.188 149.938 760.703 149.5C760.224 149.062 759.984 148.44 759.984 147.633C759.984 145.904 761.367 144.997 764.133 144.914L765.586 144.867V144.336C765.586 143.664 765.44 143.169 765.148 142.852C764.862 142.529 764.401 142.367 763.766 142.367C763.052 142.367 762.245 142.586 761.344 143.023L760.945 142.031C761.367 141.802 761.828 141.622 762.328 141.492C762.833 141.362 763.339 141.297 763.844 141.297C764.865 141.297 765.62 141.523 766.109 141.977C766.604 142.43 766.852 143.156 766.852 144.156V150H765.891ZM762.961 149.086C763.768 149.086 764.401 148.865 764.859 148.422C765.323 147.979 765.555 147.359 765.555 146.562V145.789L764.258 145.844C763.227 145.88 762.482 146.042 762.023 146.328C761.57 146.609 761.344 147.049 761.344 147.648C761.344 148.117 761.484 148.474 761.766 148.719C762.052 148.964 762.451 149.086 762.961 149.086ZM773.438 141.281C773.818 141.281 774.159 141.312 774.461 141.375L774.281 142.578C773.927 142.5 773.615 142.461 773.344 142.461C772.651 142.461 772.057 142.742 771.562 143.305C771.073 143.867 770.828 144.568 770.828 145.406V150H769.531V141.438H770.602L770.75 143.023H770.812C771.13 142.466 771.513 142.036 771.961 141.734C772.409 141.432 772.901 141.281 773.438 141.281ZM779.484 150.156C778.245 150.156 777.284 149.776 776.602 149.016C775.924 148.25 775.586 147.169 775.586 145.773C775.586 144.341 775.93 143.234 776.617 142.453C777.31 141.672 778.294 141.281 779.57 141.281C779.982 141.281 780.393 141.326 780.805 141.414C781.216 141.503 781.539 141.607 781.773 141.727L781.375 142.828C781.089 142.714 780.776 142.62 780.438 142.547C780.099 142.469 779.799 142.43 779.539 142.43C777.799 142.43 776.93 143.539 776.93 145.758C776.93 146.81 777.141 147.617 777.562 148.18C777.99 148.742 778.62 149.023 779.453 149.023C780.167 149.023 780.898 148.87 781.648 148.562V149.711C781.076 150.008 780.354 150.156 779.484 150.156ZM784.906 141.438V146.992C784.906 147.69 785.065 148.211 785.383 148.555C785.701 148.898 786.198 149.07 786.875 149.07C787.771 149.07 788.424 148.826 788.836 148.336C789.253 147.846 789.461 147.047 789.461 145.938V141.438H790.758V150H789.688L789.5 148.852H789.43C789.164 149.273 788.794 149.596 788.32 149.82C787.852 150.044 787.315 150.156 786.711 150.156C785.669 150.156 784.888 149.909 784.367 149.414C783.852 148.919 783.594 148.128 783.594 147.039V141.438H784.906ZM793.328 149.172C793.328 148.823 793.406 148.56 793.562 148.383C793.724 148.201 793.953 148.109 794.25 148.109C794.552 148.109 794.786 148.201 794.953 148.383C795.125 148.56 795.211 148.823 795.211 149.172C795.211 149.51 795.125 149.771 794.953 149.953C794.781 150.135 794.547 150.227 794.25 150.227C793.984 150.227 793.763 150.146 793.586 149.984C793.414 149.818 793.328 149.547 793.328 149.172ZM345.992 174H344.477L338.234 164.414H338.172C338.255 165.539 338.297 166.57 338.297 167.508V174H337.07V162.578H338.57L344.797 172.125H344.859C344.849 171.984 344.826 171.534 344.789 170.773C344.753 170.008 344.74 169.461 344.75 169.133V162.578H345.992V174ZM354.203 174L353.945 172.781H353.883C353.456 173.318 353.029 173.682 352.602 173.875C352.18 174.062 351.651 174.156 351.016 174.156C350.167 174.156 349.5 173.938 349.016 173.5C348.536 173.062 348.297 172.44 348.297 171.633C348.297 169.904 349.68 168.997 352.445 168.914L353.898 168.867V168.336C353.898 167.664 353.753 167.169 353.461 166.852C353.174 166.529 352.714 166.367 352.078 166.367C351.365 166.367 350.557 166.586 349.656 167.023L349.258 166.031C349.68 165.802 350.141 165.622 350.641 165.492C351.146 165.362 351.651 165.297 352.156 165.297C353.177 165.297 353.932 165.523 354.422 165.977C354.917 166.43 355.164 167.156 355.164 168.156V174H354.203ZM351.273 173.086C352.081 173.086 352.714 172.865 353.172 172.422C353.635 171.979 353.867 171.359 353.867 170.562V169.789L352.57 169.844C351.539 169.88 350.794 170.042 350.336 170.328C349.883 170.609 349.656 171.049 349.656 171.648C349.656 172.117 349.797 172.474 350.078 172.719C350.365 172.964 350.763 173.086 351.273 173.086ZM368.758 174V168.43C368.758 167.747 368.612 167.237 368.32 166.898C368.029 166.555 367.576 166.383 366.961 166.383C366.154 166.383 365.557 166.615 365.172 167.078C364.786 167.542 364.594 168.255 364.594 169.219V174H363.297V168.43C363.297 167.747 363.151 167.237 362.859 166.898C362.568 166.555 362.112 166.383 361.492 166.383C360.68 166.383 360.083 166.628 359.703 167.117C359.328 167.602 359.141 168.398 359.141 169.508V174H357.844V165.438H358.898L359.109 166.609H359.172C359.417 166.193 359.76 165.867 360.203 165.633C360.651 165.398 361.151 165.281 361.703 165.281C363.042 165.281 363.917 165.766 364.328 166.734H364.391C364.646 166.286 365.016 165.932 365.5 165.672C365.984 165.411 366.536 165.281 367.156 165.281C368.125 165.281 368.849 165.531 369.328 166.031C369.812 166.526 370.055 167.32 370.055 168.414V174H368.758ZM380.75 166.445H378.57V174H377.273V166.445H375.742V165.859L377.273 165.391V164.914C377.273 162.81 378.193 161.758 380.031 161.758C380.484 161.758 381.016 161.849 381.625 162.031L381.289 163.07C380.789 162.909 380.362 162.828 380.008 162.828C379.518 162.828 379.156 162.992 378.922 163.32C378.688 163.643 378.57 164.164 378.57 164.883V165.438H380.75V166.445ZM387.578 174L387.32 172.781H387.258C386.831 173.318 386.404 173.682 385.977 173.875C385.555 174.062 385.026 174.156 384.391 174.156C383.542 174.156 382.875 173.938 382.391 173.5C381.911 173.062 381.672 172.44 381.672 171.633C381.672 169.904 383.055 168.997 385.82 168.914L387.273 168.867V168.336C387.273 167.664 387.128 167.169 386.836 166.852C386.549 166.529 386.089 166.367 385.453 166.367C384.74 166.367 383.932 166.586 383.031 167.023L382.633 166.031C383.055 165.802 383.516 165.622 384.016 165.492C384.521 165.362 385.026 165.297 385.531 165.297C386.552 165.297 387.307 165.523 387.797 165.977C388.292 166.43 388.539 167.156 388.539 168.156V174H387.578ZM384.648 173.086C385.456 173.086 386.089 172.865 386.547 172.422C387.01 171.979 387.242 171.359 387.242 170.562V169.789L385.945 169.844C384.914 169.88 384.169 170.042 383.711 170.328C383.258 170.609 383.031 171.049 383.031 171.648C383.031 172.117 383.172 172.474 383.453 172.719C383.74 172.964 384.138 173.086 384.648 173.086ZM394.641 174.156C393.401 174.156 392.44 173.776 391.758 173.016C391.081 172.25 390.742 171.169 390.742 169.773C390.742 168.341 391.086 167.234 391.773 166.453C392.466 165.672 393.451 165.281 394.727 165.281C395.138 165.281 395.549 165.326 395.961 165.414C396.372 165.503 396.695 165.607 396.93 165.727L396.531 166.828C396.245 166.714 395.932 166.62 395.594 166.547C395.255 166.469 394.956 166.43 394.695 166.43C392.956 166.43 392.086 167.539 392.086 169.758C392.086 170.81 392.297 171.617 392.719 172.18C393.146 172.742 393.776 173.023 394.609 173.023C395.323 173.023 396.055 172.87 396.805 172.562V173.711C396.232 174.008 395.51 174.156 394.641 174.156ZM400.141 174H398.844V165.438H400.141V174ZM398.734 163.117C398.734 162.82 398.807 162.604 398.953 162.469C399.099 162.328 399.281 162.258 399.5 162.258C399.708 162.258 399.888 162.328 400.039 162.469C400.19 162.609 400.266 162.826 400.266 163.117C400.266 163.409 400.19 163.628 400.039 163.773C399.888 163.914 399.708 163.984 399.5 163.984C399.281 163.984 399.099 163.914 398.953 163.773C398.807 163.628 398.734 163.409 398.734 163.117ZM404.188 174H402.891V161.844H404.188V174ZM408.234 174H406.938V165.438H408.234V174ZM406.828 163.117C406.828 162.82 406.901 162.604 407.047 162.469C407.193 162.328 407.375 162.258 407.594 162.258C407.802 162.258 407.982 162.328 408.133 162.469C408.284 162.609 408.359 162.826 408.359 163.117C408.359 163.409 408.284 163.628 408.133 163.773C407.982 163.914 407.802 163.984 407.594 163.984C407.375 163.984 407.193 163.914 407.047 163.773C406.901 163.628 406.828 163.409 406.828 163.117ZM416.508 171.664C416.508 172.461 416.211 173.076 415.617 173.508C415.023 173.94 414.19 174.156 413.117 174.156C411.982 174.156 411.096 173.977 410.461 173.617V172.414C410.872 172.622 411.312 172.786 411.781 172.906C412.255 173.026 412.711 173.086 413.148 173.086C413.826 173.086 414.346 172.979 414.711 172.766C415.076 172.547 415.258 172.216 415.258 171.773C415.258 171.44 415.112 171.156 414.82 170.922C414.534 170.682 413.971 170.401 413.133 170.078C412.336 169.781 411.768 169.523 411.43 169.305C411.096 169.081 410.846 168.828 410.68 168.547C410.518 168.266 410.438 167.93 410.438 167.539C410.438 166.841 410.721 166.292 411.289 165.891C411.857 165.484 412.635 165.281 413.625 165.281C414.547 165.281 415.448 165.469 416.328 165.844L415.867 166.898C415.008 166.544 414.229 166.367 413.531 166.367C412.917 166.367 412.453 166.464 412.141 166.656C411.828 166.849 411.672 167.115 411.672 167.453C411.672 167.682 411.729 167.878 411.844 168.039C411.964 168.201 412.154 168.354 412.414 168.5C412.674 168.646 413.174 168.857 413.914 169.133C414.93 169.503 415.615 169.875 415.969 170.25C416.328 170.625 416.508 171.096 416.508 171.664ZM419.922 174H418.625V165.438H419.922V174ZM418.516 163.117C418.516 162.82 418.589 162.604 418.734 162.469C418.88 162.328 419.062 162.258 419.281 162.258C419.49 162.258 419.669 162.328 419.82 162.469C419.971 162.609 420.047 162.826 420.047 163.117C420.047 163.409 419.971 163.628 419.82 163.773C419.669 163.914 419.49 163.984 419.281 163.984C419.062 163.984 418.88 163.914 418.734 163.773C418.589 163.628 418.516 163.409 418.516 163.117ZM428.195 171.664C428.195 172.461 427.898 173.076 427.305 173.508C426.711 173.94 425.878 174.156 424.805 174.156C423.669 174.156 422.784 173.977 422.148 173.617V172.414C422.56 172.622 423 172.786 423.469 172.906C423.943 173.026 424.398 173.086 424.836 173.086C425.513 173.086 426.034 172.979 426.398 172.766C426.763 172.547 426.945 172.216 426.945 171.773C426.945 171.44 426.799 171.156 426.508 170.922C426.221 170.682 425.659 170.401 424.82 170.078C424.023 169.781 423.456 169.523 423.117 169.305C422.784 169.081 422.534 168.828 422.367 168.547C422.206 168.266 422.125 167.93 422.125 167.539C422.125 166.841 422.409 166.292 422.977 165.891C423.544 165.484 424.323 165.281 425.312 165.281C426.234 165.281 427.135 165.469 428.016 165.844L427.555 166.898C426.695 166.544 425.917 166.367 425.219 166.367C424.604 166.367 424.141 166.464 423.828 166.656C423.516 166.849 423.359 167.115 423.359 167.453C423.359 167.682 423.417 167.878 423.531 168.039C423.651 168.201 423.841 168.354 424.102 168.5C424.362 168.646 424.862 168.857 425.602 169.133C426.617 169.503 427.302 169.875 427.656 170.25C428.016 170.625 428.195 171.096 428.195 171.664Z" fill="black"/>
<defs>
<clipPath id="clip0_14_905">
<rect width="300" height="278" fill="white"/>
</clipPath>
</defs>
</svg>
